<?xml version="1.0" standalone="no"?>
<!DOCTYPE svg PUBLIC "-//W3C//DTD SVG 20010904//EN"
 "http://www.w3.org/TR/2001/REC-SVG-20010904/DTD/svg10.dtd">
<svg version="1.0" xmlns="http://www.w3.org/2000/svg"
 width="500.000000pt" height="500.000000pt" viewBox="0 0 500.000000 500.000000"
 preserveAspectRatio="xMidYMid meet">

<g transform="translate(0.000000,500.000000) scale(0.100000,-0.100000)"
fill="#000000" stroke="none">
<path d="M1220 2510 c0 -103 1 -110 20 -110 17 0 20 7 20 40 0 35 3 40 23 40
13 0 33 9 45 20 21 20 24 26 26 60 1 9 13 16 29 18 l27 3 0 -90 c0 -84 1 -91
20 -91 19 0 20 7 20 90 l0 90 30 0 c23 0 30 4 30 20 0 18 -7 20 -74 20 -58 0
-75 -3 -80 -16 -5 -14 -8 -14 -28 0 -12 9 -42 16 -65 16 l-43 0 0 -110z m88
41 c4 -23 -11 -41 -35 -41 -8 0 -13 14 -13 36 0 31 3 35 23 32 14 -2 23 -11
25 -27z"/>
<path d="M1670 2593 c-72 -65 -42 -193 45 -193 33 0 75 27 75 49 0 19 -23 24
-32 7 -11 -20 -51 -21 -68 -1 -19 23 -18 92 3 112 14 14 22 15 46 6 26 -9 30
-8 39 12 9 18 8 25 -4 29 -35 13 -75 5 -104 -21z"/>
<path d="M1865 2608 c-13 -45 -59 -185 -63 -196 -3 -10 2 -13 19 -10 15 2 25
12 29 28 5 20 13 26 43 28 34 3 38 1 43 -27 5 -24 12 -31 30 -31 13 0 24 3 24
7 0 3 -14 53 -32 110 -31 99 -33 103 -60 103 -16 0 -30 -6 -33 -12z m47 -88
c2 -20 -2 -26 -19 -28 -26 -4 -28 2 -12 48 13 35 24 27 31 -20z"/>
<path d="M2020 2510 c0 -102 1 -110 20 -110 17 0 19 8 22 67 l3 68 43 -68 c30
-48 47 -67 60 -65 15 3 17 18 20 111 2 100 1 108 -15 105 -15 -3 -19 -15 -21
-73 l-3 -69 -45 72 c-31 49 -52 72 -65 72 -18 0 -19 -8 -19 -110z"/>
<path d="M2240 2510 l0 -110 56 0 c48 0 59 4 85 29 24 25 29 38 29 79 0 28 -3
58 -6 67 -10 25 -59 45 -114 45 l-50 0 0 -110z m114 48 c36 -51 9 -128 -45
-128 l-29 0 0 75 0 75 29 0 c20 0 35 -8 45 -22z"/>
<path d="M2463 2613 c-9 -3 -13 -35 -13 -109 0 -97 1 -104 20 -104 19 0 20 7
20 110 0 61 -3 110 -7 109 -5 0 -14 -3 -20 -6z"/>
<path d="M2623 2612 c-7 -5 -13 -40 -15 -92 -3 -75 -5 -85 -20 -82 -12 2 -18
-4 -18 -18 0 -29 45 -27 64 3 7 12 16 61 20 110 6 88 2 100 -31 79z"/>
<path d="M2720 2523 c-17 -54 -34 -104 -36 -110 -4 -8 2 -13 16 -13 15 0 24 9
32 31 9 27 14 30 46 27 29 -2 37 -8 42 -28 4 -16 14 -26 28 -28 28 -4 28 1 -9
119 -29 95 -32 99 -59 99 -27 0 -30 -4 -60 -97z m70 25 c0 -7 3 -23 6 -35 5
-18 2 -23 -13 -23 -28 0 -33 8 -21 41 10 29 28 40 28 17z"/>
<path d="M2893 2613 c-9 -3 -2 -25 22 -73 20 -40 35 -84 35 -105 0 -28 4 -35
20 -35 17 0 20 7 20 43 0 28 11 62 34 104 18 34 31 65 28 68 -15 15 -34 1 -54
-40 -12 -24 -25 -42 -30 -39 -5 3 -16 23 -25 45 -15 37 -24 43 -50 32z"/>
<path d="M3135 2610 c-4 -6 -22 -55 -40 -110 l-34 -100 24 0 c18 0 25 7 30 30
6 26 11 30 41 30 30 0 37 -4 45 -30 7 -19 18 -30 30 -30 25 0 24 17 -7 114
-14 45 -28 87 -30 94 -4 15 -50 16 -59 2z m40 -87 c6 -28 4 -33 -13 -33 -27 0
-30 6 -18 45 12 39 21 35 31 -12z"/>
<path d="M3385 2610 c-3 -6 -21 -55 -40 -110 l-33 -100 23 0 c18 0 25 7 30 30
6 26 11 30 41 30 30 0 37 -4 45 -30 10 -27 36 -40 51 -25 3 3 -9 52 -27 108
-29 92 -35 102 -58 105 -14 2 -28 -2 -32 -8z m39 -72 c10 -38 7 -48 -14 -48
-11 0 -20 6 -20 13 0 23 12 57 20 57 4 0 10 -10 14 -22z"/>
<path d="M3554 2612 c-6 -4 -14 -52 -18 -109 -6 -99 -6 -103 14 -103 18 0 20
7 21 83 l1 82 17 -52 c13 -43 20 -53 38 -53 16 0 24 9 33 35 16 50 30 34 30
-36 0 -54 2 -59 21 -59 20 0 21 4 15 53 -3 28 -6 78 -6 110 0 55 -1 58 -22 55
-17 -2 -28 -17 -43 -55 -11 -29 -23 -53 -26 -53 -4 0 -10 12 -13 28 -17 73
-34 93 -62 74z"/>
<path d="M3770 2510 l0 -110 60 0 c47 0 60 3 60 15 0 10 -10 15 -34 15 -22 0
-36 6 -40 16 -12 32 -6 43 26 46 46 4 53 38 9 38 -26 0 -31 4 -31 25 0 22 4
25 35 25 28 0 35 4 35 20 0 18 -7 20 -60 20 l-60 0 0 -110z"/>
<path d="M3930 2511 c0 -104 1 -111 20 -111 17 0 20 7 20 40 0 27 4 40 13 40
8 0 22 -18 32 -40 10 -22 24 -40 32 -40 24 0 26 28 3 60 -20 28 -20 32 -6 52
20 29 20 72 1 88 -9 7 -38 15 -65 18 l-50 5 0 -112z m88 42 c2 -13 -4 -26 -16
-32 -24 -13 -32 -5 -32 31 0 25 4 29 23 26 14 -2 23 -11 25 -25z"/>
<path d="M4087 2600 c-4 -17 0 -20 24 -20 l29 0 0 -90 c0 -83 1 -90 20 -90 19
0 20 7 20 90 l0 90 30 0 c23 0 30 4 30 20 0 18 -7 20 -74 20 -65 0 -74 -2 -79
-20z"/>
<path d="M4280 2523 c-17 -54 -34 -104 -36 -110 -4 -8 2 -13 16 -13 15 0 24 9
32 31 9 27 14 30 46 27 29 -2 37 -8 42 -28 4 -16 14 -26 28 -28 28 -4 28 2 -8
119 -30 95 -32 99 -60 99 -27 0 -30 -4 -60 -97z m75 0 c6 -28 4 -33 -13 -33
-28 0 -31 7 -19 46 12 39 22 35 32 -13z"/>
<path d="M1527 2444 c-15 -15 -7 -45 11 -42 9 2 17 12 17 22 0 20 -16 31 -28
20z"/>
<path d="M1530 2220 c0 -11 -6 -20 -14 -20 -16 0 -31 -34 -21 -50 3 -5 17 -10
31 -10 22 0 24 4 24 50 0 28 -4 50 -10 50 -5 0 -10 -9 -10 -20z m0 -50 c0 -21
-15 -27 -25 -10 -7 12 2 30 16 30 5 0 9 -9 9 -20z"/>
<path d="M1750 2220 c0 -11 -7 -20 -15 -20 -17 0 -39 -36 -30 -50 3 -6 17 -10
31 -10 22 0 24 4 24 50 0 28 -2 50 -5 50 -3 0 -5 -9 -5 -20z m-2 -47 c-5 -25
-28 -28 -28 -4 0 12 6 21 16 21 9 0 14 -7 12 -17z"/>
<path d="M2492 2219 c-10 -25 -3 -79 9 -79 9 0 14 38 9 69 -1 8 4 18 12 22 10
7 9 9 -5 9 -10 0 -21 -9 -25 -21z"/>
<path d="M2835 2230 c-3 -5 -1 -10 4 -10 6 0 11 5 11 10 0 6 -2 10 -4 10 -3 0
-8 -4 -11 -10z"/>
<path d="M3980 2190 c0 -27 5 -50 10 -50 6 0 10 23 10 50 0 28 -4 50 -10 50
-5 0 -10 -22 -10 -50z"/>
<path d="M4262 2226 c2 -7 -8 -22 -21 -33 -30 -24 -22 -53 14 -53 23 0 25 3
25 50 0 28 -5 50 -10 50 -6 0 -10 -6 -8 -14z m3 -56 c0 -7 -6 -15 -12 -17 -8
-3 -13 4 -13 17 0 13 5 20 13 18 6 -3 12 -11 12 -18z"/>
<path d="M1301 2178 c1 -29 4 -44 6 -33 3 11 13 25 22 32 15 11 15 12 -1 13
-10 0 -18 6 -18 14 0 8 8 17 18 19 13 4 11 5 -5 6 -21 1 -23 -3 -22 -51z"/>
<path d="M1597 2223 c-11 -10 -8 -81 3 -88 6 -4 10 13 10 44 0 52 -1 56 -13
44z"/>
<path d="M2171 2178 c2 -52 2 -53 8 -13 6 35 8 37 14 18 5 -13 12 -23 17 -23
4 0 11 10 15 23 7 19 9 17 15 -18 l7 -40 2 53 c1 58 -9 66 -29 25 l-13 -28 -9
28 c-15 43 -28 31 -27 -25z"/>
<path d="M3102 2183 c3 -41 6 -48 26 -51 12 -2 22 1 22 7 0 6 -7 11 -15 11
-21 0 -19 28 3 33 16 4 16 5 0 6 -10 0 -18 7 -18 15 0 8 8 17 18 19 10 3 6 5
-11 6 -27 1 -28 0 -25 -46z"/>
<path d="M3574 2205 c-27 -41 5 -86 50 -69 25 10 20 44 -6 44 -17 0 -19 -3 -9
-9 7 -5 10 -14 6 -20 -10 -18 -35 6 -35 34 0 23 24 40 41 29 5 -3 9 0 9 5 0
21 -40 11 -56 -14z"/>
<path d="M4043 2219 c12 -7 16 -18 12 -37 -2 -15 0 -34 5 -42 7 -11 10 -2 10
32 0 36 4 48 18 51 9 3 -1 5 -23 6 -32 0 -36 -2 -22 -10z"/>
<path d="M1918 2209 c-9 -26 4 -69 21 -68 10 0 11 2 4 6 -16 6 -17 40 -2 45 7
2 6 8 -4 16 -12 10 -16 10 -19 1z"/>
<path d="M2658 2208 c-7 -20 4 -68 16 -68 9 0 12 25 7 73 -1 11 -19 8 -23 -5z"/>
<path d="M3437 2212 c-3 -4 -2 -22 0 -39 4 -22 11 -33 22 -32 10 0 11 2 4 6
-15 5 -17 40 -4 45 5 2 3 9 -4 15 -8 7 -16 9 -18 5z"/>
<path d="M1355 2179 c-10 -30 18 -57 39 -39 9 7 16 23 16 36 0 32 -45 34 -55
3z m43 -12 c2 -10 -3 -17 -12 -17 -10 0 -16 9 -16 21 0 24 23 21 28 -4z"/>
<path d="M1425 2179 c-10 -30 18 -58 40 -39 22 18 15 54 -12 58 -15 2 -23 -3
-28 -19z m42 -4 c7 -20 -2 -29 -21 -22 -9 4 -13 13 -10 22 8 19 23 19 31 0z"/>
<path d="M1630 2170 c0 -35 17 -41 22 -7 3 25 23 21 22 -5 0 -10 3 -18 8 -18
4 0 8 14 8 30 0 27 -3 30 -30 30 -27 0 -30 -3 -30 -30z"/>
<path d="M1780 2170 c0 -26 4 -30 28 -30 25 0 29 4 29 30 0 17 -4 30 -9 30 -4
0 -8 -12 -8 -26 0 -16 -5 -24 -12 -21 -7 2 -12 14 -10 25 2 12 -2 22 -7 22 -6
0 -11 -13 -11 -30z"/>
<path d="M1856 2191 c-3 -5 1 -14 9 -21 20 -17 19 -31 -2 -23 -15 5 -16 3 -6
-7 10 -11 15 -11 28 0 14 12 14 14 0 30 -13 14 -13 19 -3 23 9 4 7 6 -4 6 -9
1 -19 -3 -22 -8z"/>
<path d="M1960 2168 c0 -15 5 -28 10 -28 6 0 10 9 10 19 0 10 7 22 15 25 19 7
36 -32 28 -65 -9 -37 11 -11 30 39 10 23 12 42 7 42 -6 0 -10 -7 -10 -15 0 -8
-4 -15 -10 -15 -5 0 -10 7 -10 15 0 10 -10 14 -35 13 -31 -1 -35 -4 -35 -30z"/>
<path d="M2283 2193 c18 -5 24 -43 6 -43 -5 0 -7 5 -4 10 3 6 1 10 -4 10 -6 0
-11 -7 -11 -15 0 -9 9 -15 25 -15 21 0 25 5 25 30 0 26 -3 30 -27 29 -17 -1
-21 -3 -10 -6z"/>
<path d="M2340 2171 c0 -17 5 -31 10 -31 6 0 10 12 10 26 0 14 4 23 10 19 6
-3 10 -15 10 -26 0 -10 5 -19 11 -19 6 0 9 12 7 28 -2 21 -9 28 -30 30 -25 3
-28 0 -28 -27z"/>
<path d="M2418 2170 c3 -24 9 -30 28 -30 20 0 24 5 24 30 0 17 -4 30 -10 30
-5 0 -10 -11 -10 -25 0 -14 -4 -25 -10 -25 -5 0 -10 11 -10 25 0 14 -4 25 -8
25 -5 0 -7 -13 -4 -30z"/>
<path d="M2541 2193 c22 -5 32 -43 12 -43 -8 0 -11 5 -8 10 3 6 1 10 -4 10
-12 0 -15 -23 -5 -32 3 -3 14 -4 25 -1 13 4 19 14 19 34 0 25 -4 29 -27 28
-16 -1 -21 -3 -12 -6z"/>
<path d="M2607 2193 c-11 -10 -8 -51 4 -59 6 -3 16 -1 22 5 8 8 6 11 -6 11
-23 0 -22 37 1 43 14 4 14 5 1 6 -9 0 -19 -2 -22 -6z"/>
<path d="M2711 2173 c-1 -29 2 -33 24 -31 21 2 25 8 25 32 0 16 -3 26 -7 22
-4 -4 -8 -15 -8 -23 0 -29 -23 -25 -28 4 -4 27 -4 27 -6 -4z"/>
<path d="M2780 2168 c0 -15 5 -28 10 -28 6 0 10 8 10 18 0 10 4 22 10 28 6 6
3 10 -10 10 -15 0 -20 -7 -20 -28z"/>
<path d="M2830 2170 c0 -16 5 -30 10 -30 6 0 10 14 10 30 0 17 -4 30 -10 30
-5 0 -10 -13 -10 -30z"/>
<path d="M2871 2168 c1 -28 2 -30 7 -10 4 13 12 23 17 23 6 0 13 -10 17 -23 5
-20 6 -18 7 10 1 28 -2 32 -24 32 -22 0 -25 -4 -24 -32z"/>
<path d="M2943 2184 c-3 -8 -1 -20 5 -26 9 -9 8 -15 0 -25 -16 -19 4 -37 31
-28 22 7 30 35 10 35 -6 0 -8 7 -5 15 3 8 9 22 12 30 5 11 -1 15 -20 15 -15 0
-29 -7 -33 -16z m37 -4 c0 -5 -7 -10 -15 -10 -8 0 -15 5 -15 10 0 6 7 10 15
10 8 0 15 -4 15 -10z m0 -60 c0 -5 -4 -10 -10 -10 -5 0 -10 5 -10 10 0 6 5 10
10 10 6 0 10 -4 10 -10z"/>
<path d="M3173 2173 c0 -21 5 -28 21 -29 17 -1 21 5 22 27 1 23 -2 27 -12 18
-10 -8 -14 -9 -14 0 0 6 -4 11 -8 11 -5 0 -9 -12 -9 -27z"/>
<path d="M3240 2149 l0 -52 25 27 c37 40 38 76 0 76 -23 0 -25 -3 -25 -51z
m40 21 c0 -11 -4 -20 -9 -20 -14 0 -23 18 -16 30 10 17 25 11 25 -10z"/>
<path d="M3317 2193 c-10 -10 -8 -51 2 -57 19 -12 41 7 41 35 0 21 -5 29 -18
29 -10 0 -22 -3 -25 -7z m33 -23 c0 -11 -7 -20 -15 -20 -8 0 -15 9 -15 20 0
11 7 20 15 20 8 0 15 -9 15 -20z"/>
<path d="M3380 2168 c0 -15 5 -28 11 -28 5 0 7 5 4 11 -4 5 0 18 9 27 14 16
14 18 -4 18 -15 0 -20 -7 -20 -28z"/>
<path d="M3655 2179 c-9 -28 19 -59 37 -41 9 9 8 12 -5 12 -10 0 -17 8 -17 20
0 11 5 20 11 20 5 0 7 -4 4 -10 -3 -5 1 -10 10 -10 24 0 13 24 -12 28 -15 2
-23 -4 -28 -19z"/>
<path d="M3720 2170 c0 -16 5 -30 10 -30 6 0 10 11 10 25 0 14 5 25 10 25 6 0
10 -11 10 -25 0 -14 5 -25 10 -25 6 0 10 14 10 30 0 27 -3 30 -30 30 -27 0
-30 -3 -30 -30z"/>
<path d="M3802 2188 c-16 -16 -15 -33 3 -48 12 -10 19 -10 27 -2 9 9 8 12 -5
12 -10 0 -17 8 -17 20 0 11 5 20 11 20 5 0 7 -4 4 -10 -3 -5 1 -10 10 -10 20
0 15 24 -6 28 -8 1 -20 -3 -27 -10z"/>
<path d="M3860 2169 c0 -16 5 -29 10 -29 6 0 10 9 10 20 0 11 5 20 10 20 19 0
10 16 -10 17 -16 1 -20 -4 -20 -28z"/>
<path d="M3921 2193 c22 -5 32 -43 12 -43 -8 0 -11 5 -8 10 3 6 1 10 -4 10
-12 0 -15 -23 -5 -32 3 -3 14 -4 25 -1 13 4 19 14 19 34 0 25 -4 29 -27 28
-16 -1 -21 -3 -12 -6z"/>
<path d="M4110 2168 c0 -15 5 -28 11 -28 5 0 7 5 4 11 -4 5 0 18 9 27 14 16
14 18 -4 18 -15 0 -20 -7 -20 -28z"/>
<path d="M4173 2193 c18 -5 24 -43 6 -43 -5 0 -7 5 -4 10 3 6 1 10 -4 10 -6 0
-11 -7 -11 -15 0 -9 9 -15 25 -15 21 0 25 5 25 30 0 26 -3 30 -27 29 -17 -1
-21 -3 -10 -6z"/>
<path d="M4307 2193 c-11 -10 -8 -51 3 -58 5 -3 18 -1 27 4 16 9 16 10 -4 11
-16 0 -23 6 -23 20 0 11 5 20 10 20 6 0 10 -4 10 -10 0 -5 5 -10 10 -10 6 0
10 7 10 15 0 15 -31 21 -43 8z"/>
<path d="M2105 2170 c-3 -6 1 -7 9 -4 18 7 21 14 7 14 -6 0 -13 -4 -16 -10z"/>
<path d="M3035 2170 c-3 -5 -2 -10 4 -10 5 0 13 5 16 10 3 6 2 10 -4 10 -5 0
-13 -4 -16 -10z"/>
<path d="M3505 2170 c-3 -6 1 -7 9 -4 18 7 21 14 7 14 -6 0 -13 -4 -16 -10z"/>
</g>
</svg>
