<?xml version="1.0" standalone="no"?>
<!DOCTYPE svg PUBLIC "-//W3C//DTD SVG 20010904//EN"
 "http://www.w3.org/TR/2001/REC-SVG-20010904/DTD/svg10.dtd">
<svg version="1.0" xmlns="http://www.w3.org/2000/svg"
 width="500.000000pt" height="500.000000pt" viewBox="0 0 500.000000 500.000000"
 preserveAspectRatio="xMidYMid meet">

<g transform="translate(0.000000,500.000000) scale(0.100000,-0.100000)"
fill="#000000" stroke="none">
<path d="M1940 3620 c-9 -6 -10 -10 -3 -10 6 0 15 5 18 10 8 12 4 12 -15 0z"/>
<path d="M1855 3573 c-163 -114 -282 -248 -365 -413 -82 -163 -109 -269 -117
-455 l-6 -140 169 170 c260 262 390 369 624 513 19 12 30 22 24 22 -5 0 -19
-7 -30 -15 -29 -22 -34 -18 -34 26 0 36 -2 41 -20 36 -11 -3 -20 -4 -20 -4 0
1 -14 35 -30 76 -17 41 -31 84 -32 97 -2 20 -6 22 -32 17 -25 -5 -28 -4 -23
11 4 10 2 26 -4 37 -10 20 -46 60 -51 58 -2 -1 -25 -17 -53 -36z"/>
<path d="M2390 3317 c0 -4 24 -13 53 -22 71 -21 111 -47 146 -95 111 -153 18
-407 -185 -508 -60 -29 -114 -51 -284 -117 -116 -45 -190 -78 -190 -85 1 -16
20 -32 34 -27 9 4 16 2 16 -3 0 -6 -8 -10 -17 -11 -14 0 -13 -2 5 -9 12 -5 25
-16 28 -25 4 -8 15 -15 25 -15 10 0 19 -4 19 -10 0 -5 -4 -10 -10 -10 -5 0 -1
-9 10 -20 11 -11 24 -20 30 -20 18 0 78 -60 84 -85 4 -14 10 -24 14 -24 21 4
24 -3 6 -17 -17 -14 -13 -15 56 -9 334 28 652 216 828 490 62 96 62 131 -1
258 -80 162 -228 287 -399 338 -68 20 -268 39 -268 26z"/>
<path d="M3277 2779 c-55 -13 -96 -37 -138 -79 -65 -65 -99 -159 -99 -273 -1
-220 -95 -467 -239 -627 -22 -25 -41 -49 -41 -54 0 -5 -7 -14 -17 -21 -10 -8
-13 -17 -7 -26 4 -8 10 -23 11 -34 2 -11 9 -22 15 -24 6 -2 0 -10 -13 -17 -22
-13 -21 -13 21 -8 185 21 439 193 592 401 54 73 136 231 168 323 28 78 38 224
21 288 -14 50 -72 119 -116 138 -44 18 -115 24 -158 13z"/>
<path d="M1886 2471 c-3 -5 2 -15 11 -22 12 -10 14 -10 9 -1 -4 7 -2 12 4 12
6 0 8 5 5 10 -8 12 -22 13 -29 1z"/>
</g>
</svg>
