<?xml version="1.0" standalone="no"?>
<!DOCTYPE svg PUBLIC "-//W3C//DTD SVG 20010904//EN"
 "http://www.w3.org/TR/2001/REC-SVG-20010904/DTD/svg10.dtd">
<svg version="1.0" xmlns="http://www.w3.org/2000/svg"
 width="500.000000pt" height="500.000000pt" viewBox="0 0 500.000000 500.000000"
 preserveAspectRatio="xMidYMid meet">

<g transform="translate(0.000000,500.000000) scale(0.100000,-0.100000)"
fill="#000000" stroke="none">
<path d="M1777 2616 c-51 -19 -73 -40 -93 -92 -33 -86 -9 -177 59 -228 32 -24
137 -34 180 -17 27 10 27 12 27 96 l0 85 -35 0 -35 0 0 -59 c0 -65 -9 -75 -60
-64 -47 9 -70 46 -70 110 0 47 4 59 29 84 31 31 76 38 124 20 21 -8 26 -6 31
12 11 40 6 45 -44 56 -63 13 -66 13 -113 -3z"/>
<path d="M2030 2445 l0 -176 113 3 112 3 3 33 3 32 -80 0 -81 0 0 40 0 40 65
0 65 0 0 34 0 34 -52 0 c-29 0 -59 1 -65 1 -21 1 -16 61 5 62 9 1 33 2 52 3
82 5 80 4 80 36 l0 30 -110 0 -110 0 0 -175z"/>
<path d="M2322 2448 l3 -173 35 0 35 0 5 110 5 110 56 -85 c31 -47 64 -97 72
-112 13 -20 24 -26 44 -25 l28 2 3 173 2 172 -39 0 -40 0 -3 -97 -3 -96 -38
57 c-62 93 -105 136 -138 136 l-29 0 2 -172z"/>
<path d="M2764 2564 c-46 -104 -105 -274 -99 -284 7 -12 45 -13 61 -2 6 4 15
21 21 37 9 29 12 30 75 33 l65 3 16 -41 c15 -38 19 -41 49 -38 28 2 33 7 31
26 -3 25 -59 178 -98 265 -23 54 -27 57 -60 57 -34 0 -37 -3 -61 -56z m100
-132 c7 -21 4 -22 -38 -22 -51 0 -52 2 -32 51 7 19 16 43 21 54 6 17 9 15 25
-20 9 -22 20 -50 24 -63z"/>
<path d="M3030 2482 c0 -151 6 -169 60 -197 16 -8 52 -15 80 -15 43 0 55 5 88
34 l37 34 3 142 4 141 -39 -3 -38 -3 -5 -127 c-3 -80 -9 -132 -17 -139 -16
-16 -70 -16 -86 0 -8 8 -13 57 -15 141 l-4 130 -34 0 -34 0 0 -138z"/>
<path d="M3497 2613 c-4 -3 -7 -80 -7 -169 0 -191 -11 -177 135 -172 l90 3 3
33 3 32 -75 0 -76 0 0 140 0 140 -33 0 c-19 0 -37 -3 -40 -7z"/>
<path d="M3857 2563 c-32 -73 -95 -242 -99 -268 -2 -16 3 -21 30 -23 30 -3 34
0 49 37 l16 41 63 0 c62 0 62 0 81 -37 14 -31 24 -39 51 -41 22 -2 32 1 32 11
0 20 -34 116 -83 234 l-42 103 -36 0 c-35 0 -38 -3 -62 -57z m87 -92 c9 -27
16 -52 16 -55 0 -3 -21 -6 -46 -6 -40 0 -45 2 -39 18 4 9 14 36 22 60 8 23 18
40 23 37 4 -3 15 -27 24 -54z"/>
<path d="M4142 2608 c-8 -10 -11 -63 -10 -167 2 -134 4 -153 19 -162 27 -14
145 -11 183 5 68 28 87 100 41 154 -22 26 -23 31 -9 42 26 22 15 89 -19 114
-36 27 -186 37 -205 14z m156 -60 c32 -32 1 -68 -57 -68 -29 0 -31 2 -31 40 0
40 0 40 38 40 21 0 43 -5 50 -12z m20 -166 c3 -27 -1 -34 -23 -42 -14 -6 -40
-10 -56 -10 -28 0 -29 2 -29 46 l0 45 53 -3 c51 -3 52 -4 55 -36z"/>
<path d="M1980 2101 c0 -22 5 -43 10 -46 6 -3 10 3 10 14 0 13 7 21 18 21 16
1 16 1 0 11 -10 5 -18 14 -18 19 0 5 8 11 18 13 10 3 6 5 -10 6 -26 1 -28 -2
-28 -38z"/>
<path d="M2061 2099 c-7 -23 -10 -44 -7 -47 3 -3 6 0 6 6 0 16 43 15 59 0 8
-7 12 -8 10 -3 -27 70 -35 85 -44 85 -7 0 -17 -18 -24 -41z m39 -5 c0 -14 -12
-19 -23 -8 -9 9 4 35 14 28 5 -3 9 -12 9 -20z"/>
<path d="M2144 2128 c-4 -6 5 -21 21 -34 l29 -23 -24 -10 c-25 -10 -25 -10 -2
-10 32 -1 41 29 14 47 -27 17 -28 29 -4 35 13 4 12 5 -5 6 -12 0 -25 -4 -29
-11z"/>
<path d="M2227 2132 c6 -4 13 -25 16 -47 l4 -40 1 42 c1 23 8 44 15 46 6 3 -1
6 -18 6 -17 0 -25 -3 -18 -7z"/>
<path d="M2404 2104 c-8 -20 -13 -41 -10 -47 3 -9 5 -8 5 1 1 6 11 12 24 12
13 0 29 -6 36 -12 8 -7 12 -8 10 -3 -27 69 -34 85 -42 85 -4 0 -15 -16 -23
-36z m36 -10 c0 -14 -12 -19 -23 -8 -9 9 4 35 14 28 5 -3 9 -12 9 -20z"/>
<path d="M2492 2128 c-28 -28 -7 -78 33 -78 18 0 17 2 -5 13 -16 8 -25 21 -25
37 0 17 7 26 25 31 21 6 22 7 5 8 -12 1 -26 -4 -33 -11z"/>
<path d="M2570 2125 c-19 -23 -4 -64 26 -71 14 -4 28 -4 31 0 4 3 -3 6 -15 6
-24 0 -45 31 -36 54 3 8 18 17 32 19 l27 4 -26 2 c-15 0 -32 -6 -39 -14z"/>
<path d="M2651 2103 c-1 -34 3 -43 19 -48 31 -10 50 12 49 54 l-2 36 -6 -40
c-5 -31 -10 -40 -26 -40 -16 0 -21 9 -26 40 l-6 40 -2 -42z"/>
<path d="M2740 2094 c0 -27 4 -43 10 -39 6 3 10 13 10 21 0 20 9 18 31 -8 10
-13 18 -18 19 -11 0 6 -5 15 -10 18 -8 5 -7 11 1 21 18 22 3 44 -31 44 -29 0
-30 -1 -30 -46z m53 21 c1 -5 -6 -11 -15 -13 -11 -2 -18 3 -18 13 0 17 30 18
33 0z"/>
<path d="M2844 2104 c-8 -20 -13 -41 -10 -47 3 -9 5 -8 5 1 1 6 11 12 24 12
13 0 29 -6 36 -12 8 -7 12 -8 10 -3 -27 69 -34 85 -42 85 -4 0 -15 -16 -23
-36z m36 -10 c0 -14 -12 -19 -23 -8 -9 9 4 35 14 28 5 -3 9 -12 9 -20z"/>
<path d="M2923 2133 c12 -3 17 -16 19 -46 l1 -42 4 40 c3 22 10 43 16 47 7 4
-4 7 -23 7 -19 -1 -27 -3 -17 -6z"/>
<path d="M2990 2095 c0 -44 0 -45 33 -44 23 1 26 3 10 6 -27 5 -31 30 -5 36
16 4 16 5 0 6 -10 0 -18 7 -18 15 0 8 8 17 18 19 10 3 6 5 -10 6 -27 1 -28 -1
-28 -44z"/>
<path d="M3171 2093 c1 -26 3 -40 6 -30 3 10 16 22 30 28 33 12 27 43 -10 47
-26 3 -27 2 -26 -45z m49 22 c0 -8 -9 -15 -20 -15 -11 0 -20 7 -20 15 0 8 9
15 20 15 11 0 20 -7 20 -15z"/>
<path d="M3251 2093 c0 -39 2 -44 9 -25 5 12 12 22 16 22 3 0 15 -10 25 -22
18 -21 19 -21 10 -2 -5 11 -6 26 -1 34 14 22 0 40 -31 40 -28 0 -29 -2 -28
-47z m54 22 c0 -5 -10 -11 -22 -13 -16 -2 -23 2 -23 13 0 11 7 15 23 13 12 -2
22 -7 22 -13z"/>
<path d="M3340 2120 c-15 -29 -3 -59 26 -66 30 -8 54 11 54 40 0 46 -59 64
-80 26z m67 -6 c8 -20 -8 -48 -30 -52 -19 -4 -39 30 -31 52 8 21 53 21 61 0z"/>
<path d="M3441 2093 c1 -27 4 -38 6 -25 3 14 12 22 26 23 l22 0 -22 9 c-13 5
-23 14 -23 19 0 5 10 12 23 14 19 4 18 4 -5 6 -27 1 -28 -1 -27 -46z"/>
<path d="M3514 2126 c-3 -8 -4 -27 -2 -43 2 -23 8 -28 33 -30 20 -1 23 0 8 4
-27 5 -30 30 -5 36 16 4 16 5 0 6 -26 2 -22 29 5 34 19 4 18 4 -6 6 -16 0 -30
-5 -33 -13z"/>
<path d="M3594 2128 c-4 -6 5 -21 21 -34 l29 -23 -24 -10 c-16 -6 -19 -10 -9
-10 9 -1 23 6 30 15 11 14 9 19 -16 37 l-29 21 25 7 c23 7 23 7 2 8 -12 1 -25
-4 -29 -11z"/>
<path d="M3670 2121 c0 -11 9 -23 20 -26 27 -9 25 -33 -2 -38 l-23 -4 23 -2
c32 -2 41 28 14 50 -27 21 -27 26 -4 32 13 4 11 5 -5 6 -16 1 -23 -5 -23 -18z"/>
<path d="M3743 2095 c0 -27 2 -38 4 -22 2 15 2 37 0 50 -2 12 -4 0 -4 -28z"/>
<path d="M3784 2126 c-9 -24 0 -58 19 -70 27 -17 52 4 52 45 0 31 -3 34 -33
37 -21 2 -34 -2 -38 -12z m61 -31 c0 -25 -4 -30 -25 -30 -16 0 -26 6 -28 18
-6 30 6 49 30 45 18 -2 23 -9 23 -33z"/>
<path d="M3880 2100 c0 -22 5 -40 10 -40 6 0 10 12 10 28 l1 27 29 -35 30 -34
-1 49 c-1 29 -4 39 -6 23 -5 -34 -10 -35 -35 -3 -28 35 -38 31 -38 -15z"/>
<path d="M3994 2104 c-8 -20 -13 -41 -10 -47 3 -9 5 -8 5 1 1 6 11 12 24 12
13 0 29 -6 36 -12 8 -7 12 -8 10 -3 -27 69 -34 85 -42 85 -4 0 -15 -16 -23
-36z m36 -10 c0 -14 -12 -19 -23 -8 -9 9 4 35 14 28 5 -3 9 -12 9 -20z"/>
<path d="M4070 2095 c0 -44 0 -45 33 -44 23 1 26 3 10 6 -19 4 -23 11 -23 44
0 21 -4 39 -10 39 -5 0 -10 -20 -10 -45z"/>
<path d="M1410 2026 c0 -9 40 -13 46 -5 3 5 -6 9 -20 9 -14 0 -26 -2 -26 -4z"/>
</g>
</svg>
