<?xml version="1.0" encoding="UTF-8"?>
<svg version="1.1" xmlns="http://www.w3.org/2000/svg" width="500" height="500">
<path d="M0 0 C1.12814621 -0.01522705 2.25629242 -0.0304541 3.41862488 -0.04614258 C5.80316326 -0.06773134 8.18789065 -0.07345593 10.57250977 -0.06445312 C14.20977944 -0.06251105 17.83856252 -0.14566088 21.47460938 -0.234375 C23.79555538 -0.2447924 26.11653062 -0.25016533 28.4375 -0.25 C29.51796097 -0.28279053 30.59842194 -0.31558105 31.71162415 -0.34936523 C36.42133035 -0.26379609 39.2777289 -0.09002955 42.86019897 3.13832092 C44.89184131 5.65792897 46.6839242 8.20706116 48.41796875 10.9375 C49.16046875 11.92621094 49.90296875 12.91492188 50.66796875 13.93359375 C51.24546875 14.73925781 51.82296875 15.54492188 52.41796875 16.375 C53.07410156 17.28636719 53.73023438 18.19773438 54.40625 19.13671875 C55.07011719 20.06097656 55.73398438 20.98523438 56.41796875 21.9375 C57.81271749 23.85495606 59.20853736 25.77163349 60.60546875 27.6875 C61.25902344 28.58855469 61.91257812 29.48960937 62.5859375 30.41796875 C63.72758231 31.98803463 64.87502692 33.55391986 66.03125 35.11328125 C69.41796875 39.72112676 69.41796875 39.72112676 69.41796875 41.9375 C70.07796875 41.9375 70.73796875 41.9375 71.41796875 41.9375 C74.41796875 46.32211538 74.41796875 46.32211538 74.41796875 48.9375 C75.07796875 48.9375 75.73796875 48.9375 76.41796875 48.9375 C80.41796875 54.34926471 80.41796875 54.34926471 80.41796875 56.9375 C81.07796875 56.9375 81.73796875 56.9375 82.41796875 56.9375 C82.41796875 58.2575 82.41796875 59.5775 82.41796875 60.9375 C81.75796875 60.9375 81.09796875 60.9375 80.41796875 60.9375 C80.12921875 61.700625 79.84046875 62.46375 79.54296875 63.25 C78.41796875 65.9375 78.41796875 65.9375 76.41796875 68.9375 C75.75796875 68.9375 75.09796875 68.9375 74.41796875 68.9375 C73.95390625 70.113125 73.95390625 70.113125 73.48046875 71.3125 C72.41796875 73.9375 72.41796875 73.9375 71.41796875 75.9375 C70.75796875 75.9375 70.09796875 75.9375 69.41796875 75.9375 C69.16917969 76.65164063 68.92039062 77.36578125 68.6640625 78.1015625 C67.28140197 81.24830716 65.58460764 83.59576371 63.48046875 86.3125 C62.67996094 87.35792969 61.87945312 88.40335937 61.0546875 89.48046875 C60.62720215 90.03782715 60.1997168 90.59518555 59.75927734 91.16943359 C56.9458107 94.87804761 54.22362039 98.65480821 51.48852539 102.42138672 C50.63933287 103.58529034 49.77913329 104.74126121 48.90692139 105.88801575 C47.37368274 107.93748207 47.37368274 107.93748207 46.03239441 110.23176575 C43.72844412 113.75936372 41.93886391 116.44587067 37.82574463 117.7754364 C34.70728685 118.09465265 31.7043379 118.1334101 28.5703125 118.0625 C26.87522301 118.06830078 26.87522301 118.06830078 25.14588928 118.07421875 C22.76469766 118.07158716 20.38343921 118.04672002 18.00268555 118.00097656 C14.36196783 117.93761311 10.72887926 117.95972917 7.08789062 117.9921875 C4.76949679 117.97905252 2.45112454 117.96098987 0.1328125 117.9375 C-0.95169693 117.94539551 -2.03620636 117.95329102 -3.15357971 117.96142578 C-10.50591977 117.75544752 -10.50591977 117.75544752 -13.53707886 115.45147705 C-15.07280302 113.68843972 -16.34299569 111.91733405 -17.58203125 109.9375 C-18.12730469 109.22948242 -18.67257813 108.52146484 -19.234375 107.79199219 C-19.87052734 106.89722168 -19.87052734 106.89722168 -20.51953125 105.984375 C-21.26251465 104.94627686 -21.26251465 104.94627686 -22.02050781 103.88720703 C-22.79346191 102.79835205 -22.79346191 102.79835205 -23.58203125 101.6875 C-24.7218604 100.09578396 -25.86251405 98.50465808 -27.00390625 96.9140625 C-27.58978516 96.09711914 -28.17566406 95.28017578 -28.77929688 94.43847656 C-31.76814972 90.29196944 -34.79896274 86.17671533 -37.83203125 82.0625 C-38.41476807 81.2679541 -38.99750488 80.4734082 -39.59790039 79.65478516 C-42.18044212 76.14282125 -44.78015385 72.65709383 -47.5 69.25 C-48.14630371 68.42991455 -48.14630371 68.42991455 -48.80566406 67.59326172 C-49.92618921 66.1802101 -51.06391364 64.78084289 -52.203125 63.3828125 C-53.58203125 60.9375 -53.58203125 60.9375 -53.3503418 58.55297852 C-52.51614254 55.71320202 -51.4532438 53.9933658 -49.66796875 51.64453125 C-49.07459717 50.85361084 -48.48122559 50.06269043 -47.86987305 49.24780273 C-47.23863525 48.42352783 -46.60739746 47.59925293 -45.95703125 46.75 C-44.67889072 45.05007796 -43.40153892 43.34956258 -42.125 41.6484375 C-41.51188965 40.83600586 -40.8987793 40.02357422 -40.26708984 39.18652344 C-34.99290287 32.33418852 -34.99290287 32.33418852 -30.58203125 24.9375 C-29.92203125 24.9375 -29.26203125 24.9375 -28.58203125 24.9375 C-28.35128906 24.24527344 -28.12054688 23.55304688 -27.8828125 22.83984375 C-26.30855491 19.32731106 -24.14602572 16.49249303 -21.76953125 13.5 C-21.34349609 12.95279297 -20.91746094 12.40558594 -20.47851562 11.84179688 C-19.19151771 10.19654235 -17.89669244 8.56079198 -16.58203125 6.9375 C-15.94217285 5.89972412 -15.30231445 4.86194824 -14.64306641 3.79272461 C-10.83889582 -0.71686089 -5.4907172 0.00203568 0 0 Z M13.41796875 37.9375 C12.35938648 39.19841517 11.34553067 40.49709859 10.35546875 41.8125 C9.80761719 42.53179687 9.25976562 43.25109375 8.6953125 43.9921875 C7.23500995 45.82826827 7.23500995 45.82826827 7.41796875 47.9375 C6.75796875 47.9375 6.09796875 47.9375 5.41796875 47.9375 C3.82065173 49.81160321 3.82065173 49.81160321 2.29296875 52.1875 C1.75414062 52.97640625 1.2153125 53.7653125 0.66015625 54.578125 C-0.89260937 57.08300338 -0.89260937 57.08300338 -0.58203125 60.9375 C0.63429469 63.35684882 0.63429469 63.35684882 2.29296875 65.6875 C2.82664062 66.48671875 3.3603125 67.2859375 3.91015625 68.109375 C4.40773438 68.71265625 4.9053125 69.3159375 5.41796875 69.9375 C6.07796875 69.9375 6.73796875 69.9375 7.41796875 69.9375 C7.64484375 70.659375 7.87171875 71.38125 8.10546875 72.125 C9.66627888 75.46959313 11.72109745 77.45353959 14.41796875 79.9375 C17.39259155 77.10765973 19.81794533 74.17684977 22.16796875 70.8125 C22.7815625 69.94367188 23.39515625 69.07484375 24.02734375 68.1796875 C25.59365808 66.09396174 25.59365808 66.09396174 25.41796875 63.9375 C26.07796875 63.9375 26.73796875 63.9375 27.41796875 63.9375 C29.63301729 61.23168173 29.63301729 61.23168173 29.37890625 58.7265625 C27.99207998 54.70138383 25.60655795 51.67803249 23.04296875 48.3125 C22.54796875 47.64476562 22.05296875 46.97703125 21.54296875 46.2890625 C19.32013913 43.31736515 17.15465213 40.46168121 14.41796875 37.9375 C14.08796875 37.9375 13.75796875 37.9375 13.41796875 37.9375 Z " fill="#35CC2E" transform="translate(134.58203125,191.0625)"/>
<path d="M0 0 C0.33 0 0.66 0 1 0 C1.042721 1.66611905 1.04063832 3.33382885 1 5 C0.67 5.33 0.34 5.66 0 6 C23.265 6.495 23.265 6.495 47 7 C47.495 7.99 47.495 7.99 48 9 C48.99 9.33 49.98 9.66 51 10 C55 15.37142857 55 15.37142857 55 18 C55.66 18 56.32 18 57 18 C59.71391278 22.77357872 61.56561146 26.34388537 61 32 C61.33 31.34 61.66 30.68 62 30 C64.99324263 31.0975223 65.84610901 31.67682892 67.25 34.625 C67.4975 35.40875 67.745 36.1925 68 37 C68.66 37 69.32 37 70 37 C71.5078125 38.8984375 71.5078125 38.8984375 73.125 41.375 C73.66382813 42.18710937 74.20265625 42.99921875 74.7578125 43.8359375 C76 46 76 46 76 48 C76.66 48 77.32 48 78 48 C79.61628827 50.05224125 81.10020727 52.09236744 82.5625 54.25 C82.97435547 54.83652344 83.38621094 55.42304688 83.81054688 56.02734375 C85.84867675 58.99614176 87.26644985 61.48545003 88 65 C80.98948142 65.17774751 73.97954528 65.30018159 66.96728516 65.38452148 C64.58294969 65.41968533 62.19876474 65.46742616 59.81494141 65.52807617 C56.38406231 65.61316884 52.95518063 65.65273044 49.5234375 65.68359375 C47.92935562 65.73778725 47.92935562 65.73778725 46.30307007 65.79307556 C39.05664475 65.79690463 39.05664475 65.79690463 36.05621338 63.5340271 C34.51614508 61.76495795 33.24280631 59.98627354 32 58 C31.45472656 57.29198242 30.90945312 56.58396484 30.34765625 55.85449219 C29.71150391 54.95972168 29.71150391 54.95972168 29.0625 54.046875 C28.56717773 53.35480957 28.07185547 52.66274414 27.56152344 51.94970703 C27.0462207 51.22380371 26.53091797 50.49790039 26 49.75 C24.86017085 48.15828396 23.7195172 46.56715808 22.578125 44.9765625 C21.99224609 44.15961914 21.40636719 43.34267578 20.80273438 42.50097656 C17.81388153 38.35446944 14.78306851 34.23921533 11.75 30.125 C11.16726318 29.3304541 10.58452637 28.5359082 9.98413086 27.71728516 C7.40158913 24.20532125 4.8018774 20.71959383 2.08203125 17.3125 C1.65116211 16.76577637 1.22029297 16.21905273 0.77636719 15.65576172 C-0.34415796 14.2427101 -1.48188239 12.84334289 -2.62109375 11.4453125 C-4 9 -4 9 -3.81640625 6.32421875 C-2.91584505 3.76042013 -1.80102533 2.0261535 0 0 Z " fill="#139248" transform="translate(85,243)"/>
<path d="M0 0 C1.7206794 0.01273453 1.7206794 0.01273453 3.47612 0.02572632 C7.13478067 0.05927444 10.79122586 0.1345642 14.44921875 0.2109375 C16.93160877 0.24103492 19.41403337 0.2684111 21.89648438 0.29296875 C27.97731656 0.35907067 34.05685938 0.45943611 40.13671875 0.5859375 C39.47671875 0.9159375 38.81671875 1.2459375 38.13671875 1.5859375 C37.46230744 3.2494854 36.79668665 4.91660692 36.13671875 6.5859375 C34.76171875 8.5859375 34.76171875 8.5859375 33.13671875 10.5859375 C30.02836721 14.46974782 26.97232718 18.38574249 23.94921875 22.3359375 C21.62858777 25.36535035 19.30981035 28.38029877 16.8515625 31.30078125 C14.84632314 33.97291115 14.76377949 35.32271895 15.13671875 38.5859375 C14.47671875 38.5859375 13.81671875 38.5859375 13.13671875 38.5859375 C11.62026931 40.60936909 11.62026931 40.60936909 10.13671875 43.0859375 C8.57421875 45.6171875 8.57421875 45.6171875 7.13671875 47.5859375 C6.47671875 47.5859375 5.81671875 47.5859375 5.13671875 47.5859375 C4.88921875 48.3078125 4.64171875 49.0296875 4.38671875 49.7734375 C3.13671875 52.5859375 3.13671875 52.5859375 1.07421875 55.1484375 C-0.75313686 57.44736875 -1.44124085 58.73716477 -1.86328125 61.5859375 C-2.19328125 60.5959375 -2.52328125 59.6059375 -2.86328125 58.5859375 C-18.70328125 58.5859375 -34.54328125 58.5859375 -50.86328125 58.5859375 C-47.48934438 47.33948128 -47.48934438 47.33948128 -44.61328125 43.62890625 C-44.00484375 42.82646484 -43.39640625 42.02402344 -42.76953125 41.19726562 C-42.14046875 40.39740234 -41.51140625 39.59753906 -40.86328125 38.7734375 C-39.61149667 37.14329591 -38.36143996 35.51182575 -37.11328125 33.87890625 C-36.53707031 33.13302246 -35.96085937 32.38713867 -35.3671875 31.61865234 C-33.72355495 29.47081477 -33.72355495 29.47081477 -32.05078125 26.51171875 C-31.65890625 25.87621094 -31.26703125 25.24070313 -30.86328125 24.5859375 C-30.20328125 24.5859375 -29.54328125 24.5859375 -28.86328125 24.5859375 C-28.63253906 23.89371094 -28.40179688 23.20148438 -28.1640625 22.48828125 C-26.58980491 18.97574856 -24.42727572 16.14093053 -22.05078125 13.1484375 C-21.62474609 12.60123047 -21.19871094 12.05402344 -20.75976562 11.49023438 C-19.47276771 9.84497985 -18.17794244 8.20922948 -16.86328125 6.5859375 C-15.91219482 5.01839722 -15.91219482 5.01839722 -14.94189453 3.41918945 C-11.0814919 -1.15878689 -5.52498769 -0.15391472 0 0 Z " fill="#35CB2E" transform="translate(134.86328125,191.4140625)"/>
<path d="M0 0 C4.01836705 0.69916934 5.33873701 2.35456632 7.70458984 5.66015625 C8.1527002 6.30855469 8.60081055 6.95695313 9.0625 7.625 C10.03483385 8.9924168 11.00749994 10.35959742 11.98046875 11.7265625 C12.47724121 12.43200195 12.97401367 13.13744141 13.48583984 13.86425781 C15.90436016 17.27561153 18.39195506 20.63548905 20.875 24 C22.16445466 25.75282658 23.45178237 27.50705819 24.73339844 29.265625 C25.62659895 30.48869679 26.52631542 31.70702303 27.43066406 32.921875 C31 37.77797786 31 37.77797786 31 40 C31.66 40 32.32 40 33 40 C37 46.5 37 46.5 37 51 C37.66 51 38.32 51 39 51 C39.28875 51.61875 39.5775 52.2375 39.875 52.875 C40.93720042 55.13325765 40.93720042 55.13325765 43 57 C35.98929215 57.12696594 28.97888168 57.21442112 21.96728516 57.2746582 C19.58305786 57.29977409 17.19890735 57.33387324 14.81494141 57.37719727 C11.38424721 57.43797447 7.95457256 57.46623993 4.5234375 57.48828125 C3.46071625 57.51408768 2.397995 57.5398941 1.30307007 57.56648254 C-6.97489601 57.56960693 -6.97489601 57.56960693 -10.54907227 54.6940918 C-14.26887149 50.60523987 -14.26887149 50.60523987 -15.73828125 48.40625 C-16.37926758 47.44912109 -16.37926758 47.44912109 -17.03320312 46.47265625 C-17.45537109 45.82167969 -17.87753906 45.17070312 -18.3125 44.5 C-18.75400391 43.84902344 -19.19550781 43.19804687 -19.65039062 42.52734375 C-24.0260867 35.89344005 -24.0260867 35.89344005 -24 32 C-22.55859375 29.60546875 -22.55859375 29.60546875 -20.4375 27.1875 C-19.69113281 26.30964844 -18.94476563 25.43179688 -18.17578125 24.52734375 C-17.45777344 23.69332031 -16.73976562 22.85929687 -16 22 C-10.39946197 14.87335135 -5.24930963 7.38638034 0 0 Z " fill="#15924A" transform="translate(173,193)"/>
<path d="M0 0 C3.24952168 2.85564026 4.68497648 5.57206558 5.9375 9.6875 C6.14103541 14.77588529 4.2987653 18.38892177 1 22.1875 C-2.67902796 25.27313635 -5.72472635 25.14201827 -10.390625 25.1015625 C-14.06405571 24.68463938 -16.19049675 23.21612785 -18.9375 20.8125 C-22.04777212 16.14709182 -21.54286455 11.27554595 -20.9375 5.8125 C-16.5711007 -1.98464161 -7.93465088 -3.20762482 0 0 Z M-12.625 5.4375 C-15.09513344 7.66666739 -15.09513344 7.66666739 -16.0625 10.6875 C-16.17314115 14.02425971 -16.17314115 14.02425971 -13.9375 17.25 C-11.14291731 20.17531104 -11.14291731 20.17531104 -7.375 19.9375 C-3.6761425 18.72696482 -2.01686953 18.10483509 0.0625 14.8125 C0.13994311 10.47568557 -0.24185878 8.54574345 -3.25 5.375 C-6.95447074 3.22123794 -8.95632909 3.21923387 -12.625 5.4375 Z " fill="#282828" transform="translate(275.9375,237.1875)"/>
<path d="M0 0 C9.8 0 9.8 0 15 3 C18.11061244 6.34989032 19.26581613 9.01273493 19.5 13.5 C19.29790029 17.93870838 17.91173051 20.58911569 15 24 C12 26 12 26 0 26 C0 17.42 0 8.84 0 0 Z M6 5 C6 10.28 6 15.56 6 21 C10.01121121 20.23543548 10.01121121 20.23543548 13 18 C13.36362818 15.79274927 13.36362818 15.79274927 13.1875 13.375 C13.16042969 12.55773437 13.13335937 11.74046875 13.10546875 10.8984375 C13.07066406 10.27195312 13.03585937 9.64546875 13 9 C12.34 9 11.68 9 11 9 C11 8.34 11 7.68 11 7 C8.525 6.01 8.525 6.01 6 5 Z " fill="#333333" transform="translate(300,273)"/>
<path d="M0 0 C0.66 0 1.32 0 2 0 C2 0.66 2 1.32 2 2 C2.66 2 3.32 2 4 2 C5.7265625 4.1875 5.7265625 4.1875 7.625 7 C8.25664062 7.928125 8.88828125 8.85625 9.5390625 9.8125 C10.26222656 10.8953125 10.26222656 10.8953125 11 12 C11.33 8.37 11.66 4.74 12 1 C13.65 1 15.3 1 17 1 C17 9.91 17 18.82 17 28 C13.13209997 26.06604999 12.12365764 25.2196994 9.75 21.875 C9.22921875 21.15054687 8.7084375 20.42609375 8.171875 19.6796875 C7.78515625 19.12539062 7.3984375 18.57109375 7 18 C6.855625 19.299375 6.71125 20.59875 6.5625 21.9375 C6.125 25.875 6.125 25.875 5 27 C3.35 27 1.7 27 0 27 C0 18.09 0 9.18 0 0 Z " fill="#383838" transform="translate(284,235)"/>
<path d="M0 0 C9.91666667 0 9.91666667 0 12 2 C12.29037223 4.03260563 12.57219642 6.06946596 12.72265625 8.1171875 C13.08688311 10.58982618 14.23272433 11.30636081 16 13 C17.03608129 16.99631356 17.42696428 19.1072565 15.625 22.875 C14 25 14 25 13 26 C8.71 26 4.42 26 0 26 C0 17.42 0 8.84 0 0 Z M5 5 C5 5.99 5 6.98 5 8 C5.66 8 6.32 8 7 8 C7 7.01 7 6.02 7 5 C6.34 5 5.68 5 5 5 Z M5 15 C5 16.98 5 18.96 5 21 C6.65 21 8.3 21 10 21 C10.38218767 19.34385343 10.71395102 17.67542976 11 16 C9.93354885 14.70366379 9.93354885 14.70366379 7.4375 14.9375 C6.633125 14.958125 5.82875 14.97875 5 15 Z " fill="#1D1D1D" transform="translate(259,273)"/>
<path d="M0 0 C1.98 0 3.96 0 6 0 C6 4.29 6 8.58 6 13 C8.31 13 10.62 13 13 13 C13 8.71 13 4.42 13 0 C14.65 0 16.3 0 18 0 C18 8.58 18 17.16 18 26 C16.35 26 14.7 26 13 26 C13 23.36 13 20.72 13 18 C10.69 18 8.38 18 6 18 C6 20.64 6 23.28 6 26 C4.02 26 2.04 26 0 26 C0 17.42 0 8.84 0 0 Z " fill="#292929" transform="translate(302,199)"/>
<path d="M0 0 C10.64989099 0 10.64989099 0 13.98046875 3.15625 C16.14142123 7.06417939 15.40764518 11.68952965 15 16 C14.34 16 13.68 16 13 16 C13.144375 16.721875 13.28875 17.44375 13.4375 18.1875 C13.95833333 20.79166667 14.47916667 23.39583333 15 26 C13.02 26 11.04 26 9 26 C8.34 24.68 7.68 23.36 7 22 C6.67 23.32 6.34 24.64 6 26 C4.02 26 2.04 26 0 26 C0 17.42 0 8.84 0 0 Z M6 5 C6 8.3 6 11.6 6 15 C6.99 14.67 7.98 14.34 9 14 C9.33 12.02 9.66 10.04 10 8 C8.68 7.01 7.36 6.02 6 5 Z " fill="#2A2A2A" transform="translate(340,236)"/>
<path d="M0 0 C1.98 0 3.96 0 6 0 C6.33 1.98 6.66 3.96 7 6 C7.53625 5.01 8.0725 4.02 8.625 3 C9.40875 2.01 10.1925 1.02 11 0 C14.25 -0.375 14.25 -0.375 17 0 C15.91560302 2.83611517 14.93129164 5.09390142 13.125 7.5625 C11.51952524 12.46811731 13.19535215 15.59969241 15.01953125 20.29296875 C16 23 16 23 16 26 C14.35 26 12.7 26 11 26 C9.68 23.36 8.36 20.72 7 18 C6.67 20.64 6.34 23.28 6 26 C4.02 26 2.04 26 0 26 C0 17.42 0 8.84 0 0 Z " fill="#2F2F2F" transform="translate(377,236)"/>
<path d="M0 0 C1.98 0 3.96 0 6 0 C6.33 1.98 6.66 3.96 7 6 C7.53625 5.01 8.0725 4.02 8.625 3 C9.40875 2.01 10.1925 1.02 11 0 C14.25 -0.375 14.25 -0.375 17 0 C15.96512423 2.78620399 15.06563754 4.91851892 13.1875 7.25 C11.54527992 11.05303597 12.70175131 12.97025979 14.16015625 16.70703125 C15.29491127 19.80517636 15.65200211 22.72881982 16 26 C14.35 26 12.7 26 11 26 C10.01 23.69 9.02 21.38 8 19 C7.67 19 7.34 19 7 19 C6.67 21.31 6.34 23.62 6 26 C4.02 26 2.04 26 0 26 C0 17.42 0 8.84 0 0 Z " fill="#303030" transform="translate(239,236)"/>
<path d="M0 0 C0 1.98 0 3.96 0 6 C-1.2375 5.938125 -2.475 5.87625 -3.75 5.8125 C-6.46546097 5.83175859 -7.96292885 5.98424476 -10.5 7.0625 C-12.77541639 10.0015795 -12.32194022 12.39426955 -12 16 C-11.67 16.99 -11.34 17.98 -11 19 C-7.99152582 20.22520264 -7.99152582 20.22520264 -5 21 C-5 19.35 -5 17.7 -5 16 C-5.66 16 -6.32 16 -7 16 C-7 14.02 -7 12.04 -7 10 C-4.69 10 -2.38 10 0 10 C0 14.95 0 19.9 0 25 C-7 27 -7 27 -9.328125 26.4609375 C-14.27435449 23.66611677 -17.14638638 21.56084087 -19 16 C-19.39441267 10.77403212 -18.90549127 7.40833158 -16 3 C-11.48516404 -0.74086408 -5.57603051 -1.85867684 0 0 Z " fill="#2C2C2C" transform="translate(258,199)"/>
<path d="M0 0 C1.65 0 3.3 0 5 0 C6.26582219 3.86723631 6.1118765 7.73151262 6.0625 11.75 C6.05798828 12.44738281 6.05347656 13.14476562 6.04882812 13.86328125 C6.0371002 15.57555803 6.01916653 17.28779033 6 19 C7.65 19.33 9.3 19.66 11 20 C11 13.4 11 6.8 11 0 C12.98 0 14.96 0 17 0 C17.0875127 3.22899426 17.14056146 6.45768116 17.1875 9.6875 C17.21263672 10.59951172 17.23777344 11.51152344 17.26367188 12.45117188 C17.35702951 21.00895523 17.35702951 21.00895523 14 25 C10.87057535 26.56471233 7.38917777 26.69701958 4 26 C1.7578125 24.68359375 1.7578125 24.68359375 0 22 C-0.49377911 18.2390619 -0.37487651 14.53471873 -0.25 10.75 C-0.23195313 9.71875 -0.21390625 8.6875 -0.1953125 7.625 C-0.14822712 5.08238936 -0.0824805 2.54166838 0 0 Z " fill="#272727" transform="translate(358,236)"/>
<path d="M0 0 C10 0 10 0 12.5625 1.4375 C14.62509064 5.11429201 15.22213977 8.79415361 15 13 C14.3591889 14.34595073 13.69508629 15.68125921 13 17 C13.25475806 19.52391899 13.25475806 19.52391899 14 22 C14.185625 22.763125 14.37125 23.52625 14.5625 24.3125 C14.706875 24.869375 14.85125 25.42625 15 26 C12.1875 26.3125 12.1875 26.3125 9 26 C7.125 23.5 7.125 23.5 6 21 C5.01 23.475 5.01 23.475 4 26 C2.68 26 1.36 26 0 26 C0 17.42 0 8.84 0 0 Z M5 5 C4.67 5.33 4.34 5.66 4 6 C4.08937803 7.52519276 4.24537146 9.04681929 4.4375 10.5625 C4.53933594 11.38878906 4.64117187 12.21507812 4.74609375 13.06640625 C4.82988281 13.70449219 4.91367187 14.34257812 5 15 C6.32 14.34 7.64 13.68 9 13 C9 11.02 9 9.04 9 7 C7.68 6.34 6.36 5.68 5 5 Z " fill="#212121" transform="translate(261,199)"/>
<path d="M0 0 C3 1 3 1 4.75390625 4.5 C5.37024109 5.99451566 5.9724041 7.49493105 6.5625 9 C7.02765015 10.15616821 7.02765015 10.15616821 7.50219727 11.33569336 C9.53509693 16.50040151 11.1014131 21.50863562 12 27 C10.35 27 8.7 27 7 27 C6.67 26.01 6.34 25.02 6 24 C3.03 24 0.06 24 -3 24 C-3.33 24.99 -3.66 25.98 -4 27 C-5.98 27 -7.96 27 -10 27 C-7.67563826 19.67631272 -5.08024677 12.55859387 -2.05078125 5.49609375 C-0.93824737 2.94245333 -0.93824737 2.94245333 0 0 Z M1 14 C0.67 15.32 0.34 16.64 0 18 C0.99 18 1.98 18 3 18 C2.34 16.68 1.68 15.36 1 14 Z " fill="#2B2B2B" transform="translate(332,198)"/>
<path d="M0 0 C3 1 3 1 4.16674805 3.28491211 C4.52808838 4.27241455 4.88942871 5.25991699 5.26171875 6.27734375 C5.85629883 7.88319336 5.85629883 7.88319336 6.46289062 9.52148438 C7.06907227 11.21241211 7.06907227 11.21241211 7.6875 12.9375 C8.10322266 14.06091797 8.51894531 15.18433594 8.94726562 16.34179688 C12 24.67791718 12 24.67791718 12 27 C10.02 27 8.04 27 6 27 C5.67 26.34 5.34 25.68 5 25 C2.36 25 -0.28 25 -3 25 C-3.33 25.66 -3.66 26.32 -4 27 C-5.98 27 -7.96 27 -10 27 C-7.58650007 17.64481454 -3.75743534 8.873724 0 0 Z M0 15 C0 15.99 0 16.98 0 18 C0.99 18 1.98 18 3 18 C2.67 17.01 2.34 16.02 2 15 C1.34 15 0.68 15 0 15 Z " fill="#292929" transform="translate(288,198)"/>
<path d="M0 0 C0.66 0 1.32 0 2 0 C12 23.8630137 12 23.8630137 12 28 C9.625 28.1875 9.625 28.1875 7 28 C6.34 27.01 5.68 26.02 5 25 C3.03638136 24.42251197 3.03638136 24.42251197 0.875 24.3125 C-0.40375 24.209375 -1.6825 24.10625 -3 24 C-3.33 25.32 -3.66 26.64 -4 28 C-5.65 28 -7.3 28 -9 28 C-10 26 -10 26 -9.41088867 24.03222656 C-9.0832251 23.24299805 -8.75556152 22.45376953 -8.41796875 21.640625 C-8.06283203 20.77179688 -7.70769531 19.90296875 -7.34179688 19.0078125 C-6.96087891 18.09773438 -6.57996094 17.18765625 -6.1875 16.25 C-5.45027092 14.46418158 -4.71455549 12.67773742 -3.98046875 10.890625 C-3.63419434 10.04822266 -3.28791992 9.20582031 -2.93115234 8.33789062 C-1.83804669 5.59337576 -0.88214251 2.8191221 0 0 Z M1 15 C0.67 16.32 0.34 17.64 0 19 C0.99 19 1.98 19 3 19 C2.34 17.68 1.68 16.36 1 15 Z " fill="#2D2D2D" transform="translate(286,272)"/>
<path d="M0 0 C1.32 0 2.64 0 4 0 C5.01323683 3.37116829 6.00818641 6.74747264 7 10.125 C7.28617188 11.07632812 7.57234375 12.02765625 7.8671875 13.0078125 C9.25946179 17.78132437 10.40650073 21.96955344 10 27 C8.35 26.67 6.7 26.34 5 26 C4.67 24.68 4.34 23.36 4 22 C2.35 22 0.7 22 -1 22 C-1.33 23.65 -1.66 25.3 -2 27 C-3.65 27 -5.3 27 -7 27 C-5.91379772 20.92584254 -4.5234445 14.9601974 -2.9375 9 C-2.7631543 8.3412085 -2.58880859 7.68241699 -2.40917969 7.00366211 C-1.12871441 2.25742882 -1.12871441 2.25742882 0 0 Z M1 15 C2 17 2 17 2 17 Z " fill="#292929" transform="translate(246,273)"/>
<path d="M0 0 C1 1 1 1 1.0625 3.5625 C1.041875 4.366875 1.02125 5.17125 1 6 C-0.98 6 -2.96 6 -5 6 C-5 7.32 -5 8.64 -5 10 C-4.13375 10.1546875 -4.13375 10.1546875 -3.25 10.3125 C-0.43407788 11.17292065 1.00603999 11.79240141 3 14 C3.55302077 18.35503854 3.74510377 20.70416736 1.5625 24.5 C-2.14588244 26.67076045 -5.79101001 26.69878984 -10 26 C-12 24 -12 24 -12.125 20.875 C-12.08375 19.92625 -12.0425 18.9775 -12 18 C-11.1646875 18.5259375 -11.1646875 18.5259375 -10.3125 19.0625 C-7.46113217 20.21845993 -5.91482778 19.80967438 -3 19 C-3 18.01 -3 17.02 -3 16 C-3.928125 15.773125 -4.85625 15.54625 -5.8125 15.3125 C-9 14 -9 14 -10.9375 11.75 C-12.27206511 8.29583147 -12.14364857 6.50718894 -11 3 C-7.84372919 -0.64185094 -4.59768861 -0.34699537 0 0 Z " fill="#2C2C2C" transform="translate(408,236)"/>
<path d="M0 0 C0.66 0.33 1.32 0.66 2 1 C2 2.65 2 4.3 2 6 C-0.33333333 6 -2.66666667 6 -5 6 C-5 7.32 -5 8.64 -5 10 C-4.13375 10.1546875 -4.13375 10.1546875 -3.25 10.3125 C-0.43407788 11.17292065 1.00603999 11.79240141 3 14 C3.55302077 18.35503854 3.74510377 20.70416736 1.5625 24.5 C-2.17463675 26.68759225 -5.75915225 26.52472964 -10 26 C-11 25 -11 25 -11.0625 21.9375 C-11.041875 20.968125 -11.02125 19.99875 -11 19 C-8.69 19.33 -6.38 19.66 -4 20 C-3.67 19.01 -3.34 18.02 -3 17 C-3.5775 16.74347656 -4.155 16.48695313 -4.75 16.22265625 C-7.14117817 14.98970501 -9.04130205 13.85224698 -11 12 C-11.95641182 8.82493518 -11.8193417 6.19728075 -11 3 C-8.09945606 -0.82871799 -4.51811973 -0.33467554 0 0 Z " fill="#292929" transform="translate(315,236)"/>
<path d="M0 0 C5.94 0 11.88 0 18 0 C18 1.65 18 3.3 18 5 C15.69 5 13.38 5 11 5 C11 11.93 11 18.86 11 26 C9.35 26 7.7 26 6 26 C6 19.07 6 12.14 6 5 C4.02 5 2.04 5 0 5 C0 3.35 0 1.7 0 0 Z " fill="#191919" transform="translate(320,236)"/>
<path d="M0 0 C1.98 0 3.96 0 6 0 C6 8.58 6 17.16 6 26 C4.02 26 2.04 26 0 26 C0 17.42 0 8.84 0 0 Z " fill="#404040" transform="translate(321,273)"/>
<path d="M0 0 C1.65 0 3.3 0 5 0 C5 8.58 5 17.16 5 26 C3.35 26 1.7 26 0 26 C0 17.42 0 8.84 0 0 Z " fill="#1B1B1B" transform="translate(414,236)"/>
<path d="M0 0 C2.25245881 2.68841859 3.88213958 4.64641875 5 8 C5.66 8 6.32 8 7 8 C7 9.32 7 10.64 7 12 C6.34 12 5.68 12 5 12 C4.731875 12.763125 4.46375 13.52625 4.1875 14.3125 C3.05575888 16.87380884 2.08776599 18.19692938 0 20 C-0.34789916 15.8252101 0.39225238 14.20321755 3 11 C-3.47841142 11.01627019 -9.95567733 11.07103486 -16.43359375 11.15258789 C-18.63729423 11.17578645 -20.84110588 11.19016794 -23.04492188 11.19555664 C-26.21294582 11.20483239 -29.37921678 11.24579414 -32.546875 11.29296875 C-34.02519806 11.28706978 -34.02519806 11.28706978 -35.53338623 11.28105164 C-41.15754884 11.28197932 -41.15754884 11.28197932 -45.52832031 14.54418945 C-46.01397461 15.35460693 -46.49962891 16.16502441 -47 17 C-47.66 17 -48.32 17 -49 17 C-49.33 18.32 -49.66 19.64 -50 21 C-50.66 20.67 -51.32 20.34 -52 20 C-51.34 18.35 -50.68 16.7 -50 15 C-49.34 15 -48.68 15 -48 15 C-47.34 13.02 -46.68 11.04 -46 9 C-30.16 9 -14.32 9 2 9 C2 8.01 2 7.02 2 6 C2 5.34 2 4.68 2 4 C1.34 4 0.68 4 0 4 C0 2.68 0 1.36 0 0 Z " fill="#36C43E" transform="translate(210,240)"/>
<path d="M0 0 C-1.375 2.5 -1.375 2.5 -3 5 C-3.66 5 -4.32 5 -5 5 C-5.2475 5.721875 -5.495 6.44375 -5.75 7.1875 C-7 10 -7 10 -9.0625 12.5625 C-10.88985561 14.86143125 -11.5779596 16.15122727 -12 19 C-12.495 17.515 -12.495 17.515 -13 16 C-28.18 16 -43.36 16 -59 16 C-59 15.67 -59 15.34 -59 15 C-36.23 14.505 -36.23 14.505 -13 14 C-12.01 12.02 -11.02 10.04 -10 8 C-9.34 8 -8.68 8 -8 8 C-7.7525 6.88625 -7.505 5.7725 -7.25 4.625 C-6 1 -6 1 -4 -0.5 C-2 -1 -2 -1 0 0 Z " fill="#3AC443" transform="translate(145,234)"/>
<path d="M0 0 C2.97 0.495 2.97 0.495 6 1 C5.67 2.32 5.34 3.64 5 5 C5.99 5.33 6.98 5.66 8 6 C8 6.66 8 7.32 8 8 C23.84 8 39.68 8 56 8 C56 8.33 56 8.66 56 9 C48.98948142 9.17774751 41.97954528 9.30018159 34.96728516 9.38452148 C32.58294969 9.41968533 30.19876474 9.46742616 27.81494141 9.52807617 C24.38406231 9.61316884 20.95518063 9.65273044 17.5234375 9.68359375 C15.92935562 9.73778725 15.92935562 9.73778725 14.30307007 9.79307556 C7.06298932 9.79690128 7.06298932 9.79690128 3.95294189 7.46536255 C0 3.01644635 0 3.01644635 0 0 Z " fill="#258352" transform="translate(117,299)"/>
<path d="M0 0 C0.33 1.32 0.66 2.64 1 4 C0.360625 4.185625 -0.27875 4.37125 -0.9375 4.5625 C-1.618125 5.036875 -2.29875 5.51125 -3 6 C-3.12375 7.051875 -3.2475 8.10375 -3.375 9.1875 C-4.17020156 14.03822954 -6.3263715 16.79410139 -10 20 C-10.66 20 -11.32 20 -12 20 C-12 20.66 -12 21.32 -12 22 C-13.875 24.125 -13.875 24.125 -16 26 C-16.66 26 -17.32 26 -18 26 C-17.67 24.68 -17.34 23.36 -17 22 C-16.34 22 -15.68 22 -15 22 C-14.77183594 21.31035156 -14.54367188 20.62070313 -14.30859375 19.91015625 C-12.70531017 16.34464501 -10.48230772 13.47186206 -8.0625 10.4375 C-7.17826573 9.31129187 -6.29414832 8.18499199 -5.41015625 7.05859375 C-4.61480469 6.04925781 -3.81945312 5.03992188 -3 4 C-1.99481954 2.67056778 -0.99212422 1.33920398 0 0 Z " fill="#54CA50" transform="translate(121,194)"/>
<path d="M0 0 C0.33 0.99 0.66 1.98 1 3 C-0.0390625 4.54296875 -0.0390625 4.54296875 -1.625 6.1875 C-4.49349043 9.32220763 -6.69037294 12.53672327 -8.82421875 16.203125 C-10.05581991 18.08530617 -11.29053199 19.53860782 -13 21 C-13.66 21 -14.32 21 -15 21 C-15.2475 21.78375 -15.495 22.5675 -15.75 23.375 C-17.18650005 26.3916501 -18.04720831 26.71565565 -21 28 C-16.96137763 21.74235435 -12.62501661 15.83371425 -8 10 C-6.70704898 8.3343295 -5.4153474 6.66768826 -4.125 5 C-1.12307692 1.12307692 -1.12307692 1.12307692 0 0 Z " fill="#139A39" transform="translate(171,197)"/>
<path d="M0 0 C0.33 0 0.66 0 1 0 C1.20086443 3.71599191 1.1519437 4.77208445 -1 8 C-0.071875 8.2165625 -0.071875 8.2165625 0.875 8.4375 C3 9 3 9 5 10 C4.67 12.31 4.34 14.62 4 17 C4.66 17.33 5.32 17.66 6 18 C5.34 18.66 4.68 19.32 4 20 C2.62760882 18.28526178 1.27761439 16.55257992 -0.0625 14.8125 C-1.19365234 13.36810547 -1.19365234 13.36810547 -2.34765625 11.89453125 C-4 9 -4 9 -3.83984375 6.28125 C-2.91150344 3.75961864 -1.78187094 2.00460481 0 0 Z " fill="#279458" transform="translate(85,243)"/>
<path d="M0 0 C1 2 1 2 0.25 4.5 C-1 7 -1 7 -4 9 C-5.19232613 11.05003955 -5.19232613 11.05003955 -6 13 C-7.32 13 -8.64 13 -10 13 C-10.33 13.99 -10.66 14.98 -11 16 C-12.06546953 12.8035914 -12.07427838 10.34252724 -12 7 C-11.071875 7.7425 -11.071875 7.7425 -10.125 8.5 C-8.16119096 10.19222773 -8.16119096 10.19222773 -6 10 C-5.7525 9.278125 -5.505 8.55625 -5.25 7.8125 C-3.89016326 4.75286734 -2.17082246 2.5326262 0 0 Z " fill="#5AB770" transform="translate(157,260)"/>
<path d="M0 0 C2.25245881 2.68841859 3.88213958 4.64641875 5 8 C5.66 8 6.32 8 7 8 C7 9.32 7 10.64 7 12 C6.34 12 5.68 12 5 12 C4.5978125 13.1446875 4.5978125 13.1446875 4.1875 14.3125 C3.05575888 16.87380884 2.08776599 18.19692938 0 20 C-0.27877282 16.74765041 -0.16705642 15.27397254 1.5625 12.4375 C3.25378236 10.14966652 3.25378236 10.14966652 2.6875 7.8125 C2.460625 7.214375 2.23375 6.61625 2 6 C2 5.34 2 4.68 2 4 C1.34 4 0.68 4 0 4 C0 2.68 0 1.36 0 0 Z " fill="#5DB76B" transform="translate(210,240)"/>
<path d="M0 0 C-1.375 2.5 -1.375 2.5 -3 5 C-3.66 5 -4.32 5 -5 5 C-5.2475 5.7425 -5.495 6.485 -5.75 7.25 C-7.09147301 10.20124062 -8.60905526 11.84814974 -11 14 C-11 12.35 -11 10.7 -11 9 C-10.01 8.67 -9.02 8.34 -8 8 C-7.690625 6.865625 -7.38125 5.73125 -7.0625 4.5625 C-6 1 -6 1 -4 -0.5 C-2 -1 -2 -1 0 0 Z " fill="#5FCD5C" transform="translate(145,234)"/>
<path d="M0 0 C1.65 0 3.3 0 5 0 C5.12375 0.804375 5.2475 1.60875 5.375 2.4375 C5.684375 3.7059375 5.684375 3.7059375 6 5 C6.66 5.33 7.32 5.66 8 6 C8 6.66 8 7.32 8 8 C8.66 8 9.32 8 10 8 C10.33 9.98 10.66 11.96 11 14 C6.45924219 9.85989729 3.28157862 5.17609824 0 0 Z " fill="#54A577" transform="translate(153,234)"/>
<path d="M0 0 C0.66 0 1.32 0 2 0 C2 0.66 2 1.32 2 2 C2.639375 2.2475 3.27875 2.495 3.9375 2.75 C6 4 6 4 6.75 6.125 C6.8325 6.74375 6.915 7.3625 7 8 C7.99 8 8.98 8 10 8 C10.33 10.31 10.66 12.62 11 15 C6.48314191 10.88168822 3.1481023 6.23601895 0 1 C0 0.67 0 0.34 0 0 Z " fill="#53A178" transform="translate(105,283)"/>
<path d="M0 0 C-1.875 4.75 -1.875 4.75 -3 7 C-3.66 7 -4.32 7 -5 7 C-5.28875 7.804375 -5.5775 8.60875 -5.875 9.4375 C-7 12 -7 12 -9 13 C-8.125 8.25 -8.125 8.25 -7 6 C-6.34 6 -5.68 6 -5 6 C-5 4.35 -5 2.7 -5 1 C-2 0 -2 0 0 0 Z " fill="#67CD63" transform="translate(209,260)"/>
<path d="M0 0 C2.97 0.495 2.97 0.495 6 1 C5.67 2.32 5.34 3.64 5 5 C5.99 5.33 6.98 5.66 8 6 C7.01 6.66 6.02 7.32 5 8 C0 2.25 0 2.25 0 0 Z " fill="#3C9D66" transform="translate(117,299)"/>
<path d="M0 0 C0.33 0.99 0.66 1.98 1 3 C0.07421875 4.82421875 0.07421875 4.82421875 -1.3125 6.6875 C-1.76238281 7.31011719 -2.21226563 7.93273437 -2.67578125 8.57421875 C-3.11277344 9.04472656 -3.54976563 9.51523438 -4 10 C-4.66 10 -5.32 10 -6 10 C-6 10.66 -6 11.32 -6 12 C-6.66 11.67 -7.32 11.34 -8 11 C-5.36 7.37 -2.72 3.74 0 0 Z " fill="#71CF6C" transform="translate(102,220)"/>
<path d="M0 0 C0.66 0.33 1.32 0.66 2 1 C-0.64 4.63 -3.28 8.26 -6 12 C-6.66 11.67 -7.32 11.34 -8 11 C-8 10.34 -8 9.68 -8 9 C-7.01 9 -6.02 9 -5 9 C-5 7.68 -5 6.36 -5 5 C-4.01 5 -3.02 5 -2 5 C-1.855625 4.360625 -1.71125 3.72125 -1.5625 3.0625 C-1 1 -1 1 0 0 Z " fill="#70CD6B" transform="translate(182,295)"/>
<path d="M0 0 C0.33 1.32 0.66 2.64 1 4 C0.01 4.33 -0.98 4.66 -2 5 C-2.33 6.65 -2.66 8.3 -3 10 C-4.32 10.33 -5.64 10.66 -7 11 C-4.84921278 7.14341602 -2.76544722 3.45680903 0 0 Z " fill="#68D167" transform="translate(93,232)"/>
<path d="M0 0 C0.99 0.33 1.98 0.66 3 1 C0.36 4.63 -2.28 8.26 -5 12 C-5.33 10.68 -5.66 9.36 -6 8 C-5.34 8 -4.68 8 -4 8 C-4 7.01 -4 6.02 -4 5 C-3.34 5 -2.68 5 -2 5 C-2 4.34 -2 3.68 -2 3 C-1.34 3 -0.68 3 0 3 C0 2.01 0 1.02 0 0 Z " fill="#7DD47B" transform="translate(193,279)"/>
<path d="M0 0 C2 2 2 2 2 5 C0.625 6.6875 0.625 6.6875 -1 8 C-1.66 8 -2.32 8 -3 8 C-3.33 9.32 -3.66 10.64 -4 12 C-4.66 11.67 -5.32 11.34 -6 11 C-5.34 9.35 -4.68 7.7 -4 6 C-3.34 6 -2.68 6 -2 6 C-1.34 4.02 -0.68 2.04 0 0 Z " fill="#6FD26F" transform="translate(164,249)"/>
<path d="M0 0 C4.00972202 3.67557852 6.45335415 7.18966896 9 12 C8.34 12 7.68 12 7 12 C7 11.34 7 10.68 7 10 C6.34 10 5.68 10 5 10 C5 9.34 5 8.68 5 8 C4.34 8 3.68 8 3 8 C3 7.01 3 6.02 3 5 C2.01 4.67 1.02 4.34 0 4 C0 2.68 0 1.36 0 0 Z " fill="#169D38" transform="translate(163,293)"/>
<path d="M0 0 C-0.66 1.98 -1.32 3.96 -2 6 C-3.37562854 4.71034824 -4.70766393 3.37310707 -6 2 C-6 1.34 -6 0.68 -6 0 C-3.50907189 -1.24546405 -2.58919267 -0.7767578 0 0 Z " fill="#3B9E68" transform="translate(103,272)"/>
<path d="M0 0 C1.37562854 1.28965176 2.70766393 2.62689293 4 4 C4 4.66 4 5.32 4 6 C4.66 6 5.32 6 6 6 C6.66 7.32 7.32 8.64 8 10 C6.35 9.67 4.7 9.34 3 9 C3 7.68 3 6.36 3 5 C2.01 4.67 1.02 4.34 0 4 C0 2.68 0 1.36 0 0 Z " fill="#60AB81" transform="translate(200,227)"/>
<path d="M0 0 C0 4.09266462 -0.21804006 6.09191749 -2.9375 9.25 C-5 11 -5 11 -7 11 C-6.67 9.68 -6.34 8.36 -6 7 C-5.34 7 -4.68 7 -4 7 C-3.71125 6.21625 -3.4225 5.4325 -3.125 4.625 C-2 2 -2 2 0 0 Z " fill="#7FD677" transform="translate(110,209)"/>
<path d="M0 0 C0.33 0 0.66 0 1 0 C1 1.65 1 3.3 1 5 C0.360625 5.28875 -0.27875 5.5775 -0.9375 5.875 C-3.15206079 6.82823451 -3.15206079 6.82823451 -4 9 C-3.47181039 5.19703482 -2.56226812 2.88255163 0 0 Z " fill="#72CC64" transform="translate(85,243)"/>
<path d="M0 0 C0.99 0.33 1.98 0.66 3 1 C2.19152271 2.16945792 1.37810888 3.33550461 0.5625 4.5 C0.11003906 5.1496875 -0.34242188 5.799375 -0.80859375 6.46875 C-1.20175781 6.9740625 -1.59492188 7.479375 -2 8 C-2.33 8 -2.66 8 -3 8 C-3 6.35 -3 4.7 -3 3 C-2.01 2.67 -1.02 2.34 0 2 C0 1.34 0 0.68 0 0 Z " fill="#74CF70" transform="translate(137,240)"/>
<path d="M0 0 C1.04449911 3.13349732 0.93423645 3.98968256 0 7 C0.66 7.33 1.32 7.66 2 8 C1.34 8.66 0.68 9.32 0 10 C-1.98 6.535 -1.98 6.535 -4 3 C-3.01 2.67 -2.02 2.34 -1 2 C-0.67 1.34 -0.34 0.68 0 0 Z " fill="#46A26F" transform="translate(89,253)"/>
<path d="M0 0 C1.65 0 3.3 0 5 0 C4.34 1.65 3.68 3.3 3 5 C2.01 4.67 1.02 4.34 0 4 C0 2.68 0 1.36 0 0 Z " fill="#4EC74B" transform="translate(182,290)"/>
<path d="M0 0 C1 2 1 2 0.25 4.5625 C-1 7 -1 7 -4 8 C-3.40072174 4.64404172 -2.15377564 2.62198774 0 0 Z " fill="#67CE64" transform="translate(157,260)"/>
<path d="M0 0 C0.33 1.32 0.66 2.64 1 4 C-0.98 4.99 -0.98 4.99 -3 6 C-3 6.66 -3 7.32 -3 8 C-3.66 7.67 -4.32 7.34 -5 7 C-3.35 4.69 -1.7 2.38 0 0 Z " fill="#77D572" transform="translate(121,194)"/>
<path d="M0 0 C0.99 0 1.98 0 3 0 C1.75023244 3.65316671 1.32901247 4.78065836 -2 7 C-1.125 2.25 -1.125 2.25 0 0 Z " fill="#33BE40" transform="translate(170,193)"/>
<path d="" fill="#FFFFFF" transform="translate(0,0)"/>
<path d="" fill="#FFFFFF" transform="translate(0,0)"/>
<path d="" fill="#FFFFFF" transform="translate(0,0)"/>
<path d="" fill="#FFFFFF" transform="translate(0,0)"/>
<path d="" fill="#FFFFFF" transform="translate(0,0)"/>
<path d="" fill="#FFFFFF" transform="translate(0,0)"/>
<path d="" fill="#FFFFFF" transform="translate(0,0)"/>
<path d="" fill="#FFFFFF" transform="translate(0,0)"/>
<path d="" fill="#FFFFFF" transform="translate(0,0)"/>
<path d="" fill="#FFFFFF" transform="translate(0,0)"/>
<path d="" fill="#FFFFFF" transform="translate(0,0)"/>
<path d="" fill="#FFFFFF" transform="translate(0,0)"/>
<path d="" fill="#FFFFFF" transform="translate(0,0)"/>
<path d="" fill="#FFFFFF" transform="translate(0,0)"/>
<path d="" fill="#FFFFFF" transform="translate(0,0)"/>
<path d="" fill="#FFFFFF" transform="translate(0,0)"/>
<path d="" fill="#FFFFFF" transform="translate(0,0)"/>
<path d="" fill="#FFFFFF" transform="translate(0,0)"/>
<path d="" fill="#FFFFFF" transform="translate(0,0)"/>
<path d="" fill="#FFFFFF" transform="translate(0,0)"/>
<path d="" fill="#FFFFFF" transform="translate(0,0)"/>
<path d="" fill="#FFFFFF" transform="translate(0,0)"/>
<path d="" fill="#FFFFFF" transform="translate(0,0)"/>
<path d="" fill="#FFFFFF" transform="translate(0,0)"/>
<path d="" fill="#FFFFFF" transform="translate(0,0)"/>
<path d="" fill="#FFFFFF" transform="translate(0,0)"/>
<path d="" fill="#FFFFFF" transform="translate(0,0)"/>
<path d="" fill="#FFFFFF" transform="translate(0,0)"/>
<path d="" fill="#FFFFFF" transform="translate(0,0)"/>
<path d="" fill="#FFFFFF" transform="translate(0,0)"/>
<path d="" fill="#FFFFFF" transform="translate(0,0)"/>
<path d="" fill="#FFFFFF" transform="translate(0,0)"/>
<path d="" fill="#FFFFFF" transform="translate(0,0)"/>
<path d="" fill="#FFFFFF" transform="translate(0,0)"/>
<path d="" fill="#FFFFFF" transform="translate(0,0)"/>
<path d="" fill="#FFFFFF" transform="translate(0,0)"/>
<path d="" fill="#FFFFFF" transform="translate(0,0)"/>
<path d="" fill="#FFFFFF" transform="translate(0,0)"/>
<path d="" fill="#FFFFFF" transform="translate(0,0)"/>
<path d="" fill="#FFFFFF" transform="translate(0,0)"/>
<path d="" fill="#FFFFFF" transform="translate(0,0)"/>
<path d="" fill="#FFFFFF" transform="translate(0,0)"/>
<path d="" fill="#FFFFFF" transform="translate(0,0)"/>
<path d="" fill="#FFFFFF" transform="translate(0,0)"/>
<path d="" fill="#FFFFFF" transform="translate(0,0)"/>
<path d="" fill="#FFFFFF" transform="translate(0,0)"/>
<path d="" fill="#FFFFFF" transform="translate(0,0)"/>
<path d="" fill="#FFFFFF" transform="translate(0,0)"/>
<path d="" fill="#FFFFFF" transform="translate(0,0)"/>
<path d="" fill="#FFFFFF" transform="translate(0,0)"/>
<path d="" fill="#FFFFFF" transform="translate(0,0)"/>
<path d="" fill="#FFFFFF" transform="translate(0,0)"/>
<path d="" fill="#FFFFFF" transform="translate(0,0)"/>
<path d="" fill="#FFFFFF" transform="translate(0,0)"/>
<path d="" fill="#FFFFFF" transform="translate(0,0)"/>
<path d="" fill="#FFFFFF" transform="translate(0,0)"/>
<path d="" fill="#FFFFFF" transform="translate(0,0)"/>
<path d="" fill="#FFFFFF" transform="translate(0,0)"/>
<path d="" fill="#FFFFFF" transform="translate(0,0)"/>
<path d="" fill="#FFFFFF" transform="translate(0,0)"/>
<path d="" fill="#FFFFFF" transform="translate(0,0)"/>
<path d="" fill="#FFFFFF" transform="translate(0,0)"/>
<path d="" fill="#FFFFFF" transform="translate(0,0)"/>
<path d="" fill="#FFFFFF" transform="translate(0,0)"/>
<path d="" fill="#FFFFFF" transform="translate(0,0)"/>
<path d="" fill="#FFFFFF" transform="translate(0,0)"/>
<path d="" fill="#FFFFFF" transform="translate(0,0)"/>
<path d="" fill="#FFFFFF" transform="translate(0,0)"/>
<path d="" fill="#FFFFFF" transform="translate(0,0)"/>
<path d="" fill="#FFFFFF" transform="translate(0,0)"/>
<path d="" fill="#FFFFFF" transform="translate(0,0)"/>
<path d="" fill="#FFFFFF" transform="translate(0,0)"/>
<path d="" fill="#FFFFFF" transform="translate(0,0)"/>
<path d="" fill="#FFFFFF" transform="translate(0,0)"/>
<path d="" fill="#FFFFFF" transform="translate(0,0)"/>
<path d="" fill="#FFFFFF" transform="translate(0,0)"/>
<path d="" fill="#FFFFFF" transform="translate(0,0)"/>
<path d="" fill="#FFFFFF" transform="translate(0,0)"/>
<path d="" fill="#FFFFFF" transform="translate(0,0)"/>
<path d="" fill="#FFFFFF" transform="translate(0,0)"/>
<path d="" fill="#FFFFFF" transform="translate(0,0)"/>
<path d="" fill="#FFFFFF" transform="translate(0,0)"/>
<path d="" fill="#FFFFFF" transform="translate(0,0)"/>
<path d="" fill="#FFFFFF" transform="translate(0,0)"/>
<path d="" fill="#FFFFFF" transform="translate(0,0)"/>
<path d="" fill="#FFFFFF" transform="translate(0,0)"/>
<path d="" fill="#FFFFFF" transform="translate(0,0)"/>
<path d="" fill="#FFFFFF" transform="translate(0,0)"/>
<path d="" fill="#FFFFFF" transform="translate(0,0)"/>
<path d="" fill="#FFFFFF" transform="translate(0,0)"/>
</svg>
