<?xml version="1.0" standalone="no"?>
<!DOCTYPE svg PUBLIC "-//W3C//DTD SVG 20010904//EN"
 "http://www.w3.org/TR/2001/REC-SVG-20010904/DTD/svg10.dtd">
<svg version="1.0" xmlns="http://www.w3.org/2000/svg"
 width="500.000000pt" height="500.000000pt" viewBox="0 0 500.000000 500.000000"
 preserveAspectRatio="xMidYMid meet">

<g transform="translate(0.000000,500.000000) scale(0.100000,-0.100000)"
fill="#000000" stroke="none">
<path d="M982 3502 c-72 -28 -132 -81 -166 -146 -27 -52 -31 -70 -31 -140 0
-69 4 -89 29 -139 67 -134 228 -199 365 -147 78 29 130 74 169 148 28 52 32
70 32 136 0 65 -5 86 -29 135 -53 103 -144 162 -261 167 -43 2 -79 -3 -108
-14z"/>
<path d="M782 2180 l3 -690 298 -3 297 -2 0 694 0 694 -22 -20 c-23 -20 -62
-42 -108 -61 -14 -5 -38 -15 -53 -21 -15 -6 -68 -11 -116 -11 -75 0 -100 5
-160 29 -39 16 -87 41 -106 56 l-35 26 2 -691z"/>
</g>
</svg>
