<?xml version="1.0" encoding="UTF-8"?>
<svg version="1.1" xmlns="http://www.w3.org/2000/svg" width="500" height="500">
<path d="M0 0 C0.66 0 1.32 0 2 0 C2.02314476 7.91886714 2.040926 15.8377202 2.05181217 23.75661278 C2.05703632 27.43345711 2.0641255 31.11027834 2.07543945 34.78710938 C2.08628493 38.3337896 2.09228037 41.88044757 2.09487724 45.4271431 C2.09672849 46.78196183 2.10034338 48.13677931 2.10573006 49.49158859 C2.11296238 51.38549365 2.11340824 53.27942098 2.11352539 55.17333984 C2.115746 56.25255707 2.11796661 57.33177429 2.12025452 58.44369507 C2 61 2 61 1 63 C1.99 63.495 1.99 63.495 3 64 C2.34 64.99 1.68 65.98 1 67 C0.89870547 68.96497504 0.89870547 68.96497504 1.25 71 C1.33765625 71.680625 1.4253125 72.36125 1.515625 73.0625 C1.9611111 75.30603109 1.9611111 75.30603109 4 78 C3.62068453 81.03452373 2.74959319 82.37561021 1 85 C0.60612212 87.32387947 0.26513915 89.65793749 0 92 C-3.465 92.495 -3.465 92.495 -7 93 C-7.495 94.485 -7.495 94.485 -8 96 C-5.03 96.99 -2.06 97.98 1 99 C1.71564815 103.69147122 2.2520747 107.36732362 1 112 C0.814375 112.928125 0.62875 113.85625 0.4375 114.8125 C0.293125 115.534375 0.14875 116.25625 0 117 C-3.3834252 117.74270309 -5.872641 118.021627 -9.3125 117.4375 C-14.57233799 116.81345142 -19.12864718 118.09021238 -24.1328125 119.67578125 C-25.05707031 119.83626953 -25.05707031 119.83626953 -26 120 C-29.08796693 117.61785409 -30.29205828 115.77568919 -31 112 C-31.6468426 110.6569375 -32.31138883 109.32213345 -33 108 C-33.74685059 108.00523682 -34.49370117 108.01047363 -35.26318359 108.01586914 C-38.63378057 108.03660401 -42.00436414 108.04964899 -45.375 108.0625 C-47.1384375 108.07506836 -47.1384375 108.07506836 -48.9375 108.08789062 C-50.05898437 108.09111328 -51.18046875 108.09433594 -52.3359375 108.09765625 C-53.89127197 108.10551147 -53.89127197 108.10551147 -55.47802734 108.11352539 C-58 108 -58 108 -60 107 C-59.01 101.555 -59.01 101.555 -58 96 C-58.66 95.67 -59.32 95.34 -60 95 C-60 84.77 -60 74.54 -60 64 C-49.44 64 -38.88 64 -28 64 C-28.08121094 61.26589844 -28.16242188 58.53179687 -28.24609375 55.71484375 C-28.30077072 53.05059487 -28.34322443 50.38640976 -28.38452148 47.72192383 C-28.4196075 45.87788673 -28.46729136 44.03404277 -28.52807617 42.19067383 C-28.61352914 39.53157859 -28.65280344 36.87506694 -28.68359375 34.21484375 C-28.71972275 33.39789536 -28.75585175 32.58094696 -28.79307556 31.73924255 C-28.79633944 26.92240698 -28.01333767 24.4588219 -24.64477539 20.92407227 C-21.50301748 18 -21.50301748 18 -18 18 C-17.505 16.515 -17.505 16.515 -17 15 C-16.34 15 -15.68 15 -15 15 C-15 14.34 -15 13.68 -15 13 C-14.34 13 -13.68 13 -13 13 C-13 12.34 -13 11.68 -13 11 C-12.34 11 -11.68 11 -11 11 C-11 10.34 -11 9.68 -11 9 C-9.948125 8.38125 -9.948125 8.38125 -8.875 7.75 C-6.36263909 6.22073684 -4.81257529 4.90103071 -2.8125 2.8125 C-1.4203125 1.4203125 -1.4203125 1.4203125 0 0 Z M-18 26 C-17 28 -17 28 -17 28 Z M-9 34 C-9 43.24 -9 52.48 -9 62 C-8.67 62 -8.34 62 -8 62 C-8 52.76 -8 43.52 -8 34 C-8.33 34 -8.66 34 -9 34 Z M-27 66 C-27 68.31 -27 70.62 -27 73 C-26.67 73 -26.34 73 -26 73 C-26 70.69 -26 68.38 -26 66 C-26.33 66 -26.66 66 -27 66 Z M-18 64 C-18 64.66 -18 65.32 -18 66 C-19.32 66.33 -20.64 66.66 -22 67 C-20.35 67 -18.7 67 -17 67 C-17.33 66.01 -17.66 65.02 -18 64 Z M-19 73 C-19.02708567 74.60407328 -19.04643483 76.2082785 -19.0625 77.8125 C-19.07410156 78.70582031 -19.08570313 79.59914063 -19.09765625 80.51953125 C-19.11009967 83.13413791 -19.11009967 83.13413791 -18 86 C-14.04 86 -10.08 86 -6 86 C-4.66135999 82.28155553 -3.91603046 79.63576939 -4.4375 75.6875 C-5.82942121 72.70137742 -5.82942121 72.70137742 -9.25 71.5 C-13.23912149 70.96811713 -15.35577186 71.40009497 -19 73 Z M-49 74 C-49 74.33 -49 74.66 -49 75 C-44.38 75 -39.76 75 -35 75 C-35 74.67 -35 74.34 -35 74 C-39.62 74 -44.24 74 -49 74 Z M-52 85 C-52 85.33 -52 85.66 -52 86 C-50.02 86 -48.04 86 -46 86 C-46 85.67 -46 85.34 -46 85 C-47.98 85 -49.96 85 -52 85 Z M-28 85 C-27.34 85.66 -26.68 86.32 -26 87 C-25.67 86.34 -25.34 85.68 -25 85 C-25.99 85 -26.98 85 -28 85 Z M-26 92 C-26 92.99 -26 93.98 -26 95 C-27.98 95 -29.96 95 -32 95 C-31.34 96.32 -30.68 97.64 -30 99 C-26.4465432 98.3222056 -26.4465432 98.3222056 -23 97.25 C-21 97 -21 97 -18.5625 98.5 C-16.0848196 100.29290969 -16.0848196 100.29290969 -13.1875 99.6875 C-12.1046875 99.3471875 -12.1046875 99.3471875 -11 99 C-12.29421314 95.11736059 -13.50109996 94.11391877 -17 92 C-20.03157594 91.66992892 -22.96386103 91.76187145 -26 92 Z M-53 97 C-52.67 97.66 -52.34 98.32 -52 99 C-47.05 99 -42.1 99 -37 99 C-37 98.34 -37 97.68 -37 97 C-35.68 96.67 -34.36 96.34 -33 96 C-36.75513397 95.13396357 -40.27336758 94.83663304 -44.125 94.8125 C-45.67574219 94.79123047 -45.67574219 94.79123047 -47.2578125 94.76953125 C-50.21720034 94.79591855 -50.21720034 94.79591855 -53 97 Z M-33 98 C-32 101 -32 101 -32 101 Z M-3 113 C-2 116 -2 116 -2 116 Z " fill="#B3C372" transform="translate(121,190)"/>
<path d="M0 0 C3.75 0.1875 3.75 0.1875 6.375 1.25 C9.36169995 2.42896051 10.66289754 1.97722389 13.75 1.1875 C18.63158518 0.2529399 22.23241129 -0.32227151 26.75 2.1875 C28.08790641 3.18137334 29.42218122 4.1801892 30.75 5.1875 C31.41 5.1875 32.07 5.1875 32.75 5.1875 C32.75 4.5275 32.75 3.8675 32.75 3.1875 C38.35173629 0.26992902 41.55843896 -0.31045831 47.75 1.1875 C52.18365374 3.55211533 53.64191607 6.45545926 55.14135742 11.17382812 C56.34836911 17.15030316 56.11296909 23.26514081 56.03125 29.33789062 C55.9997035 31.70979314 55.99023202 34.08103212 55.984375 36.453125 C55.97521879 37.95834153 55.96484747 39.46355127 55.953125 40.96875 C55.94675018 42.03422058 55.94675018 42.03422058 55.94024658 43.12121582 C55.86727353 48.07022647 55.86727353 48.07022647 54.75 49.1875 C52.89712498 49.25976502 51.04166122 49.2713122 49.1875 49.25 C48.17558594 49.24097656 47.16367187 49.23195313 46.12109375 49.22265625 C44.94740234 49.20525391 44.94740234 49.20525391 43.75 49.1875 C43.72494385 48.20354248 43.6998877 47.21958496 43.67407227 46.20581055 C43.5798918 42.55479943 43.4796971 38.90397384 43.37768555 35.25317383 C43.33437695 33.67313985 43.29269894 32.09306031 43.25268555 30.51293945 C43.19488417 28.24155952 43.1312184 25.97040811 43.06640625 23.69921875 C43.04969376 22.99286789 43.03298126 22.28651703 43.01576233 21.5587616 C42.9240253 18.5210176 42.71792314 16.09126942 41.75 13.1875 C38.83347826 13.02068891 38.83347826 13.02068891 35.75 13.1875 C31.96324873 16.97425127 32.5978018 22.78452953 32.43359375 27.8984375 C32.37075195 29.76435547 32.37075195 29.76435547 32.30664062 31.66796875 C32.26732422 32.95316406 32.22800781 34.23835938 32.1875 35.5625 C32.12272461 37.52509766 32.12272461 37.52509766 32.05664062 39.52734375 C31.95087571 42.74729797 31.84878421 45.96732531 31.75 49.1875 C29.93757948 49.21437279 28.12504767 49.23383715 26.3125 49.25 C25.30316406 49.26160156 24.29382813 49.27320313 23.25390625 49.28515625 C20.75 49.1875 20.75 49.1875 19.75 48.1875 C19.59003834 45.59596893 19.49061303 43.0279798 19.43359375 40.43359375 C19.41281265 39.65814713 19.39203156 38.8827005 19.37062073 38.08375549 C19.30504198 35.59759692 19.24620201 33.11132955 19.1875 30.625 C19.14432267 28.94334796 19.10070864 27.26170706 19.05664062 25.58007812 C18.94935221 21.44933129 18.84810868 17.31847464 18.75 13.1875 C16.11 13.1875 13.47 13.1875 10.75 13.1875 C9.78457982 17.29998383 9.55510037 21.2390157 9.43359375 25.45703125 C9.41281265 26.13803391 9.39203156 26.81903656 9.37062073 27.52067566 C9.30562122 29.68035508 9.24647288 31.84014846 9.1875 34 C9.1442675 35.47071456 9.10065175 36.94141791 9.05664062 38.41210938 C8.94999141 42.00378717 8.84858651 45.59559082 8.75 49.1875 C4.79 49.1875 0.83 49.1875 -3.25 49.1875 C-4.19628721 43.60844619 -4.39615528 38.22293718 -4.3828125 32.5703125 C-4.38376923 31.67255096 -4.38472595 30.77478943 -4.38571167 29.849823 C-4.38638865 27.96563649 -4.38456821 26.08144758 -4.38037109 24.19726562 C-4.37497808 21.30072893 -4.38035167 18.40434465 -4.38671875 15.5078125 C-4.38605862 13.67447882 -4.38477882 11.84114524 -4.3828125 10.0078125 C-4.38483673 9.13810822 -4.38686096 8.26840393 -4.38894653 7.37234497 C-4.36082539 0.25158608 -4.36082539 0.25158608 0 0 Z " fill="#30328F" transform="translate(217.25,236.8125)"/>
<path d="M0 0 C4.1926653 1.95394024 6.89702681 4.35690423 9.4453125 8.27734375 C9.8578125 8.87546875 10.2703125 9.47359375 10.6953125 10.08984375 C11.86374972 13.49778563 11.5649347 16.68867773 11.4453125 20.27734375 C7.4853125 20.27734375 3.5253125 20.27734375 -0.5546875 20.27734375 C-0.8228125 19.14296875 -1.0909375 18.00859375 -1.3671875 16.83984375 C-1.7590625 15.66421875 -2.1509375 14.48859375 -2.5546875 13.27734375 C-7.19866761 11.72935038 -11.87986458 11.78140042 -16.5546875 13.27734375 C-16.5546875 15.58734375 -16.5546875 17.89734375 -16.5546875 20.27734375 C-15.68070312 20.51517578 -15.68070312 20.51517578 -14.7890625 20.7578125 C5.71803541 26.593952 5.71803541 26.593952 12.2578125 35.83984375 C14.48321423 42.28179613 14.67316002 49.42425528 11.8203125 55.71484375 C9.07947341 60.35689869 5.66219819 63.1689009 0.8203125 65.58984375 C-6.87436492 67.15727804 -15.67619177 67.6014093 -22.5546875 63.27734375 C-27.62563456 59.01497595 -30.25625579 53.72394329 -31.5546875 47.27734375 C-31.5546875 45.62734375 -31.5546875 43.97734375 -31.5546875 42.27734375 C-27.5946875 42.27734375 -23.6346875 42.27734375 -19.5546875 42.27734375 C-18.90364583 44.58854167 -18.25260417 46.89973958 -17.6015625 49.2109375 C-16.76050398 51.4208098 -16.76050398 51.4208098 -14.73046875 52.0546875 C-12.46730097 52.28628636 -10.26768776 52.41004426 -7.9921875 52.40234375 C-7.22777344 52.40492188 -6.46335937 52.4075 -5.67578125 52.41015625 C-3.36470255 52.35641759 -3.36470255 52.35641759 -0.5546875 51.27734375 C0.21054051 47.9227622 0.21054051 47.9227622 0.4453125 44.27734375 C-1.46789825 41.7522807 -3.33246668 40.78780633 -6.3203125 39.8828125 C-7.0426709 39.65279541 -7.7650293 39.42277832 -8.50927734 39.18579102 C-9.2667627 38.94787842 -10.02424805 38.70996582 -10.8046875 38.46484375 C-18.76342791 35.7960895 -24.13552767 33.41332669 -28.4921875 25.96484375 C-30.1934208 20.06056346 -30.19623593 15.41583853 -28.4296875 9.52734375 C-22.39428766 -0.93401597 -11.25652903 -3.18418635 0 0 Z " fill="#A7CC3F" transform="translate(309.5546875,220.72265625)"/>
<path d="M0 0 C0.66 0 1.32 0 2 0 C2.02314476 7.91886714 2.040926 15.8377202 2.05181217 23.75661278 C2.05703632 27.43345711 2.0641255 31.11027834 2.07543945 34.78710938 C2.08628493 38.3337896 2.09228037 41.88044757 2.09487724 45.4271431 C2.09672849 46.78196183 2.10034338 48.13677931 2.10573006 49.49158859 C2.11296238 51.38549365 2.11340824 53.27942098 2.11352539 55.17333984 C2.115746 56.25255707 2.11796661 57.33177429 2.12025452 58.44369507 C2 61 2 61 1 63 C1.99 63.495 1.99 63.495 3 64 C2.34 64.99 1.68 65.98 1 67 C0.89870547 68.96497504 0.89870547 68.96497504 1.25 71 C1.33765625 71.680625 1.4253125 72.36125 1.515625 73.0625 C1.9611111 75.30603109 1.9611111 75.30603109 4 78 C3.62068453 81.03452373 2.74959319 82.37561021 1 85 C0.60612212 87.32387947 0.26513915 89.65793749 0 92 C-1.11375 92.103125 -2.2275 92.20625 -3.375 92.3125 C-4.57125 92.539375 -5.7675 92.76625 -7 93 C-7.66 93.99 -8.32 94.98 -9 96 C-9.99 96.33 -10.98 96.66 -12 97 C-13.47259196 95.7564779 -14.94185701 94.5079627 -16.37109375 93.21484375 C-18.75762087 91.43496381 -21.08457792 91.20824443 -24 91 C-24.0825 89.88625 -24.165 88.7725 -24.25 87.625 C-24.57873787 83.94246056 -24.57873787 83.94246056 -27.0625 82.5625 C-28.0215625 82.2840625 -28.0215625 82.2840625 -29 82 C-28.835 81.21625 -28.67 80.4325 -28.5 79.625 C-27.9376293 77.11791961 -27.9376293 77.11791961 -28 75 C-28.72590332 75.01047363 -29.45180664 75.02094727 -30.19970703 75.03173828 C-33.50810241 75.0734696 -36.81644224 75.09938064 -40.125 75.125 C-41.26710938 75.14175781 -42.40921875 75.15851563 -43.5859375 75.17578125 C-45.24882813 75.18544922 -45.24882813 75.18544922 -46.9453125 75.1953125 C-48.46922607 75.21102295 -48.46922607 75.21102295 -50.02392578 75.22705078 C-53.28288429 74.97841818 -55.95115207 74.14878364 -59 73 C-58.67 70.69 -58.34 68.38 -58 66 C-53.6217488 65.97530919 -49.24353433 65.95714443 -44.86523438 65.94506836 C-43.37531834 65.94003486 -41.88540726 65.93320758 -40.39550781 65.92456055 C-38.25584696 65.91245195 -36.11625132 65.90676193 -33.9765625 65.90234375 C-32.68830566 65.89710693 -31.40004883 65.89187012 -30.07275391 65.88647461 C-27 66 -27 66 -25 67 C-22.34243535 67.43225449 -19.67667115 67.69779519 -17 68 C-17 67.01 -17 66.02 -17 65 C-10.25 64 -10.25 64 -8 64 C-8.03029297 63.18136475 -8.06058594 62.36272949 -8.09179688 61.51928711 C-8.71643949 44.33801153 -9.15337994 27.19559567 -9 10 C-9.66 9.67 -10.32 9.34 -11 9 C-9.948125 8.443125 -9.948125 8.443125 -8.875 7.875 C-6.44164644 6.28803029 -4.79739542 4.87542571 -2.8125 2.8125 C-1.4203125 1.4203125 -1.4203125 1.4203125 0 0 Z M-19 73 C-19.02708567 74.60407328 -19.04643483 76.2082785 -19.0625 77.8125 C-19.07410156 78.70582031 -19.08570313 79.59914063 -19.09765625 80.51953125 C-19.11009967 83.13413791 -19.11009967 83.13413791 -18 86 C-14.04 86 -10.08 86 -6 86 C-4.66135999 82.28155553 -3.91603046 79.63576939 -4.4375 75.6875 C-5.82942121 72.70137742 -5.82942121 72.70137742 -9.25 71.5 C-13.23912149 70.96811713 -15.35577186 71.40009497 -19 73 Z " fill="#B5CA49" transform="translate(121,190)"/>
<path d="M0 0 C1.65322266 0.01740234 1.65322266 0.01740234 3.33984375 0.03515625 C4.99693359 0.04869141 4.99693359 0.04869141 6.6875 0.0625 C7.54214844 0.07410156 8.39679688 0.08570313 9.27734375 0.09765625 C10.44820638 4.22147714 11.61332302 8.34689938 12.77734375 12.47265625 C13.11121094 13.64828125 13.44507813 14.82390625 13.7890625 16.03515625 C14.10488281 17.15664062 14.42070312 18.278125 14.74609375 19.43359375 C15.03935547 20.4704834 15.33261719 21.50737305 15.63476562 22.57568359 C16.27734375 25.09765625 16.27734375 25.09765625 16.27734375 27.09765625 C16.93734375 27.09765625 17.59734375 27.09765625 18.27734375 27.09765625 C18.53128906 25.98648437 18.78523438 24.8753125 19.046875 23.73046875 C20.88398766 15.76517083 22.80215296 7.89450723 25.27734375 0.09765625 C29.23734375 0.09765625 33.19734375 0.09765625 37.27734375 0.09765625 C38.67207731 2.88712337 37.66732224 4.51342016 36.73974609 7.35424805 C36.48402832 8.11519775 36.22831055 8.87614746 35.96484375 9.66015625 C33.81548035 16.22064435 31.75189259 22.7995786 29.7890625 29.41796875 C29.57249496 30.14529709 29.35592743 30.87262543 29.13279724 31.62199402 C27.81573575 36.04503209 27.81573575 36.04503209 26.5118103 40.47195435 C21.13058578 58.82481981 21.13058578 58.82481981 16.15234375 64.53515625 C11.51085555 67.05770418 6.15800485 67.9135948 1.015625 66.45703125 C-0.72265625 65.09765625 -0.72265625 65.09765625 -1.33203125 62.49609375 C-1.3784375 61.49835938 -1.42484375 60.500625 -1.47265625 59.47265625 C-1.529375 58.46976562 -1.58609375 57.466875 -1.64453125 56.43359375 C-1.6703125 55.66273438 -1.69609375 54.891875 -1.72265625 54.09765625 C1.27734375 53.09765625 1.27734375 53.09765625 3.77734375 53.72265625 C6.27728286 54.38651926 6.27728286 54.38651926 8.02734375 52.91015625 C9.48698632 50.79367453 9.94783437 49.66053675 10.27734375 47.09765625 C9.72143333 44.6390119 9.0935646 42.33708101 8.328125 39.9453125 C8.1142363 39.24933456 7.9003476 38.55335663 7.67997742 37.83628845 C6.99273878 35.60784572 6.29158609 33.38406916 5.58984375 31.16015625 C5.13643752 29.69885664 4.68395445 28.23727027 4.23242188 26.77539062 C3.34734345 23.91511882 2.45686043 21.05663091 1.56103516 18.19970703 C-0.22356708 12.50621607 -1.97306173 6.80199228 -3.72265625 1.09765625 C-2.72265625 0.09765625 -2.72265625 0.09765625 0 0 Z " fill="#A7CC3F" transform="translate(328.72265625,237.90234375)"/>
<path d="M0 0 C3.9389359 3.15349332 5.58007135 5.50449499 6.15063477 10.57080078 C6.20405029 11.26931152 6.25746582 11.96782227 6.3125 12.6875 C6.38460693 13.42210449 6.45671387 14.15670898 6.53100586 14.91357422 C7.08629448 21.21839985 7.15044385 27.52140473 7.01489258 33.84643555 C6.92538697 38.36051909 7.24578768 42.54488535 8 47 C4.04 47 0.08 47 -4 47 C-4.33 46.34 -4.66 45.68 -5 45 C-5.99 45.495 -6.98 45.99 -8 46.5 C-12.25204621 48.30389839 -15.39276325 48.43878445 -20 48 C-23.5 46.5 -23.5 46.5 -26 45 C-26 44.34 -26 43.68 -26 43 C-26.66 43 -27.32 43 -28 43 C-30.62703324 37.91012309 -31.01716498 32.48839802 -29.41796875 27.00390625 C-27.2598147 22.42152437 -24.22808286 20.57700968 -19.59375 18.77734375 C-15.13204602 17.44017644 -10.60607917 16.65432153 -6 16 C-6.495 13.525 -6.495 13.525 -7 11 C-9.97 11 -12.94 11 -16 11 C-16.66 12.32 -17.32 13.64 -18 15 C-25.42857143 14 -25.42857143 14 -29 13 C-28.67 10.69 -28.34 8.38 -28 6 C-27.34 6 -26.68 6 -26 6 C-25.7525 5.401875 -25.505 4.80375 -25.25 4.1875 C-23.38747592 0.92808286 -21.33431599 -0.59229234 -17.75 -1.6875 C-11.4102252 -2.40792895 -5.99105572 -2.37381453 0 0 Z M-18 30 C-18.41717279 32.41537838 -18.41717279 32.41537838 -18 35 C-16.48105194 37.09764165 -16.48105194 37.09764165 -14 38 C-9.78004448 37.1560089 -8.42376517 36.63564775 -6 33 C-5.92094936 30.66800612 -5.91201231 28.33167378 -6 26 C-10.51875761 25.60128609 -14.69569724 26.69569724 -18 30 Z " fill="#323494" transform="translate(201,239)"/>
<path d="M0 0 C4.44792813 4.48680862 4.55380228 9.33769924 4.6484375 15.3984375 C4.66780365 16.16822433 4.6871698 16.93801117 4.7071228 17.73112488 C4.76663123 20.17610796 4.81318795 22.62113887 4.859375 25.06640625 C4.89758131 26.72983759 4.93663457 28.39324972 4.9765625 30.05664062 C5.07230883 34.12223866 5.15644509 38.18792926 5.234375 42.25390625 C5.894375 42.25390625 6.554375 42.25390625 7.234375 42.25390625 C7.234375 43.57390625 7.234375 44.89390625 7.234375 46.25390625 C3.88996823 46.84109217 0.63498185 47.3125374 -2.765625 47.25390625 C-5.390625 45.31640625 -5.390625 45.31640625 -6.765625 43.25390625 C-7.755625 43.91390625 -8.745625 44.57390625 -9.765625 45.25390625 C-14.02077989 47.67434861 -16.91114868 47.80199229 -21.765625 47.25390625 C-25.92307741 45.45864271 -28.24386532 42.97923305 -30.765625 39.25390625 C-31.296875 36.09765625 -31.296875 36.09765625 -31.265625 32.75390625 C-31.28109375 31.09875 -31.28109375 31.09875 -31.296875 29.41015625 C-30.65460022 25.59428846 -29.46385372 23.98562362 -26.765625 21.25390625 C-20.92972197 17.19574679 -13.8079304 15.25390625 -6.765625 15.25390625 C-7.425625 13.60390625 -8.085625 11.95390625 -8.765625 10.25390625 C-11.405625 10.25390625 -14.045625 10.25390625 -16.765625 10.25390625 C-17.425625 11.57390625 -18.085625 12.89390625 -18.765625 14.25390625 C-26.390625 13.37890625 -26.390625 13.37890625 -29.765625 12.25390625 C-29.015625 5.62890625 -29.015625 5.62890625 -26.765625 2.25390625 C-26.105625 2.25390625 -25.445625 2.25390625 -24.765625 2.25390625 C-24.765625 1.59390625 -24.765625 0.93390625 -24.765625 0.25390625 C-17.085876 -3.25853709 -7.45333772 -4.70570898 0 0 Z M-12.203125 25.62890625 C-13.00621094 25.88414062 -13.80929687 26.139375 -14.63671875 26.40234375 C-16.93309199 27.15876038 -16.93309199 27.15876038 -18.765625 29.25390625 C-18.93243609 32.33738451 -18.93243609 32.33738451 -18.765625 35.25390625 C-16.54785878 36.55905361 -16.54785878 36.55905361 -13.765625 37.25390625 C-10.53228093 35.97560743 -9.13874884 34.92908273 -7.453125 31.87890625 C-6.75509988 29.21371942 -6.60895328 26.99566139 -6.765625 24.25390625 C-8.64778855 24.25390625 -10.4288504 25.0554607 -12.203125 25.62890625 Z " fill="#A9CD44" transform="translate(399.765625,239.74609375)"/>
<path d="M0 0 C1.97909398 -0.02686553 3.95828971 -0.04633375 5.9375 -0.0625 C7.03964844 -0.07410156 8.14179688 -0.08570313 9.27734375 -0.09765625 C12 0 12 0 13 1 C13.11390966 4.03497461 13.16420575 7.04624658 13.16796875 10.08203125 C13.17296135 11.4688636 13.17296135 11.4688636 13.17805481 12.88371277 C13.18313323 14.85175071 13.18546286 16.81979731 13.18530273 18.7878418 C13.1874631 21.76170732 13.20553545 24.73518589 13.22460938 27.70898438 C13.30256864 52.03778773 13.30256864 52.03778773 9.1953125 59.10546875 C8.51210937 59.79253906 7.82890625 60.47960937 7.125 61.1875 C6.10792969 62.26064453 6.10792969 62.26064453 5.0703125 63.35546875 C0.74535204 66.79095621 -4.69361233 66.5100575 -10 66 C-14.03033313 64.8783142 -17.24456596 63.18405712 -20 60 C-22.62980344 54.93144722 -23.60360177 49.64867477 -24 44 C-22.18884044 42.18884044 -19.38721773 42.61800552 -16.9375 42.4375 C-15.83277344 42.35371094 -14.72804687 42.26992188 -13.58984375 42.18359375 C-12.73519531 42.12300781 -11.88054687 42.06242187 -11 42 C-10.87625 43.093125 -10.7525 44.18625 -10.625 45.3125 C-10.24535199 49.07381802 -10.24535199 49.07381802 -8 52 C-5.41619823 52.25030977 -5.41619823 52.25030977 -3 52 C-1.47343123 48.58125127 -0.74161341 45.85642941 -0.68115234 42.11791992 C-0.66128265 41.17732224 -0.64141296 40.23672455 -0.62094116 39.2676239 C-0.60938995 38.2653627 -0.59783875 37.2631015 -0.5859375 36.23046875 C-0.56657135 35.19432938 -0.5472052 34.15819 -0.5272522 33.09065247 C-0.46759643 29.78968471 -0.42112669 26.48868181 -0.375 23.1875 C-0.33680737 20.94594855 -0.29775489 18.70441158 -0.2578125 16.46289062 C-0.16190642 10.97538914 -0.07681801 5.48780009 0 0 Z " fill="#333591" transform="translate(152,221)"/>
<path d="M0 0 C0.70125 0.28875 1.4025 0.5775 2.125 0.875 C5.05452503 2.02133588 8.00921653 3.02625654 11 4 C11.71564815 8.69147122 12.2520747 12.36732362 11 17 C10.7215625 18.3921875 10.7215625 18.3921875 10.4375 19.8125 C10.293125 20.534375 10.14875 21.25625 10 22 C6.6165748 22.74270309 4.127359 23.021627 0.6875 22.4375 C-4.57233799 21.81345142 -9.12864718 23.09021238 -14.1328125 24.67578125 C-14.74898437 24.78277344 -15.36515625 24.88976562 -16 25 C-19.08796693 22.61785409 -20.29205828 20.77568919 -21 17 C-21.6468426 15.6569375 -22.31138883 14.32213345 -23 13 C-24.12027588 13.00785522 -24.12027588 13.00785522 -25.26318359 13.01586914 C-28.63378057 13.03660401 -32.00436414 13.04964899 -35.375 13.0625 C-37.1384375 13.07506836 -37.1384375 13.07506836 -38.9375 13.08789062 C-40.61972656 13.09272461 -40.61972656 13.09272461 -42.3359375 13.09765625 C-43.89127197 13.10551147 -43.89127197 13.10551147 -45.47802734 13.11352539 C-48 13 -48 13 -50 12 C-49.34 8.7 -48.68 5.4 -48 2 C-44 1 -44 1 -42 2 C-42 2.66 -42 3.32 -42 4 C-37.05 4 -32.1 4 -27 4 C-27 3.34 -27 2.68 -27 2 C-23.94194999 1.92888256 -21.24211001 1.944975 -18.25 2.625 C-17.13625 2.810625 -17.13625 2.810625 -16 3 C-15.34 2.34 -14.68 1.68 -14 1 C-11.62870135 1.32707568 -9.70428981 2.12567683 -7.5 3.0625 C-4.82078074 4.23408229 -4.82078074 4.23408229 -1 4 C-0.67 2.68 -0.34 1.36 0 0 Z M-23 3 C-22 6 -22 6 -22 6 Z M7 18 C8 21 8 21 8 21 Z " fill="#798186" transform="translate(111,285)"/>
<path d="M0 0 C1.051875 0.08314453 1.051875 0.08314453 2.125 0.16796875 C4 0.8125 4 0.8125 5.3359375 2.53515625 C6.2087055 5.52823709 5.62629053 7.13565075 4.625 10.0625 C4.32851563 10.95453125 4.03203125 11.8465625 3.7265625 12.765625 C3.36691406 13.77882812 3.36691406 13.77882812 3 14.8125 C0.36 14.4825 -2.28 14.1525 -5 13.8125 C-8.83303242 20.6461905 -8.55165767 27.56132387 -8.6875 35.25 C-8.72166016 36.55388672 -8.75582031 37.85777344 -8.79101562 39.20117188 C-8.87315615 42.40465226 -8.93826298 45.60856146 -9 48.8125 C-12.96 48.8125 -16.92 48.8125 -21 48.8125 C-21 32.9725 -21 17.1325 -21 0.8125 C-16.05 0.8125 -11.1 0.8125 -6 0.8125 C-3.66311842 -0.35594079 -2.5698245 -0.25036893 0 0 Z " fill="#A8CB40" transform="translate(433,237.1875)"/>
<path d="M0 0 C0.66 0 1.32 0 2 0 C2.04635853 7.88431428 2.08188702 15.76857152 2.10362434 23.65298843 C2.11405763 27.31411812 2.12820844 30.97515449 2.15087891 34.63623047 C2.17262364 38.16995917 2.18457205 41.70359816 2.18975449 45.23738861 C2.19524344 47.24042217 2.21085381 49.24341969 2.22659302 51.24639893 C2.22674408 52.46736267 2.22689514 53.68832642 2.22705078 54.94628906 C2.231492 56.02106506 2.23593323 57.09584106 2.24050903 58.20318604 C2.00081863 60.99048039 1.43995607 62.63129165 0 65 C-0.99 64.67 -1.98 64.34 -3 64 C-3 63.34 -3 62.68 -3 62 C-3.99 61.67 -4.98 61.34 -6 61 C-6.01030746 60.43481155 -6.02061493 59.86962311 -6.03123474 59.28730774 C-6.13951448 53.39853855 -6.25409463 47.50991574 -6.37231445 41.62133789 C-6.41559452 39.42442898 -6.45727445 37.22748793 -6.49731445 35.03051758 C-6.55518487 31.87050701 -6.61883107 28.71065716 -6.68359375 25.55078125 C-6.70030624 24.57039383 -6.71701874 23.59000641 -6.73423767 22.57991028 C-6.75418289 21.65933334 -6.77412811 20.73875641 -6.79467773 19.7902832 C-6.81022202 18.9842012 -6.8257663 18.1781192 -6.84178162 17.34761047 C-7.01142255 14.83051467 -7.45520451 12.46092213 -8 10 C-8.99 9.67 -9.98 9.34 -11 9 C-10.29875 8.62875 -9.5975 8.2575 -8.875 7.875 C-6.44164644 6.28803029 -4.79739542 4.87542571 -2.8125 2.8125 C-1.884375 1.884375 -0.95625 0.95625 0 0 Z " fill="#AACB20" transform="translate(121,190)"/>
<path d="M0 0 C0.93118766 17.68018276 1.12312964 35.29964106 1 53 C-0.11375 52.7215625 -0.11375 52.7215625 -1.25 52.4375 C-4.22840916 51.77947289 -4.22840916 51.77947289 -8 53 C-8 37.16 -8 21.32 -8 5 C-7.34 5 -6.68 5 -6 5 C-6 4.34 -6 3.68 -6 3 C-5.34 3 -4.68 3 -4 3 C-4 2.34 -4 1.68 -4 1 C-2 0 -2 0 0 0 Z " fill="#2B2F85" transform="translate(112,200)"/>
<path d="M0 0 C-2.31 0.33 -4.62 0.66 -7 1 C-6.81584568 3.94091587 -6.81584568 3.94091587 -6 7 C-4.04836882 8.43637698 -4.04836882 8.43637698 -2 9 C-3.98 9.99 -5.96 10.98 -8 12 C-8 13.65 -8 15.3 -8 17 C-4.48966871 18.68630119 -4.48966871 18.68630119 -0.6875 18.625 C0.1478125 18.315625 0.1478125 18.315625 1 18 C1 18.66 1 19.32 1 20 C0.01 20 -0.98 20 -2 20 C-2.2165625 21.1446875 -2.2165625 21.1446875 -2.4375 22.3125 C-3 25 -3 25 -4 28 C-3.01 28 -2.02 28 -1 28 C-0.67 27.01 -0.34 26.02 0 25 C1.65 24.67 3.3 24.34 5 24 C4.375 25.875 4.375 25.875 3 28 C-1.50906933 30.14717587 -6.08246243 30.67323431 -11 30 C-14.5 28.5 -14.5 28.5 -17 27 C-17 26.34 -17 25.68 -17 25 C-17.66 25 -18.32 25 -19 25 C-21.62703324 19.91012309 -22.01716498 14.48839802 -20.41796875 9.00390625 C-18.18361736 4.2597355 -14.9773808 2.54891991 -10.18359375 0.71484375 C-3.96389892 -1.32129964 -3.96389892 -1.32129964 0 0 Z " fill="#43469B" transform="translate(192,257)"/>
<path d="M0 0 C2.96490298 2.96490298 3.12842136 5.55339937 3.20532227 9.56323242 C3.22526749 10.48396042 3.24521271 11.40468842 3.26576233 12.35331726 C3.28247482 13.34402725 3.29918732 14.33473724 3.31640625 15.35546875 C3.33718735 16.37224197 3.35796844 17.3890152 3.37937927 18.43659973 C3.44480048 21.68683063 3.50372537 24.93714277 3.5625 28.1875 C3.60569227 30.38998238 3.64930679 32.59245653 3.69335938 34.79492188 C3.80047427 40.19652853 3.90225457 45.59821612 4 51 C4.99 51 5.98 51 7 51 C7.66 52.32 8.32 53.64 9 55 C9 54.34 9 53.68 9 53 C10.485 53.495 10.485 53.495 12 54 C11.34 54.99 10.68 55.98 10 57 C9.89870547 58.96497504 9.89870547 58.96497504 10.25 61 C10.33765625 61.680625 10.4253125 62.36125 10.515625 63.0625 C10.9611111 65.30603109 10.9611111 65.30603109 13 68 C12.62068453 71.03452373 11.74959319 72.37561021 10 75 C9.60612212 77.32387947 9.26513915 79.65793749 9 82 C6.69 82 4.38 82 2 82 C2 81.67 2 81.34 2 81 C3.98 81 5.96 81 8 81 C7.67 78.36 7.34 75.72 7 73 C6.01 73 5.02 73 4 73 C3.67 73.99 3.34 74.98 3 76 C2.67 75.34 2.34 74.68 2 74 C2.9375 71.375 2.9375 71.375 4 69 C3.67 68.67 3.34 68.34 3 68 C2.95936168 66.33382885 2.957279 64.66611905 3 63 C2.236875 63 1.47375 63 0.6875 63 C-2.875 63 -6.4375 63 -10 63 C-8.02 62.505 -8.02 62.505 -6 62 C-6 61.34 -6 60.68 -6 60 C-5.01 60 -4.02 60 -3 60 C-3 59.34 -3 58.68 -3 58 C-4.485 58.495 -4.485 58.495 -6 59 C-6.66 58.67 -7.32 58.34 -8 58 C-8 57.01 -8 56.02 -8 55 C-1.25 54 -1.25 54 1 54 C0.96970703 53.18136475 0.93941406 52.36272949 0.90820312 51.51928711 C0.28356051 34.33801153 -0.15337994 17.19559567 0 0 Z " fill="#ABC725" transform="translate(112,200)"/>
<path d="M0 0 C0.77328928 5.35314059 1.07577393 10.35645184 0.87890625 15.78125 C0.85529526 16.48020386 0.83168427 17.17915771 0.80735779 17.89929199 C0.7316769 20.0997858 0.6472516 22.29983885 0.5625 24.5 C0.50918316 26.00518781 0.4564437 27.5103962 0.40429688 29.015625 C0.27619434 32.67734463 0.14025565 36.33872338 0 40 C-0.33 40 -0.66 40 -1 40 C-1.33 42.31 -1.66 44.62 -2 47 C-4.31 46.67 -6.62 46.34 -9 46 C-9.14872267 40.4133664 -9.25739156 34.82789361 -9.32958984 29.23974609 C-9.35969624 27.34045328 -9.40059188 25.44129876 -9.45263672 23.54248047 C-9.52572679 20.80661877 -9.55951645 18.07259997 -9.5859375 15.3359375 C-9.61690521 14.49195404 -9.64787292 13.64797058 -9.67977905 12.77841187 C-9.68231137 8.30605514 -9.28739564 5.73537485 -6.15087891 2.41650391 C-3 0 -3 0 0 0 Z " fill="#ABCD20" transform="translate(103,208)"/>
<path d="M0 0 C2.0625 2.6875 2.0625 2.6875 2.375 5.5 C2.271875 6.221875 2.16875 6.94375 2.0625 7.6875 C0.0825 7.3575 -1.8975 7.0275 -3.9375 6.6875 C-4.2675 7.6775 -4.5975 8.6675 -4.9375 9.6875 C-5.5975 9.6875 -6.2575 9.6875 -6.9375 9.6875 C-7.2675 11.3375 -7.5975 12.9875 -7.9375 14.6875 C-9.2575 14.3575 -10.5775 14.0275 -11.9375 13.6875 C-10.9475 13.6875 -9.9575 13.6875 -8.9375 13.6875 C-9.4325 11.2125 -9.4325 11.2125 -9.9375 8.6875 C-12.9075 8.6875 -15.8775 8.6875 -18.9375 8.6875 C-19.5975 10.0075 -20.2575 11.3275 -20.9375 12.6875 C-28.36607143 11.6875 -28.36607143 11.6875 -31.9375 10.6875 C-31.6075 8.3775 -31.2775 6.0675 -30.9375 3.6875 C-30.2775 3.6875 -29.6175 3.6875 -28.9375 3.6875 C-28.69 3.089375 -28.4425 2.49125 -28.1875 1.875 C-26.32497592 -1.38441714 -24.27181599 -2.90479234 -20.6875 -4 C-13.07719249 -4.86480767 -6.26108947 -4.92894278 0 0 Z " fill="#353792" transform="translate(203.9375,241.3125)"/>
<path d="M0 0 C0 0.66 0 1.32 0 2 C4.95 2 9.9 2 15 2 C15 1.34 15 0.68 15 0 C18.05805001 -0.07111744 20.75788999 -0.055025 23.75 0.625 C24.86375 0.810625 24.86375 0.810625 26 1 C26.66 0.34 27.32 -0.32 28 -1 C28.99 -1 29.98 -1 31 -1 C32.37432457 2.81756824 31.67975039 6.07255329 31 10 C30.34 10 29.68 10 29 10 C29 8.68 29 7.36 29 6 C28.01 6 27.02 6 26 6 C25.67 7.65 25.34 9.3 25 11 C24.34 10.34 23.68 9.68 23 9 C23.375 6.875 23.375 6.875 24 5 C23.01 5.495 23.01 5.495 22 6 C22 6.99 22 7.98 22 9 C15.10279303 10.4630439 8.41150379 11.19387364 1.375 11.1875 C0.32699219 11.1884668 0.32699219 11.1884668 -0.7421875 11.18945312 C-5.72907759 11.1354612 -5.72907759 11.1354612 -8 10 C-7.71890887 8.35232753 -7.42481474 6.70686855 -7.125 5.0625 C-6.96257813 4.14597656 -6.80015625 3.22945313 -6.6328125 2.28515625 C-6.42398438 1.53105469 -6.21515625 0.77695312 -6 0 C-3.50907189 -1.24546405 -2.58919267 -0.7767578 0 0 Z M19 1 C20 4 20 4 20 4 Z " fill="#5B67A1" transform="translate(69,287)"/>
<path d="M0 0 C0 2.97 0 5.94 0 9 C-0.66 9.33 -1.32 9.66 -2 10 C-2.99 9.67 -3.98 9.34 -5 9 C-5.33 9.66 -5.66 10.32 -6 11 C-6.70382813 10.83757812 -7.40765625 10.67515625 -8.1328125 10.5078125 C-14.29471105 9.41646807 -20.90205554 9.52163681 -27.0625 10.625 C-30 11 -30 11 -33 9 C-33.29296875 6.8359375 -33.29296875 6.8359375 -33.1875 4.375 C-33.16042969 3.55773437 -33.13335937 2.74046875 -33.10546875 1.8984375 C-33.05326172 0.95871094 -33.05326172 0.95871094 -33 0 C-28.62196815 -0.16750929 -24.24375401 -0.32807935 -19.86523438 -0.48217773 C-18.37525558 -0.53560003 -16.88534391 -0.59092962 -15.39550781 -0.64819336 C-13.25600663 -0.73009836 -11.11635907 -0.80517709 -8.9765625 -0.87890625 C-7.04417725 -0.94960327 -7.04417725 -0.94960327 -5.07275391 -1.02172852 C-2 -1 -2 -1 0 0 Z " fill="#A4BD33" transform="translate(94,276)"/>
<path d="M0 0 C0.33 0.99 0.66 1.98 1 3 C1.99 3.33 2.98 3.66 4 4 C2.02 4.33 0.04 4.66 -2 5 C-1.34 7.97 -0.68 10.94 0 14 C2.31 14.66 4.62 15.32 7 16 C6.34 17.32 5.68 18.64 5 20 C5.66 20.33 6.32 20.66 7 21 C7 21.66 7 22.32 7 23 C3.07979559 24.96010221 -1.71611576 24.3528633 -6 24 C-9.74030185 22.39701349 -10.73158465 21.40262302 -13 18 C-13.265625 14.96875 -13.265625 14.96875 -13.25 11.5 C-13.25773437 9.78296875 -13.25773437 9.78296875 -13.265625 8.03125 C-13 5 -13 5 -11 2 C-7.25867056 0.02540946 -4.19058012 -0.1949107 0 0 Z " fill="#A6CB3A" transform="translate(382,261)"/>
<path d="M0 0 C0 0.66 0 1.32 0 2 C0.66 2 1.32 2 2 2 C3.1687481 5.5062443 3.12514267 8.6477866 3.09765625 12.29296875 C3.0962413 12.99899734 3.09482635 13.70502594 3.09336853 14.43244934 C3.08777764 16.68417626 3.07522688 18.93580321 3.0625 21.1875 C3.05748382 22.71549335 3.05292112 24.24348827 3.04882812 25.77148438 C3.0378112 29.51436135 3.02055287 33.25716373 3 37 C0.36 37 -2.28 37 -5 37 C-5.01981934 36.20303711 -5.03963867 35.40607422 -5.06005859 34.58496094 C-5.15533248 30.97297528 -5.26500307 27.36156601 -5.375 23.75 C-5.4059375 22.49574219 -5.436875 21.24148438 -5.46875 19.94921875 C-5.50742187 18.74394531 -5.54609375 17.53867187 -5.5859375 16.296875 C-5.6173584 15.18666992 -5.6487793 14.07646484 -5.68115234 12.93261719 C-5.99388298 10.05626155 -6.68155321 8.51264897 -8 6 C-8 4.68 -8 3.36 -8 2 C-5.09399739 0.74335022 -3.20395416 0 0 0 Z " fill="#2C2E92" transform="translate(268,247)"/>
<path d="M0 0 C3.96 0 7.92 0 12 0 C13.03325529 3.24651807 14.05192026 6.49642621 15.0625 9.75 C15.35705078 10.67039063 15.65160156 11.59078125 15.95507812 12.5390625 C16.22900391 13.42851562 16.50292969 14.31796875 16.78515625 15.234375 C17.04176025 16.05131836 17.29836426 16.86826172 17.56274414 17.70996094 C18.03411697 20.17868071 17.79786936 21.6419054 17 24 C16.67 22.68 16.34 21.36 16 20 C15.01 20 14.02 20 13 20 C12.34 21.98 11.68 23.96 11 26 C10.67 26 10.34 26 10 26 C9.67 27.65 9.34 29.3 9 31 C6.19044139 25.74724483 4.62784807 20.02697376 2.8125 14.375 C2.24112305 12.63863281 2.24112305 12.63863281 1.65820312 10.8671875 C1.30306641 9.76375 0.94792969 8.6603125 0.58203125 7.5234375 C0.25436768 6.51200684 -0.0732959 5.50057617 -0.41088867 4.45849609 C-1 2 -1 2 0 0 Z " fill="#A9CC44" transform="translate(326,238)"/>
<path d="M0 0 C3.96 0 7.92 0 12 0 C12.65104167 2.27864583 13.30208333 4.55729167 13.953125 6.8359375 C15.2214892 9.45785454 16.32423308 9.99382318 19 11 C18.34 11 17.68 11 17 11 C16.87625 11.639375 16.7525 12.27875 16.625 12.9375 C16.41875 13.618125 16.2125 14.29875 16 15 C15.01 15.495 15.01 15.495 14 16 C14.33 16.99 14.66 17.98 15 19 C14.67 19.99 14.34 20.98 14 22 C20.27 22 26.54 22 33 22 C26.70459839 25.14770081 19.36660441 25.04587821 12.625 22.9375 C7.49563076 20.6447466 4.26142248 16.77988955 1.96484375 11.71875 C0.44526129 7.47805477 0 4.62789153 0 0 Z " fill="#B1D058" transform="translate(278,263)"/>
<path d="M0 0 C1.74506836 0.07250977 1.74506836 0.07250977 3.52539062 0.14648438 C5.34780273 0.2305957 5.34780273 0.2305957 7.20703125 0.31640625 C8.43357422 0.36861328 9.66011719 0.42082031 10.92382812 0.47460938 C13.95598143 0.60439026 16.98781419 0.73936056 20.01953125 0.87890625 C20.01953125 4.17890625 20.01953125 7.47890625 20.01953125 10.87890625 C10.44953125 10.87890625 0.87953125 10.87890625 -8.98046875 10.87890625 C-10.21186275 7.18472424 -9.62479639 4.67328015 -8.98046875 0.87890625 C-5.67694976 -0.22226675 -3.46659703 -0.15219206 0 0 Z " fill="#2C3175" transform="translate(70.98046875,265.12109375)"/>
<path d="M0 0 C10.23 0 20.46 0 31 0 C31 2.64 31 5.28 31 8 C28.43759545 10.56240455 21.25701778 9.18558105 17.8125 9.1875 C16.67490234 9.19974609 15.53730469 9.21199219 14.36523438 9.22460938 C12.70911133 9.22750977 12.70911133 9.22750977 11.01953125 9.23046875 C10.00995361 9.23457764 9.00037598 9.23868652 7.96020508 9.24291992 C4.71570691 8.97667038 2.0382894 8.14130216 -1 7 C-0.67 4.69 -0.34 2.38 0 0 Z " fill="#ACCC22" transform="translate(63,256)"/>
<path d="M0 0 C4.77898885 -0.08533909 9.15987112 0.164907 13.90234375 0.84375 C17.64345574 1.12241756 21.30367424 0.55616013 25 0 C25 0.66 25 1.32 25 2 C25.99 1.67 26.98 1.34 28 1 C30.1875 1.9375 30.1875 1.9375 32 3 C31.67 4.65 31.34 6.3 31 8 C27.6165748 8.74270309 25.127359 9.021627 21.6875 8.4375 C16.42342784 7.81294907 11.8808396 9.10303529 6.8671875 10.6640625 C5 11 5 11 2.8125 9.5 C0.53045312 6.35234913 0.29464061 3.83032799 0 0 Z M28 4 C29 7 29 7 29 7 Z " fill="#B7C055" transform="translate(90,299)"/>
<path d="M0 0 C3.96 0 7.92 0 12 0 C14.16889212 2.16889212 13.16429506 7.24229137 13.16796875 10.2578125 C13.17129715 11.19422577 13.17462555 12.13063904 13.17805481 13.09542847 C13.18313068 15.0844473 13.18546293 17.07347469 13.18530273 19.0625 C13.18747582 22.09129158 13.20558719 25.1197111 13.22460938 28.1484375 C13.22754593 30.08072792 13.22952897 32.01302007 13.23046875 33.9453125 C13.23765427 34.84661896 13.24483978 35.74792542 13.25224304 36.67654419 C13.23369564 41.84377016 12.67979951 46.1058207 11 51 C10.67 51 10.34 51 10 51 C10 34.5 10 18 10 1 C7.03 1 4.06 1 1 1 C1 16.18 1 31.36 1 47 C0.67 47 0.34 47 0 47 C0 31.49 0 15.98 0 0 Z " fill="#6A6AA7" transform="translate(152,221)"/>
<path d="M0 0 C0.79664063 0.07863281 1.59328125 0.15726563 2.4140625 0.23828125 C3.38472656 0.46064453 3.38472656 0.46064453 4.375 0.6875 C4.705 1.3475 5.035 2.0075 5.375 2.6875 C4.385 2.6875 3.395 2.6875 2.375 2.6875 C2.375 3.6775 2.375 4.6675 2.375 5.6875 C1.575 11.2875 1.575 11.2875 0.375 13.6875 C0.21855828 16.23856029 0.11678611 18.76668663 0.05859375 21.3203125 C0.03781265 22.07214813 0.01703156 22.82398376 -0.00437927 23.59860229 C-0.06982705 26.00314085 -0.12873738 28.40778967 -0.1875 30.8125 C-0.23068977 32.44141771 -0.27430421 34.07032422 -0.31835938 35.69921875 C-0.42550351 39.69519915 -0.52678433 43.69129059 -0.625 47.6875 C-0.955 47.6875 -1.285 47.6875 -1.625 47.6875 C-2.12 30.3625 -2.12 30.3625 -2.625 12.6875 C-5.265 12.6875 -7.905 12.6875 -10.625 12.6875 C-10.955 13.3475 -11.285 14.0075 -11.625 14.6875 C-12.285 13.0375 -12.945 11.3875 -13.625 9.6875 C-9.995 10.0175 -6.365 10.3475 -2.625 10.6875 C-2.625 10.0275 -2.625 9.3675 -2.625 8.6875 C-3.40875 8.543125 -4.1925 8.39875 -5 8.25 C-7.625 7.6875 -7.625 7.6875 -9.625 6.6875 C-9.955 6.0275 -10.285 5.3675 -10.625 4.6875 C-11.615 5.3475 -12.605 6.0075 -13.625 6.6875 C-13.625 5.0375 -13.625 3.3875 -13.625 1.6875 C-12.696875 1.543125 -11.76875 1.39875 -10.8125 1.25 C-2.30430225 -0.25144666 -2.30430225 -0.25144666 0 0 Z " fill="#5E60A5" transform="translate(238.625,237.3125)"/>
<path d="M0 0 C0.66 0 1.32 0 2 0 C2 4.95 2 9.9 2 15 C0.02 15.99 0.02 15.99 -2 17 C-1.67 27.23 -1.34 37.46 -1 48 C-2.485 48.495 -2.485 48.495 -4 49 C-4 34.15 -4 19.3 -4 4 C-3.34 4 -2.68 4 -2 4 C-2 3.34 -2 2.68 -2 2 C-1.34 2 -0.68 2 0 2 C0 1.34 0 0.68 0 0 Z " fill="#383A7C" transform="translate(108,201)"/>
<path d="M0 0 C0.33 0.99 0.66 1.98 1 3 C1.66 3 2.32 3 3 3 C3.0246519 7.82380802 3.04283693 12.64757967 3.05493164 17.47143555 C3.05997174 19.11369464 3.06680378 20.75594923 3.07543945 22.39819336 C3.08751926 24.75375479 3.09323139 27.10925709 3.09765625 29.46484375 C3.10281754 30.20339096 3.10797882 30.94193817 3.11329651 31.7028656 C3.1134925 33.46898088 3.06194719 35.23497146 3 37 C2 38 2 38 -0.50390625 38.09765625 C-1.51324219 38.08605469 -2.52257812 38.07445312 -3.5625 38.0625 C-4.57441406 38.05347656 -5.58632813 38.04445313 -6.62890625 38.03515625 C-7.41136719 38.02355469 -8.19382812 38.01195312 -9 38 C-9.04946866 33.92492428 -9.08575189 29.84996503 -9.10986328 25.7746582 C-9.1199157 24.38855952 -9.1335597 23.00248201 -9.15087891 21.61645508 C-9.17515952 19.6233025 -9.18542031 17.62999467 -9.1953125 15.63671875 C-9.20578613 14.43748779 -9.21625977 13.23825684 -9.22705078 12.00268555 C-9 9 -9 9 -7 6 C-7 15.9 -7 25.8 -7 36 C-4.36 36 -1.72 36 1 36 C0.67 24.12 0.34 12.24 0 0 Z " fill="#595C99" transform="translate(270,248)"/>
<path d="M0 0 C2.96490298 2.96490298 3.12842136 5.55339937 3.20532227 9.56323242 C3.22526749 10.48396042 3.24521271 11.40468842 3.26576233 12.35331726 C3.29083107 13.83938225 3.29083107 13.83938225 3.31640625 15.35546875 C3.33718735 16.37224197 3.35796844 17.3890152 3.37937927 18.43659973 C3.44480048 21.68683063 3.50372537 24.93714277 3.5625 28.1875 C3.60569227 30.38998238 3.64930679 32.59245653 3.69335938 34.79492188 C3.80047427 40.19652853 3.90225457 45.59821612 4 51 C4.99 51 5.98 51 7 51 C7.33 51.99 7.66 52.98 8 54 C6.35 54.66 4.7 55.32 3 56 C0.69333059 52.53999588 0.70339638 51.04551272 0.5859375 46.953125 C0.52780884 45.11161865 0.52780884 45.11161865 0.46850586 43.23291016 C0.43764893 41.9185498 0.40679199 40.60418945 0.375 39.25 C0.33712369 37.90021505 0.29879036 36.55044286 0.26000977 35.20068359 C-0.05903887 23.46757152 -0.10376094 11.73651479 0 0 Z " fill="#8BA347" transform="translate(112,200)"/>
<path d="M0 0 C0.33 0.99 0.66 1.98 1 3 C1.99 3.33 2.98 3.66 4 4 C2.02 4.33 0.04 4.66 -2 5 C-1.67 8.63 -1.34 12.26 -1 16 C-1.99 16.66 -2.98 17.32 -4 18 C-4.66 16.35 -5.32 14.7 -6 13 C-6.66 13 -7.32 13 -8 13 C-8.99 13 -9.98 13 -11 13 C-11.16129032 4.61290323 -11.16129032 4.61290323 -10 2 C-6.82026536 -0.35535899 -3.84875379 -0.17494335 0 0 Z " fill="#A4CC37" transform="translate(382,261)"/>
<path d="M0 0 C3.09202435 0.74846895 3.09202435 0.74846895 6.0625 -0.5 C8.25 -0.0625 8.25 -0.0625 10.0625 0.5 C9.375 2.875 9.375 2.875 8.0625 5.5 C6.40433216 6.18753301 4.73790664 6.85561283 3.0625 7.5 C2.17556697 9.54105639 2.17556697 9.54105639 2.0625 11.5 C4.3725 11.5 6.6825 11.5 9.0625 11.5 C9.0625 10.84 9.0625 10.18 9.0625 9.5 C10.3825 9.83 11.7025 10.16 13.0625 10.5 C7.42103945 13.50077689 3.31915429 13.95004005 -2.9375 12.5 C-4.67706658 10.76043342 -4.30940386 8.3063378 -4.5 5.9375 C-4.58378906 4.92558594 -4.66757812 3.91367187 -4.75390625 2.87109375 C-4.81449219 2.08863281 -4.87507813 1.30617188 -4.9375 0.5 C-2.9375 -0.5 -2.9375 -0.5 0 0 Z " fill="#AACD40" transform="translate(331.9375,291.5)"/>
<path d="M0 0 C8.58 0 17.16 0 26 0 C26 1.65 26 3.3 26 5 C20.14472395 5.83646801 14.40557734 6.10922375 8.5 6.125 C7.78134766 6.12951172 7.06269531 6.13402344 6.32226562 6.13867188 C1.1237479 6.1237479 1.1237479 6.1237479 0 5 C0 3.35 0 1.7 0 0 Z " fill="#ACCD22" transform="translate(63,278)"/>
<path d="M0 0 C0 0.66 0 1.32 0 2 C1.65 2 3.3 2 5 2 C5 4.64 5 7.28 5 10 C7.97 10.33 10.94 10.66 14 11 C14 11.33 14 11.66 14 12 C10.65559323 12.58718592 7.40060685 13.05863115 4 13 C1.375 11.0625 1.375 11.0625 0 9 C-0.99 9.66 -1.98 10.32 -3 11 C-7.22512878 13.41680794 -10.18135621 13.47396496 -15 13 C-17.5 12 -17.5 12 -19 11 C-16.11584117 9.55792059 -13.58278472 9.90605113 -10.375 9.9375 C-9.18648438 9.94652344 -7.99796875 9.95554687 -6.7734375 9.96484375 C-5.85820312 9.97644531 -4.94296875 9.98804688 -4 10 C-4 9.34 -4 8.68 -4 8 C-5.32 7.67 -6.64 7.34 -8 7 C-7.01 6.01 -6.02 5.02 -5 4 C-5.66 3.34 -6.32 2.68 -7 2 C-4.35261084 0.5393715 -3.10551666 0 0 0 Z " fill="#A4CA3A" transform="translate(393,274)"/>
<path d="M0 0 C-0.556875 0.226875 -1.11375 0.45375 -1.6875 0.6875 C-4.22215457 1.98466965 -4.22215457 1.98466965 -6.5625 4.625 C-9.66095132 7.64400385 -10.84310139 7 -15 7 C-15.33 7.66 -15.66 8.32 -16 9 C-16.99 9 -17.98 9 -19 9 C-19 10.65 -19 12.3 -19 14 C-17.35 14.33 -15.7 14.66 -14 15 C-13.67 13.68 -13.34 12.36 -13 11 C-8.74433453 9.83936396 -5.3164922 10.23826608 -1 11 C-1 11.33 -1 11.66 -1 12 C-2.670625 12.12375 -2.670625 12.12375 -4.375 12.25 C-8.05753944 12.57873787 -8.05753944 12.57873787 -9.4375 15.0625 C-9.623125 15.701875 -9.80875 16.34125 -10 17 C-17.625 16.125 -17.625 16.125 -21 15 C-20.25 8.375 -20.25 8.375 -18 5 C-17.34 5 -16.68 5 -16 5 C-16 4.34 -16 3.68 -16 3 C-10.47239641 0.89424625 -5.93002267 -0.37851209 0 0 Z " fill="#BBD371" transform="translate(391,237)"/>
<path d="M0 0 C2.86724686 0.57344937 3.8614515 0.8614515 6 3 C6.66 3 7.32 3 8 3 C9.27798935 7.71258572 10 11.04265048 10 16 C6.7 16 3.4 16 0 16 C-1.1373923 11.22295234 -0.59074607 8.57339494 1 4 C0.72359986 1.7124024 0.72359986 1.7124024 0 0 Z " fill="#A5CB3A" transform="translate(310,224)"/>
<path d="M0 0 C0.66 0.66 1.32 1.32 2 2 C2.33 1.34 2.66 0.68 3 0 C3.66 0 4.32 0 5 0 C5 1.32 5 2.64 5 4 C5.99 3.67 6.98 3.34 8 3 C8.33 6.96 8.66 10.92 9 15 C9.99 15 10.98 15 12 15 C12 15.66 12 16.32 12 17 C9.03 17 6.06 17 3 17 C1.84058962 13.52176885 2.29179116 11.54104422 3 8 C1.35 8 -0.3 8 -2 8 C-2 6.02 -2 4.04 -2 2 C-1.34 2 -0.68 2 0 2 C0 1.34 0 0.68 0 0 Z " fill="#A4CA37" transform="translate(395,268)"/>
<path d="M0 0 C0.33 0 0.66 0 1 0 C2.19388403 31.526794 2.19388403 31.526794 2 44 C4.97 44 7.94 44 11 44 C11 34.76 11 25.52 11 16 C11.33 16 11.66 16 12 16 C12 25.9 12 35.8 12 46 C8.04 46 4.08 46 0 46 C-0.95229979 40.5138554 -1.06278653 35.34166969 -0.87890625 29.78515625 C-0.85529526 28.92941513 -0.83168427 28.07367401 -0.80735779 27.19200134 C-0.73131318 24.48197338 -0.64703746 21.77227498 -0.5625 19.0625 C-0.5092199 17.21551045 -0.45648 15.36850524 -0.40429688 13.52148438 C-0.27577909 9.01411765 -0.13988312 4.50702774 0 0 Z " fill="#797BB3" transform="translate(214,240)"/>
<path d="M0 0 C0.33 0.66 0.66 1.32 1 2 C0.01 2 -0.98 2 -2 2 C-2.144375 2.763125 -2.28875 3.52625 -2.4375 4.3125 C-3 7 -3 7 -4 10 C-3.01 10 -2.02 10 -1 10 C-0.67 9.01 -0.34 8.02 0 7 C1.65 6.67 3.3 6.34 5 6 C4.375 7.875 4.375 7.875 3 10 C-1.50906933 12.14717587 -6.08246243 12.67323431 -11 12 C-14.5 10.5 -14.5 10.5 -17 9 C-17 8.34 -17 7.68 -17 7 C-17.66 7 -18.32 7 -19 7 C-19 6.01 -19 5.02 -19 4 C-14.6822542 4.50797009 -10.96697886 5.19682779 -7 7 C-7 5.02 -7 3.04 -7 1 C-3.535 0.505 -3.535 0.505 0 0 Z " fill="#50529E" transform="translate(192,275)"/>
<path d="M0 0 C0.99 0.66 1.98 1.32 3 2 C4.65549531 2.38499891 6.3222433 2.72793135 8 3 C8.33 5.64 8.66 8.28 9 11 C5.7807732 12.0730756 5.09793558 11.79946725 2 11 C1.01 11.495 1.01 11.495 0 12 C-2.01927511 11.39421747 -4.02253397 10.73080266 -6 10 C-5.67 8.02 -5.34 6.04 -5 4 C-3.02 4.495 -3.02 4.495 -1 5 C-1.33 3.68 -1.66 2.36 -2 1 C-1.34 0.67 -0.68 0.34 0 0 Z " fill="#3D3F84" transform="translate(114,286)"/>
<path d="M0 0 C2.97 0 5.94 0 9 0 C9.33 1.98 9.66 3.96 10 6 C8.68 6.33 7.36 6.66 6 7 C6.33 9.31 6.66 11.62 7 14 C1.5 12.56521739 1.5 12.56521739 -0.4375 10.375 C-1.29690052 6.74642005 -0.61127997 3.6676798 0 0 Z " fill="#ACCE44" transform="translate(280,265)"/>
<path d="M0 0 C0.66 0 1.32 0 2 0 C2 0.66 2 1.32 2 2 C2.66 2 3.32 2 4 2 C4.1953125 3.98567708 4.390625 5.97135417 4.5859375 7.95703125 C4.92665391 10.29988142 4.92665391 10.29988142 7 13 C6.625 15.6875 6.625 15.6875 6 18 C-2.57142857 17.14285714 -2.57142857 17.14285714 -6 15 C-5.34 13.35 -4.68 11.7 -4 10 C-2.02 10 -0.04 10 2 10 C1.01 7.03 0.02 4.06 -1 1 C-0.67 0.67 -0.34 0.34 0 0 Z " fill="#393D8F" transform="translate(179,264)"/>
<path d="M0 0 C1.76462683 3.08809695 2 4.23312136 2 8 C1.34 8 0.68 8 0 8 C0.50603992 10.16874252 0.99983813 11.99967627 2 14 C1.01 15.485 1.01 15.485 0 17 C-0.33 16.01 -0.66 15.02 -1 14 C-1.99 14.33 -2.98 14.66 -4 15 C-6.33299825 15.03954234 -8.66708189 15.04401732 -11 15 C-11 12.69 -11 10.38 -11 8 C-7.12315913 6.80712589 -4.08378077 6 0 6 C0 4.02 0 2.04 0 0 Z " fill="#2A2B8C" transform="translate(196,250)"/>
<path d="M0 0 C0.99 0.66 1.98 1.32 3 2 C2.34 2 1.68 2 1 2 C1.33 3.32 1.66 4.64 2 6 C1.071875 6.12375 1.071875 6.12375 0.125 6.25 C-2.18437567 6.81258459 -2.18437567 6.81258459 -3.25 9.0625 C-3.4975 9.701875 -3.745 10.34125 -4 11 C-4 9.35 -4 7.7 -4 6 C-5.65 6.33 -7.3 6.66 -9 7 C-9 9.64 -9 12.28 -9 15 C-13.29 14.67 -17.58 14.34 -22 14 C-22 10.89448334 -21.4606285 9.64738916 -20 7 C-19.34 7 -18.68 7 -18 7 C-18 8.65 -18 10.3 -18 12 C-17.34 12.33 -16.68 12.66 -16 13 C-16 11.35 -16 9.7 -16 8 C-15.01 8 -14.02 8 -13 8 C-13 9.65 -13 11.3 -13 13 C-12.34 13 -11.68 13 -11 13 C-11 9.37 -11 5.74 -11 2 C-10.0925 2.33 -9.185 2.66 -8.25 3 C-4.92954193 4.19605723 -4.92954193 4.19605723 -1 4 C-0.67 2.68 -0.34 1.36 0 0 Z " fill="#6A6C95" transform="translate(111,285)"/>
<path d="M0 0 C0.33 0 0.66 0 1 0 C1 11.55 1 23.1 1 35 C2.65 34.34 4.3 33.68 6 33 C8.3125 34.375 8.3125 34.375 10 36 C5.545 36.495 5.545 36.495 1 37 C1 37.99 1 38.98 1 40 C-0.27875 40.061875 -1.5575 40.12375 -2.875 40.1875 C-3.95394531 40.23970703 -3.95394531 40.23970703 -5.0546875 40.29296875 C-5.69664063 40.19628906 -6.33859375 40.09960938 -7 40 C-7.66 39.01 -8.32 38.02 -9 37 C-6.69 37 -4.38 37 -2 37 C-2 32.71 -2 28.42 -2 24 C-1.67 24 -1.34 24 -1 24 C-0.67 16.08 -0.34 8.16 0 0 Z " fill="#C5D098" transform="translate(103,218)"/>
<path d="M0 0 C0.99 0 1.98 0 3 0 C4.37432457 3.81756824 3.67975039 7.07255329 3 11 C2.34 11 1.68 11 1 11 C1 9.68 1 8.36 1 7 C0.01 7 -0.98 7 -2 7 C-2.33 8.65 -2.66 10.3 -3 12 C-3.66 11.34 -4.32 10.68 -5 10 C-4.625 7.875 -4.625 7.875 -4 6 C-4.99 6.495 -4.99 6.495 -6 7 C-6 7.99 -6 8.98 -6 10 C-7.65 10.33 -9.3 10.66 -11 11 C-11 8.03 -11 5.06 -11 2 C-10.34 3.32 -9.68 4.64 -9 6 C-8.608125 5.360625 -8.21625 4.72125 -7.8125 4.0625 C-5.60086215 1.54580865 -4.2458219 1.42708183 -1 1 C-0.67 0.67 -0.34 0.34 0 0 Z " fill="#20296D" transform="translate(97,286)"/>
<path d="M0 0 C3.63 0 7.26 0 11 0 C10.67 1.65 10.34 3.3 10 5 C9.34 5 8.68 5 8 5 C7.67 6.65 7.34 8.3 7 10 C4.69 10 2.38 10 0 10 C-0.144375 9.38125 -0.28875 8.7625 -0.4375 8.125 C-0.93152225 5.96741678 -0.93152225 5.96741678 -2 4 C-1.34 4 -0.68 4 0 4 C0 2.68 0 1.36 0 0 Z " fill="#2C2E90" transform="translate(142,275)"/>
<path d="M0 0 C0.33 0.66 0.66 1.32 1 2 C1.99 2.33 2.98 2.66 4 3 C3.01 3 2.02 3 1 3 C0.67 6.63 0.34 10.26 0 14 C3.3 14 6.6 14 10 14 C9.67 11.03 9.34 8.06 9 5 C11 7 11 7 11.1953125 8.9453125 C11.13020833 10.96354167 11.06510417 12.98177083 11 15 C7.04 15 3.08 15 -1 15 C-1.268125 13.865625 -1.53625 12.73125 -1.8125 11.5625 C-2.204375 10.386875 -2.59625 9.21125 -3 8 C-7.48342472 6.50552509 -12.51653296 6.2755896 -17 8 C-17.33 8.66 -17.66 9.32 -18 10 C-18 9.01 -18 8.02 -18 7 C-17.34 7 -16.68 7 -16 7 C-16 6.34 -16 5.68 -16 5 C-15.09636719 4.97421875 -14.19273437 4.9484375 -13.26171875 4.921875 C-12.08222656 4.86515625 -10.90273438 4.8084375 -9.6875 4.75 C-7.92986328 4.68039063 -7.92986328 4.68039063 -6.13671875 4.609375 C-2.90521318 4.29945851 -2.90521318 4.29945851 -1.08203125 1.953125 C-0.72496094 1.30859375 -0.36789062 0.6640625 0 0 Z " fill="#AFCF52" transform="translate(310,226)"/>
<path d="M0 0 C2.31 0.66 4.62 1.32 7 2 C7.33 1.34 7.66 0.68 8 0 C10.40814077 3.51187196 11.36629408 5.72656908 11 10 C9.68 9.34 8.36 8.68 7 8 C7 7.34 7 6.68 7 6 C6.43152344 6.2165625 5.86304688 6.433125 5.27734375 6.65625 C0.2757781 8.45981958 -3.68962036 9.3389604 -9 9 C-9.33 7.68 -9.66 6.36 -10 5 C-7.36 5.66 -4.72 6.32 -2 7 C-2 6.34 -2 5.68 -2 5 C-2.99 5 -3.98 5 -5 5 C-5 4.34 -5 3.68 -5 3 C-3.02 3 -1.04 3 1 3 C0.67 2.01 0.34 1.02 0 0 Z " fill="#42449C" transform="translate(261,241)"/>
<path d="M0 0 C0 0.99 0 1.98 0 3 C-0.66 3 -1.32 3 -2 3 C-2.33 3.66 -2.66 4.32 -3 5 C-3 4.01 -3 3.02 -3 2 C-4.32 1.67 -5.64 1.34 -7 1 C-6.34 2.32 -5.68 3.64 -5 5 C-7.31 4.67 -9.62 4.34 -12 4 C-12 4.66 -12 5.32 -12 6 C-11.01 6 -10.02 6 -9 6 C-9 6.66 -9 7.32 -9 8 C-10.98 8 -12.96 8 -15 8 C-15.125 1.25 -15.125 1.25 -14 -1 C-8.92336435 -2.45046733 -4.46781326 -2.97854217 0 0 Z " fill="#292C88" transform="translate(268,240)"/>
<path d="M0 0 C0 0.66 0 1.32 0 2 C1.65 2 3.3 2 5 2 C4.34 2.66 3.68 3.32 3 4 C3 4.33 3 4.66 3 5 C3 5.99 3 6.98 3 8 C2.01 8 1.02 8 0 8 C-0.45375 8.515625 -0.9075 9.03125 -1.375 9.5625 C-1.91125 10.036875 -2.4475 10.51125 -3 11 C-5.6015625 10.58984375 -5.6015625 10.58984375 -8 10 C-7.71890887 8.35232753 -7.42481474 6.70686855 -7.125 5.0625 C-6.96257813 4.14597656 -6.80015625 3.22945313 -6.6328125 2.28515625 C-6.42398438 1.53105469 -6.21515625 0.77695312 -6 0 C-3.50907189 -1.24546405 -2.58919267 -0.7767578 0 0 Z " fill="#7C92BA" transform="translate(69,287)"/>
<path d="M0 0 C0.77328928 5.35314059 1.07577393 10.35645184 0.87890625 15.78125 C0.85529526 16.48020386 0.83168427 17.17915771 0.80735779 17.89929199 C0.7316769 20.0997858 0.6472516 22.29983885 0.5625 24.5 C0.50918316 26.00518781 0.4564437 27.5103962 0.40429688 29.015625 C0.27619434 32.67734463 0.14025565 36.33872338 0 40 C-0.33 40 -0.66 40 -1 40 C-1.84752114 35.51809107 -2.18458109 31.19019652 -2.31640625 26.6328125 C-2.33718735 25.95322479 -2.35796844 25.27363708 -2.37937927 24.57345581 C-2.4442363 22.42406334 -2.50345941 20.2745593 -2.5625 18.125 C-2.60574612 16.6588431 -2.64936225 15.19269706 -2.69335938 13.7265625 C-2.79985104 10.15115725 -2.90129409 6.57562963 -3 3 C-3.99 3 -4.98 3 -6 3 C-3.375 0 -3.375 0 0 0 Z " fill="#A3B75B" transform="translate(103,208)"/>
<path d="M0 0 C0.99 0 1.98 0 3 0 C3.33 2.64 3.66 5.28 4 8 C1.66836622 8.67258667 -0.6652039 9.33847444 -3 10 C-3.763125 10.226875 -4.52625 10.45375 -5.3125 10.6875 C-7 11 -7 11 -9 10 C-9.625 7.4375 -9.625 7.4375 -10 5 C-6.38026598 3.68373308 -3.90432869 3 0 3 C0 2.01 0 1.02 0 0 Z " fill="#AACA1F" transform="translate(116,273)"/>
<path d="M0 0 C0.33 0 0.66 0 1 0 C1.09765625 6.15234375 1.09765625 6.15234375 1 8 C-1.56240455 10.56240455 -8.74298222 9.18558105 -12.1875 9.1875 C-13.32509766 9.19974609 -14.46269531 9.21199219 -15.63476562 9.22460938 C-17.29088867 9.22750977 -17.29088867 9.22750977 -18.98046875 9.23046875 C-19.99004639 9.23457764 -20.99962402 9.23868652 -22.03979492 9.24291992 C-25.28429309 8.97667038 -27.9617106 8.14130216 -31 7 C-31 6.67 -31 6.34 -31 6 C-21.1 6 -11.2 6 -1 6 C-1.33 5.01 -1.66 4.02 -2 3 C-1.34 2.01 -0.68 1.02 0 0 Z " fill="#90BE29" transform="translate(93,256)"/>
<path d="M0 0 C2.62531524 0.16713569 2.62531524 0.16713569 5 0 C5 -0.66 5 -1.32 5 -2 C5.99 -1.67 6.98 -1.34 8 -1 C7.01 0.485 7.01 0.485 6 2 C5.75944532 4.05709596 5.75944532 4.05709596 5.875 6.1875 C5.91625 7.445625 5.9575 8.70375 6 10 C3.70986347 6.5647952 3.82157027 5.014669 4 1 C3.34 1 2.68 1 2 1 C2 1.66 2 2.32 2 3 C-0.33333333 3 -2.66666667 3 -5 3 C-5.185625 3.639375 -5.37125 4.27875 -5.5625 4.9375 C-7 7 -7 7 -10.625 7.75 C-11.73875 7.8325 -12.8525 7.915 -14 8 C-12.68 7.67 -11.36 7.34 -10 7 C-10 6.34 -10 5.68 -10 5 C-9.01 5 -8.02 5 -7 5 C-7 4.34 -7 3.68 -7 3 C-7.99 3.33 -8.98 3.66 -10 4 C-10.66 3.67 -11.32 3.34 -12 3 C-12 2.01 -12 1.02 -12 0 C-10.56666979 -0.39063507 -9.12807321 -0.76198474 -7.6875 -1.125 C-6.88699219 -1.33382812 -6.08648437 -1.54265625 -5.26171875 -1.7578125 C-3 -2 -3 -2 0 0 Z " fill="#ADC83C" transform="translate(116,255)"/>
<path d="M0 0 C0.66 0.33 1.32 0.66 2 1 C1.649375 1.61875 1.29875 2.2375 0.9375 2.875 C0.4734375 3.926875 0.4734375 3.926875 0 5 C0.33 5.66 0.66 6.32 1 7 C-0.65 7.33 -2.3 7.66 -4 8 C-1.87219421 10.34058637 0.11562221 11.70700306 3 13 C3 11.02 3 9.04 3 7 C3.33 7.66 3.66 8.32 4 9 C7.3 9 10.6 9 14 9 C14 9.33 14 9.66 14 10 C12.72125 10.0825 11.4425 10.165 10.125 10.25 C7.94666582 10.45869931 7.94666582 10.45869931 6 11 C4.4100567 12.92064793 4.4100567 12.92064793 4 15 C-3.42857143 14 -3.42857143 14 -7 13 C-6.67 10.69 -6.34 8.38 -6 6 C-5.34 6 -4.68 6 -4 6 C-3.71125 5.38125 -3.4225 4.7625 -3.125 4.125 C-2 2 -2 2 0 0 Z " fill="#484A8E" transform="translate(179,239)"/>
<path d="M0 0 C0.66 0 1.32 0 2 0 C2.20638953 23.58238484 2.20638953 23.58238484 1 35 C0.67 35 0.34 35 0 35 C-0.33 25.76 -0.66 16.52 -1 7 C-2.98 7.99 -2.98 7.99 -5 9 C-5.81584568 12.05908413 -5.81584568 12.05908413 -6 15 C-8 12 -8 12 -8 10 C-8.99 9.67 -9.98 9.34 -11 9 C-10.29875 8.62875 -9.5975 8.2575 -8.875 7.875 C-6.44164644 6.28803029 -4.79739542 4.87542571 -2.8125 2.8125 C-1.884375 1.884375 -0.95625 0.95625 0 0 Z " fill="#B3CB46" transform="translate(121,190)"/>
<path d="M0 0 C3.63 0 7.26 0 11 0 C11.66 1.32 12.32 2.64 13 4 C12.01 4 11.02 4 10 4 C10 4.66 10 5.32 10 6 C9.01 6 8.02 6 7 6 C7 5.01 7 4.02 7 3 C6.67 3.99 6.34 4.98 6 6 C4.35 6 2.7 6 1 6 C0.67 6.66 0.34 7.32 0 8 C-0.66 8 -1.32 8 -2 8 C-2 7.34 -2 6.68 -2 6 C-2.66 5.67 -3.32 5.34 -4 5 C-3.01 4.34 -2.02 3.68 -1 3 C-0.67 2.01 -0.34 1.02 0 0 Z " fill="#A5CA3B" transform="translate(295,274)"/>
<path d="M0 0 C0.33 0.66 0.66 1.32 1 2 C2.32 2 3.64 2 5 2 C5 1.34 5 0.68 5 0 C8.3 0 11.6 0 15 0 C14.67 0.66 14.34 1.32 14 2 C12.35 2 10.7 2 9 2 C9.33 3.65 9.66 5.3 10 7 C12.31 7 14.62 7 17 7 C15 10 15 10 12 11 C10.52740804 9.7564779 9.05814299 8.5079627 7.62890625 7.21484375 C5.24237913 5.43496381 2.91542208 5.20824443 0 5 C0 3.35 0 1.7 0 0 Z " fill="#ADC537" transform="translate(97,276)"/>
<path d="M0 0 C1.37432457 3.81756824 0.67975039 7.07255329 0 11 C1.98 10.34 3.96 9.68 6 9 C6.33 9.66 6.66 10.32 7 11 C6.34 11 5.68 11 5 11 C5.66 12.98 6.32 14.96 7 17 C6.34 17.33 5.68 17.66 5 18 C4.01 17.67 3.02 17.34 2 17 C1.34 17.66 0.68 18.32 0 19 C-2.38081145 15.42878282 -2.26906871 13.73325367 -2.25 9.5 C-2.25773437 7.78296875 -2.25773437 7.78296875 -2.265625 6.03125 C-2 3 -2 3 0 0 Z " fill="#A6CB40" transform="translate(371,263)"/>
<path d="M0 0 C6.0546875 0.390625 6.0546875 0.390625 8 1 C9.34375 2.71875 9.34375 2.71875 10 5 C9.5390625 7.578125 9.5390625 7.578125 8.625 10.25 C8.32851563 11.14203125 8.03203125 12.0340625 7.7265625 12.953125 C7.48679687 13.62859375 7.24703125 14.3040625 7 15 C4.13275314 14.42655063 3.1385485 14.1385485 1 12 C1 11.01 1 10.02 1 9 C1.99 9 2.98 9 4 9 C4.33 6.69 4.66 4.38 5 2 C3.35 1.67 1.7 1.34 0 1 C0 0.67 0 0.34 0 0 Z " fill="#ABCC4B" transform="translate(429,237)"/>
<path d="M0 0 C0.33 0 0.66 0 1 0 C2.06508204 16.33759779 2.11077817 32.63209915 2 49 C1.22269531 48.82597656 0.44539063 48.65195313 -0.35546875 48.47265625 C-3.01707879 47.99694751 -4.47253908 48.15751303 -7 49 C-7 48.01 -7 47.02 -7 46 C-4.03 45.505 -4.03 45.505 -1 45 C-0.67 30.15 -0.34 15.3 0 0 Z " fill="#1E295A" transform="translate(111,204)"/>
<path d="M0 0 C0.33 0 0.66 0 1 0 C1.17035053 3.31232106 1.33559092 6.62487914 1.5 9.9375 C1.54769531 10.86369141 1.59539062 11.78988281 1.64453125 12.74414062 C1.89509527 17.84490814 2.04525862 22.91648681 1.96875 28.0234375 C2.01700648 31.07565955 2.4882645 33.99355396 3 37 C-0.96 37 -4.92 37 -9 37 C-9 36.67 -9 36.34 -9 36 C-6.36 36 -3.72 36 -1 36 C-0.67 24.12 -0.34 12.24 0 0 Z " fill="#8084E9" transform="translate(206,249)"/>
<path d="M0 0 C7.42857143 -0.14285714 7.42857143 -0.14285714 11 1 C10.67 2.32 10.34 3.64 10 5 C9.67 4.67 9.34 4.34 9 4 C6.69 3.67 4.38 3.34 2 3 C2 12.57 2 22.14 2 32 C1.67 32 1.34 32 1 32 C1 22.43 1 12.86 1 3 C0.34 3 -0.32 3 -1 3 C-0.67 2.01 -0.34 1.02 0 0 Z " fill="#343478" transform="translate(214,237)"/>
<path d="M0 0 C1.4606285 2.64738916 2 3.89448334 2 7 C1.34 7 0.68 7 0 7 C-0.33 18.22 -0.66 29.44 -1 41 C0.65 41 2.3 41 4 41 C4.33 41.66 4.66 42.32 5 43 C2.69 42.67 0.38 42.34 -2 42 C-2.04934926 36.34001954 -2.08569529 30.68016364 -2.10986328 25.02001953 C-2.11993582 23.09356506 -2.13359443 21.16712592 -2.15087891 19.24072266 C-2.17507241 16.47554748 -2.18647036 13.710574 -2.1953125 10.9453125 C-2.20563507 10.0806839 -2.21595764 9.2160553 -2.22659302 8.32522583 C-2.22699106 6.21546479 -2.12265243 4.10619282 -2 2 C-1.34 1.34 -0.68 0.68 0 0 Z " fill="#ABC62F" transform="translate(96,212)"/>
<path d="M0 0 C0.66 0 1.32 0 2 0 C2 4.95 2 9.9 2 15 C0.02 15.99 0.02 15.99 -2 17 C-2 12.05 -2 7.1 -2 2 C-1.34 2 -0.68 2 0 2 C0 1.34 0 0.68 0 0 Z " fill="#2E308B" transform="translate(108,201)"/>
<path d="M0 0 C2.625 0.9375 2.625 0.9375 5 2 C4.67 3.65 4.34 5.3 4 7 C-0.33273814 7.92844389 -3.66726186 7.92844389 -8 7 C-6.98590222 4.46475554 -6.38502734 3.22860998 -4 1.8125 C-3.34 1.544375 -2.68 1.27625 -2 1 C-1.34 0.67 -0.68 0.34 0 0 Z M1 3 C2 6 2 6 2 6 Z " fill="#C4CD62" transform="translate(117,300)"/>
<path d="M0 0 C-0.66 1.32 -1.32 2.64 -2 4 C-2.33 3.67 -2.66 3.34 -3 3 C-4.34747084 2.76924918 -5.70377565 2.58846937 -7.0625 2.4375 C-8.361875 2.293125 -9.66125 2.14875 -11 2 C-9.35 2.33 -7.7 2.66 -6 3 C-6.375 5.9375 -6.375 5.9375 -7 9 C-7.99 9.495 -7.99 9.495 -9 10 C-10.13350534 12.01669827 -10.13350534 12.01669827 -11 14 C-11.36098063 12.02206479 -11.71361348 10.04260427 -12.0625 8.0625 C-12.25972656 6.96035156 -12.45695313 5.85820312 -12.66015625 4.72265625 C-12.77230469 3.82417969 -12.88445312 2.92570312 -13 2 C-10.20661992 -0.79338008 -3.77618484 -0.11442984 0 0 Z " fill="#454795" transform="translate(141,263)"/>
<path d="M0 0 C1.00709885 2.0141977 1.47128176 3.81903726 2 6 C2.33 6.99 2.66 7.98 3 9 C-2.37392443 12.58261629 -5.53715263 13.63568991 -12 13 C-14.5 12 -14.5 12 -16 11 C-13.11584117 9.55792059 -10.58278472 9.90605113 -7.375 9.9375 C-6.18648438 9.94652344 -4.99796875 9.95554687 -3.7734375 9.96484375 C-2.85820312 9.97644531 -1.94296875 9.98804688 -1 10 C-1 9.34 -1 8.68 -1 8 C-2.32 7.67 -3.64 7.34 -5 7 C-4.01 6.01 -3.02 5.02 -2 4 C-2.66 3.34 -3.32 2.68 -4 2 C-2.68 1.34 -1.36 0.68 0 0 Z " fill="#B5D164" transform="translate(390,274)"/>
<path d="M0 0 C-0.556875 0.226875 -1.11375 0.45375 -1.6875 0.6875 C-4.22215457 1.98466965 -4.22215457 1.98466965 -6.5625 4.625 C-9.66095132 7.64400385 -10.84310139 7 -15 7 C-15.33 7.66 -15.66 8.32 -16 9 C-17 7 -17 7 -16.8203125 4.984375 C-16 3 -16 3 -14.1796875 1.953125 C-9.25754322 0.45145386 -5.14699673 -0.32853171 0 0 Z " fill="#B1D054" transform="translate(391,237)"/>
<path d="M0 0 C0.99 0.33 1.98 0.66 3 1 C3 1.66 3 2.32 3 3 C3.99 3.33 4.98 3.66 6 4 C4 7 4 7 1.4375 7.5625 C0.633125 7.706875 -0.17125 7.85125 -1 8 C-1.33 8.66 -1.66 9.32 -2 10 C-2.99 10 -3.98 10 -5 10 C-4.47731534 7.23723823 -3.89130413 4.6739124 -3 2 C-2.01 2 -1.02 2 0 2 C0 1.34 0 0.68 0 0 Z " fill="#282B8A" transform="translate(193,275)"/>
<path d="M0 0 C0.99 0.66 1.98 1.32 3 2 C2.38722388 4.96175123 1.74627478 6.38058783 0 9 C-0.39387788 11.32387947 -0.73486085 13.65793749 -1 16 C-3.31 16 -5.62 16 -8 16 C-8 15.67 -8 15.34 -8 15 C-6.02 15 -4.04 15 -2 15 C-2.33 12.36 -2.66 9.72 -3 7 C-3.99 7 -4.98 7 -6 7 C-6.33 7.99 -6.66 8.98 -7 10 C-7.33 9.34 -7.66 8.68 -8 8 C-6.5625 5.375 -6.5625 5.375 -5 3 C-4.34 3.66 -3.68 4.32 -3 5 C-2.01 5 -1.02 5 0 5 C0 3.35 0 1.7 0 0 Z " fill="#C4D466" transform="translate(122,266)"/>
<path d="M0 0 C0.33 0 0.66 0 1 0 C1.02468447 4.80549747 1.04285255 9.61095818 1.05493164 14.41650391 C1.05996621 16.05192711 1.06679427 17.6873458 1.07543945 19.32275391 C1.08754335 21.67090975 1.093237 24.01900619 1.09765625 26.3671875 C1.10281754 27.10057343 1.10797882 27.83395935 1.11329651 28.58956909 C1.11387171 33.77225659 1.11387171 33.77225659 0 36 C-2.31 36 -4.62 36 -7 36 C-7 35.34 -7 34.68 -7 34 C-5 33.33333333 -3 32.66666667 -1 32 C-0.67 21.44 -0.34 10.88 0 0 Z " fill="#1C1D74" transform="translate(205,249)"/>
<path d="M0 0 C2.6875 -0.3125 2.6875 -0.3125 5 0 C3.68 0.33 2.36 0.66 1 1 C1.33 1.99 1.66 2.98 2 4 C1.87890625 6.26171875 1.87890625 6.26171875 1.5625 8.6875 C1.46066406 9.49574219 1.35882813 10.30398437 1.25390625 11.13671875 C1.17011719 11.75160156 1.08632812 12.36648437 1 13 C-1.31 12.34 -3.62 11.68 -6 11 C-6 8 -6 8 -4.6875 6.625 C-4.130625 6.08875 -3.57375 5.5525 -3 5 C-2.54625 4.113125 -2.0925 3.22625 -1.625 2.3125 C-1.08875 1.549375 -0.5525 0.78625 0 0 Z " fill="#2D2F92" transform="translate(181,239)"/>
<path d="M0 0 C0.66 1.32 1.32 2.64 2 4 C1.67 4.33 1.34 4.66 1 5 C0.95907063 7.33297433 0.95758277 9.66705225 1 12 C4.63 12 8.26 12 12 12 C12 11.34 12 10.68 12 10 C13.32 10.33 14.64 10.66 16 11 C10.35853945 14.00077689 6.25665429 14.45004005 0 13 C-1.73956658 11.26043342 -1.37190386 8.8063378 -1.5625 6.4375 C-1.64628906 5.42558594 -1.73007812 4.41367187 -1.81640625 3.37109375 C-1.87699219 2.58863281 -1.93757813 1.80617188 -2 1 C-1.34 0.67 -0.68 0.34 0 0 Z " fill="#C1D67F" transform="translate(329,291)"/>
<path d="M0 0 C1.98 0 3.96 0 6 0 C6.66 1.98 7.32 3.96 8 6 C2.58461538 7.23076923 2.58461538 7.23076923 -0.375 6.0625 C-0.91125 5.711875 -1.4475 5.36125 -2 5 C-1.34 3.35 -0.68 1.7 0 0 Z " fill="#2E3096" transform="translate(175,274)"/>
<path d="M0 0 C0.99 0.66 1.98 1.32 3 2 C2.34 2 1.68 2 1 2 C1.33 3.32 1.66 4.64 2 6 C1.071875 6.12375 1.071875 6.12375 0.125 6.25 C-2.18437567 6.81258459 -2.18437567 6.81258459 -3.25 9.0625 C-3.4975 9.701875 -3.745 10.34125 -4 11 C-4 9.35 -4 7.7 -4 6 C-5.65 6.33 -7.3 6.66 -9 7 C-9.33 8.65 -9.66 10.3 -10 12 C-10.33 12 -10.66 12 -11 12 C-11 8.7 -11 5.4 -11 2 C-10.0925 2.33 -9.185 2.66 -8.25 3 C-4.92954193 4.19605723 -4.92954193 4.19605723 -1 4 C-0.67 2.68 -0.34 1.36 0 0 Z " fill="#6E88AF" transform="translate(111,285)"/>
<path d="M0 0 C1.258125 -0.04125 2.51625 -0.0825 3.8125 -0.125 C4.52019531 -0.14820313 5.22789062 -0.17140625 5.95703125 -0.1953125 C8 0 8 0 11 2 C11.6875 4.625 11.6875 4.625 12 7 C11.05125 6.979375 10.1025 6.95875 9.125 6.9375 C6.09333717 6.77448174 6.09333717 6.77448174 4 8 C4.33 5.69 4.66 3.38 5 1 C3.35 1.33 1.7 1.66 0 2 C0 1.34 0 0.68 0 0 Z " fill="#333592" transform="translate(130,265)"/>
<path d="M0 0 C1.76462683 3.08809695 2 4.23312136 2 8 C1.34 8 0.68 8 0 8 C0.50603992 10.16874252 0.99983813 11.99967627 2 14 C1.01 15.485 1.01 15.485 0 17 C-0.33 16.01 -0.66 15.02 -1 14 C-3.64 14.33 -6.28 14.66 -9 15 C-7 14 -5 13 -3 12 C-3 11.01 -3 10.02 -3 9 C-3.99 8.34 -4.98 7.68 -6 7 C-4.02 6.67 -2.04 6.34 0 6 C0 4.02 0 2.04 0 0 Z " fill="#252682" transform="translate(196,250)"/>
<path d="M0 0 C6.31524597 0.08428973 10.14871229 0.85730635 15.375 4.375 C16.365 5.86 16.365 5.86 17.375 7.375 C16.715 8.035 16.055 8.695 15.375 9.375 C15.045 8.055 14.715 6.735 14.375 5.375 C13.73691406 5.24222656 13.09882813 5.10945312 12.44140625 4.97265625 C11.20197266 4.70775391 11.20197266 4.70775391 9.9375 4.4375 C9.11378906 4.26347656 8.29007812 4.08945313 7.44140625 3.91015625 C5.375 3.375 5.375 3.375 4.375 2.375 C2.18860547 2.30241054 -0.00000389 2.29126217 -2.1875 2.3125 C-3.38503906 2.32152344 -4.58257812 2.33054688 -5.81640625 2.33984375 C-7.20666016 2.35724609 -7.20666016 2.35724609 -8.625 2.375 C-5.81406338 -0.43593662 -3.9236708 0.04200932 0 0 Z " fill="#B5CF68" transform="translate(299.625,219.625)"/>
<path d="M0 0 C3.63 0 7.26 0 11 0 C11 0.66 11 1.32 11 2 C10.01 2 9.02 2 8 2 C8 2.66 8 3.32 8 4 C6.68 4 5.36 4 4 4 C3.67 6.64 3.34 9.28 3 12 C2.67 12 2.34 12 2 12 C1.93941406 11.38511719 1.87882812 10.77023437 1.81640625 10.13671875 C1.73261719 9.32847656 1.64882812 8.52023437 1.5625 7.6875 C1.48128906 6.88699219 1.40007812 6.08648437 1.31640625 5.26171875 C1.04734307 2.83912821 1.04734307 2.83912821 0 0 Z " fill="#AAC51F" transform="translate(98,258)"/>
<path d="M0 0 C7.92 0 15.84 0 24 0 C24 2.64 24 5.28 24 8 C22.68 7.34 21.36 6.68 20 6 C20.33 4.35 20.66 2.7 21 1 C14.07 1 7.14 1 0 1 C0 0.67 0 0.34 0 0 Z " fill="#1C215F" transform="translate(67,266)"/>
<path d="M0 0 C3.96 0 7.92 0 12 0 C12.33 0.66 12.66 1.32 13 2 C12.0625 4.625 12.0625 4.625 11 7 C10.67 7 10.34 7 10 7 C10 5.35 10 3.7 10 2 C7.03 2 4.06 2 1 2 C0.87625 2.804375 0.7525 3.60875 0.625 4.4375 C0.41875 5.283125 0.2125 6.12875 0 7 C-0.99 7.495 -0.99 7.495 -2 8 C-1.34 5.36 -0.68 2.72 0 0 Z " fill="#C4D882" transform="translate(354,238)"/>
<path d="M0 0 C-0.33 1.32 -0.66 2.64 -1 4 C-1.33 3.67 -1.66 3.34 -2 3 C-2.66 3.66 -3.32 4.32 -4 5 C-6.66666667 5 -9.33333333 5 -12 5 C-12.33 3.68 -12.66 2.36 -13 1 C-11.8553125 1.309375 -11.8553125 1.309375 -10.6875 1.625 C-6.77374817 2.17110491 -4.29018127 -0.23190169 0 0 Z " fill="#A8B434" transform="translate(113,301)"/>
<path d="M0 0 C0.99 0.66 1.98 1.32 3 2 C5.62531524 2.16713569 5.62531524 2.16713569 8 2 C8 1.34 8 0.68 8 0 C8.99 0.33 9.98 0.66 11 1 C10.01 2.485 10.01 2.485 9 4 C8.75944532 6.05709596 8.75944532 6.05709596 8.875 8.1875 C8.91625 9.445625 8.9575 10.70375 9 12 C6.70986347 8.5647952 6.82157027 7.014669 7 3 C6.34 3 5.68 3 5 3 C5 3.66 5 4.32 5 5 C3.35 5 1.7 5 0 5 C0 4.34 0 3.68 0 3 C-0.66 3 -1.32 3 -2 3 C-2 2.34 -2 1.68 -2 1 C-1.34 0.67 -0.68 0.34 0 0 Z " fill="#D2E755" transform="translate(113,253)"/>
<path d="M0 0 C1.20628008 2.33214148 2.1654738 4.49642139 3 7 C3.66 7.33 4.32 7.66 5 8 C4.67 8.66 4.34 9.32 4 10 C2.68 10 1.36 10 0 10 C-2.17457267 7.12645755 -3 5.63563409 -3 2 C-2.01 1.34 -1.02 0.68 0 0 Z " fill="#ACCA1D" transform="translate(98,268)"/>
<path d="M0 0 C0.66 0 1.32 0 2 0 C2.125 7.75 2.125 7.75 1 10 C-0.65 9.67 -2.3 9.34 -4 9 C-4 8.01 -4 7.02 -4 6 C-3.01 6 -2.02 6 -1 6 C-1.020625 5.195625 -1.04125 4.39125 -1.0625 3.5625 C-1 1 -1 1 0 0 Z " fill="#36376E" transform="translate(65,288)"/>
<path d="M0 0 C3.3 0 6.6 0 10 0 C10 2.31 10 4.62 10 7 C9.34 6.01 8.68 5.02 8 4 C7.896875 4.639375 7.79375 5.27875 7.6875 5.9375 C7.460625 6.618125 7.23375 7.29875 7 8 C6.01 8.33 5.02 8.66 4 9 C4.020625 8.21625 4.04125 7.4325 4.0625 6.625 C4.18684063 4.01885039 4.18684063 4.01885039 3 2 C2.01 1.34 1.02 0.68 0 0 Z " fill="#111D7C" transform="translate(74,289)"/>
<path d="M0 0 C3 1 3 1 5 4 C5.25 6.5625 5.25 6.5625 5 9 C4.34 9.66 3.68 10.32 3 11 C2.01 10.67 1.02 10.34 0 10 C0.66 8.68 1.32 7.36 2 6 C1.34 6 0.68 6 0 6 C0 4.02 0 2.04 0 0 Z " fill="#B1C936" transform="translate(95,257)"/>
<path d="M0 0 C0.33 0 0.66 0 1 0 C1.33 2.64 1.66 5.28 2 8 C2.99 8 3.98 8 5 8 C5.33 8.99 5.66 9.98 6 11 C4.35 11.66 2.7 12.32 1 13 C-1.11295256 9.83057116 -1.25250929 9.00370047 -1.1875 5.375 C-1.17783203 4.18003906 -1.17783203 4.18003906 -1.16796875 2.9609375 C-1 1 -1 1 0 0 Z " fill="#A9C542" transform="translate(114,243)"/>
<path d="M0 0 C0.33 0 0.66 0 1 0 C1 1.98 1 3.96 1 6 C0.34 6 -0.32 6 -1 6 C-1.33 6.99 -1.66 7.98 -2 9 C-1.34 9 -0.68 9 0 9 C0 9.66 0 10.32 0 11 C-0.99 11.33 -1.98 11.66 -3 12 C-3.99 9.36 -4.98 6.72 -6 4 C-4.125 2.9375 -4.125 2.9375 -2 2 C-1.34 2.33 -0.68 2.66 0 3 C0 2.01 0 1.02 0 0 Z " fill="#2B2E8A" transform="translate(204,245)"/>
<path d="M0 0 C2.97 0.495 2.97 0.495 6 1 C6.33 2.32 6.66 3.64 7 5 C6.34 5 5.68 5 5 5 C4.67 5.66 4.34 6.32 4 7 C4 6.01 4 5.02 4 4 C2.68 3.67 1.36 3.34 0 3 C0.66 4.32 1.32 5.64 2 7 C1.01 7 0.02 7 -1 7 C-0.67 4.69 -0.34 2.38 0 0 Z " fill="#393B8D" transform="translate(261,238)"/>
<path d="M0 0 C2.1385485 2.1385485 2.42655063 3.13275314 3 6 C5.64 6.33 8.28 6.66 11 7 C10.67 7.66 10.34 8.32 10 9 C6.625 9.75 6.625 9.75 3 10 C2.01 9.34 1.02 8.68 0 8 C-0.40843923 5.28796348 -0.13336867 2.7562858 0 0 Z " fill="#B2C256" transform="translate(61,277)"/>
<path d="M0 0 C3.96 0 7.92 0 12 0 C12 1.98 12 3.96 12 6 C11.67 4.68 11.34 3.36 11 2 C8.03 2 5.06 2 2 2 C2 2.99 2 3.98 2 5 C1.34 5 0.68 5 0 5 C0 3.35 0 1.7 0 0 Z " fill="#B4CC64" transform="translate(278,263)"/>
<path d="M0 0 C2 2 2 2 2.1953125 3.9453125 C2.13020833 5.96354167 2.06510417 7.98177083 2 10 C-1.96 10 -5.92 10 -10 10 C-10.66 7.69 -11.32 5.38 -12 3 C-11.01 3.33 -10.02 3.66 -9 4 C-9 5.65 -9 7.3 -9 9 C-5.7 9 -2.4 9 1 9 C0.67 6.03 0.34 3.06 0 0 Z " fill="#B3C96D" transform="translate(319,231)"/>
<path d="M0 0 C0.33 0 0.66 0 1 0 C1.12036664 5.77759884 0.8320582 11.27959989 0 17 C-2.69734626 12.95398061 -2.43218852 9.74576236 -2 5 C-1 1.9375 -1 1.9375 0 0 Z " fill="#BFD277" transform="translate(282,229)"/>
<path d="M0 0 C1.98 0.99 1.98 0.99 4 2 C4 4.31 4 6.62 4 9 C5.98 9 7.96 9 10 9 C10 9.33 10 9.66 10 10 C7.36 10 4.72 10 2 10 C1.67 10.99 1.34 11.98 1 13 C1 9.33333333 1 5.66666667 1 2 C0.67 1.34 0.34 0.68 0 0 Z " fill="#DEF081" transform="translate(93,272)"/>
<path d="M0 0 C0.99 0.33 1.98 0.66 3 1 C2.25 7.625 2.25 7.625 0 11 C-1.32 10.67 -2.64 10.34 -4 10 C-3.01 9.67 -2.02 9.34 -1 9 C-0.67 6.03 -0.34 3.06 0 0 Z " fill="#AECA54" transform="translate(310,263)"/>
<path d="M0 0 C0.66 0.33 1.32 0.66 2 1 C1.67 1.66 1.34 2.32 1 3 C3.31 3.66 5.62 4.32 8 5 C8 5.66 8 6.32 8 7 C5.03 7 2.06 7 -1 7 C-1.625 4.625 -1.625 4.625 -2 2 C-1.34 1.34 -0.68 0.68 0 0 Z " fill="#252785" transform="translate(228,241)"/>
<path d="M0 0 C0.99 0.66 1.98 1.32 3 2 C1.92598892 4.91517292 1.22189824 6.77810176 -1 9 C-1 8.34 -1 7.68 -1 7 C-1.99 7 -2.98 7 -4 7 C-4.33 7.66 -4.66 8.32 -5 9 C-5 7.35 -5 5.7 -5 4 C-3.68 4.33 -2.36 4.66 -1 5 C-1.33 3.68 -1.66 2.36 -2 1 C-1.34 0.67 -0.68 0.34 0 0 Z " fill="#1C2666" transform="translate(114,286)"/>
<path d="M0 0 C0.99 0 1.98 0 3 0 C4.37432457 3.81756824 3.67975039 7.07255329 3 11 C2.34 11 1.68 11 1 11 C1 9.02 1 7.04 1 5 C0.01 4.67 -0.98 4.34 -2 4 C-1.34 4 -0.68 4 0 4 C-0.33 3.01 -0.66 2.02 -1 1 C-0.67 0.67 -0.34 0.34 0 0 Z " fill="#3F4C83" transform="translate(97,286)"/>
<path d="M0 0 C0.33 1.32 0.66 2.64 1 4 C-0.093125 4.309375 -1.18625 4.61875 -2.3125 4.9375 C-4.55407994 5.58337897 -6.7869351 6.2623117 -9 7 C-9.33 5.68 -9.66 4.36 -10 3 C-6.78548731 1.39274365 -3.56387464 1.94251815 0 2 C0 1.34 0 0.68 0 0 Z " fill="#A9C232" transform="translate(119,277)"/>
<path d="M0 0 C-0.99 1.485 -0.99 1.485 -2 3 C-1.69159401 5.15274948 -1.69159401 5.15274948 -1 7 C-5.8 4.53846154 -5.8 4.53846154 -6.8125 1.8125 C-6.874375 1.214375 -6.93625 0.61625 -7 0 C-3.98968256 -0.93423645 -3.13349732 -1.04449911 0 0 Z " fill="#4A4B98" transform="translate(139,278)"/>
<path d="M0 0 C1.9375 0.625 1.9375 0.625 4 2 C4.75 5.125 4.75 5.125 5 8 C4.01 8.33 3.02 8.66 2 9 C1.34 8.34 0.68 7.68 0 7 C-0.66 7 -1.32 7 -2 7 C-2 5.35 -2 3.7 -2 2 C-1.34 2 -0.68 2 0 2 C0 1.34 0 0.68 0 0 Z " fill="#B7D74B" transform="translate(347,263)"/>
<path d="M0 0 C2.31 0 4.62 0 7 0 C7.33 2.64 7.66 5.28 8 8 C7.01 8.495 7.01 8.495 6 9 C6 8.01 6 7.02 6 6 C5.01 5.67 4.02 5.34 3 5 C3.99 4.67 4.98 4.34 6 4 C5.67 3.34 5.34 2.68 5 2 C3.35 2.66 1.7 3.32 0 4 C0 2.68 0 1.36 0 0 Z " fill="#757AAA" transform="translate(115,289)"/>
<path d="M0 0 C7.48275862 0.48275862 7.48275862 0.48275862 9.625 2.625 C10.17156596 6.08658441 9.13045892 8.73422978 8 12 C7.67 12 7.34 12 7 12 C7 9.36 7 6.72 7 4 C6.34 4 5.68 4 5 4 C5 3.34 5 2.68 5 2 C3.35 1.67 1.7 1.34 0 1 C0 0.67 0 0.34 0 0 Z " fill="#BED673" transform="translate(429,237)"/>
<path d="M0 0 C0.66 0.33 1.32 0.66 2 1 C1.01 2.485 1.01 2.485 0 4 C0.32126128 6.63434254 0.81355048 8.62710097 2 11 C0.68 11 -0.64 11 -2 11 C-3 4.375 -3 4.375 -3 1 C-2.01 0.67 -1.02 0.34 0 0 Z " fill="#68795A" transform="translate(93,264)"/>
<path d="M0 0 C0.33 0 0.66 0 1 0 C1.09765625 6.15234375 1.09765625 6.15234375 1 8 C0 9 0 9 -3.5625 9.0625 C-4.696875 9.041875 -5.83125 9.02125 -7 9 C-6.01 8.67 -5.02 8.34 -4 8 C-4 7.34 -4 6.68 -4 6 C-3.01 6 -2.02 6 -1 6 C-1.33 5.01 -1.66 4.02 -2 3 C-1.34 2.01 -0.68 1.02 0 0 Z " fill="#8EC61F" transform="translate(93,256)"/>
<path d="M0 0 C0.66 0.33 1.32 0.66 2 1 C1.649375 1.61875 1.29875 2.2375 0.9375 2.875 C0.4734375 3.926875 0.4734375 3.926875 0 5 C0.33 5.66 0.66 6.32 1 7 C-1.31 7.66 -3.62 8.32 -6 9 C-6 8.01 -6 7.02 -6 6 C-5.34 6 -4.68 6 -4 6 C-3.71125 5.38125 -3.4225 4.7625 -3.125 4.125 C-2 2 -2 2 0 0 Z " fill="#5863A9" transform="translate(179,239)"/>
<path d="M0 0 C0 0.33 0 0.66 0 1 C-2.06168985 1.19620767 -4.12440998 1.38160753 -6.1875 1.5625 C-7.33605469 1.66691406 -8.48460937 1.77132812 -9.66796875 1.87890625 C-12.68631199 1.98859985 -15.08923936 1.74002389 -18 1 C-18 0.67 -18 0.34 -18 0 C-12.00223894 -1.49944026 -5.99776106 -1.49944026 0 0 Z " fill="#7678B2" transform="translate(199,238)"/>
<path d="M0 0 C0 2.31 0 4.62 0 7 C-1.65614657 7.38218767 -3.32457024 7.71395102 -5 8 C-6 7 -6 7 -6.0625 4.4375 C-6.041875 3.633125 -6.02125 2.82875 -6 2 C-5.67 2.99 -5.34 3.98 -5 5 C-4.01 5 -3.02 5 -2 5 C-2 4.01 -2 3.02 -2 2 C-2.66 1.67 -3.32 1.34 -4 1 C-1 0 -1 0 0 0 Z " fill="#1F266A" transform="translate(74,290)"/>
<path d="M0 0 C1.2065625 0.0309375 1.2065625 0.0309375 2.4375 0.0625 C2.4375 2.0425 2.4375 4.0225 2.4375 6.0625 C1.4475 6.5575 1.4475 6.5575 0.4375 7.0625 C0.4375 5.4125 0.4375 3.7625 0.4375 2.0625 C-0.2225 2.0625 -0.8825 2.0625 -1.5625 2.0625 C-1.5625 3.3825 -1.5625 4.7025 -1.5625 6.0625 C-2.2225 6.0625 -2.8825 6.0625 -3.5625 6.0625 C-3.605221 4.39638095 -3.60313832 2.72867115 -3.5625 1.0625 C-2.5625 0.0625 -2.5625 0.0625 0 0 Z " fill="#161D5F" transform="translate(104.5625,290.9375)"/>
<path d="M0 0 C0.66 0 1.32 0 2 0 C2.33 2.31 2.66 4.62 3 7 C-0.96 7 -4.92 7 -9 7 C-9 6.67 -9 6.34 -9 6 C-6.36 6 -3.72 6 -1 6 C-0.67 4.02 -0.34 2.04 0 0 Z " fill="#8284B6" transform="translate(206,279)"/>
<path d="M0 0 C1.65 0 3.3 0 5 0 C5 0.99 5 1.98 5 3 C6.32 3 7.64 3 9 3 C9.66 4.32 10.32 5.64 11 7 C6.00724943 5.72278474 3.42388092 3.82669043 0 0 Z " fill="#B4D06A" transform="translate(284,250)"/>
<path d="M0 0 C0.99 0.33 1.98 0.66 3 1 C3.6875 3.0625 3.6875 3.0625 4 5 C3.360625 5.12375 2.72125 5.2475 2.0625 5.375 C1.0415625 5.684375 1.0415625 5.684375 0 6 C-0.33 6.66 -0.66 7.32 -1 8 C-1.66 6.35 -2.32 4.7 -3 3 C-2.01 2.01 -1.02 1.02 0 0 Z " fill="#BDCB54" transform="translate(94,301)"/>
<path d="M0 0 C2.64 0 5.28 0 8 0 C8.33 1.32 8.66 2.64 9 4 C8.67 3.34 8.34 2.68 8 2 C7.01 2.66 6.02 3.32 5 4 C2.3125 3.625 2.3125 3.625 0 3 C0 2.01 0 1.02 0 0 Z " fill="#B7BD69" transform="translate(90,299)"/>
<path d="M0 0 C3.63 0 7.26 0 11 0 C11 0.66 11 1.32 11 2 C11.99 2 12.98 2 14 2 C14 2.99 14 3.98 14 5 C12.41531323 4.54636829 10.83230076 4.08688548 9.25 3.625 C8.36828125 3.36976563 7.4865625 3.11453125 6.578125 2.8515625 C4 2 4 2 0 0 Z " fill="#BED574" transform="translate(295,257)"/>
<path d="M0 0 C2.7972908 2.06756277 3.02692273 3.14440371 3.6875 6.6875 C3.790625 7.780625 3.89375 8.87375 4 10 C2.68 9.34 1.36 8.68 0 8 C0 7.34 0 6.68 0 6 C-0.66 5.67 -1.32 5.34 -2 5 C-1.34 3.35 -0.68 1.7 0 0 Z " fill="#4F519A" transform="translate(268,241)"/>
<path d="M0 0 C2.73704754 2.73704754 3.16182449 5.26044774 4 9 C3.625 11.4375 3.625 11.4375 3 13 C2.67 11.68 2.34 10.36 2 9 C1.34 9 0.68 9 0 9 C-0.66 7.68 -1.32 6.36 -2 5 C-1.34 4.67 -0.68 4.34 0 4 C0 2.68 0 1.36 0 0 Z " fill="#B5CE67" transform="translate(340,249)"/>
<path d="M0 0 C4.75 0.875 4.75 0.875 7 2 C6.67 2.99 6.34 3.98 6 5 C4.68 5 3.36 5 2 5 C2 4.34 2 3.68 2 3 C0.68 2.67 -0.64 2.34 -2 2 C-1.34 2 -0.68 2 0 2 C0 1.34 0 0.68 0 0 Z " fill="#A4CD31" transform="translate(291,250)"/>
<path d="M0 0 C3.96 0 7.92 0 12 0 C14.42857143 6.28571429 14.42857143 6.28571429 13 10 C10.70986347 6.5647952 10.82157027 5.014669 11 1 C7.37 1 3.74 1 0 1 C0 0.67 0 0.34 0 0 Z " fill="#D7E49B" transform="translate(326,238)"/>
<path d="M0 0 C-2.36011867 1.18005934 -4.70765502 2.31136821 -7.125 3.375 C-10.08373111 5.04732628 -10.916826 5.85879539 -12 9 C-12 6.69 -12 4.38 -12 2 C-7.8803623 0.70756464 -4.33168317 -0.26252625 0 0 Z " fill="#BBD577" transform="translate(392,264)"/>
<path d="M0 0 C-2.31 0.33 -4.62 0.66 -7 1 C-7.33 2.32 -7.66 3.64 -8 5 C-9.65 5.33 -11.3 5.66 -13 6 C-13 5.34 -13 4.68 -13 4 C-12.34 4 -11.68 4 -11 4 C-11 3.34 -11 2.68 -11 2 C-3.57142857 -1.57142857 -3.57142857 -1.57142857 0 0 Z " fill="#7271AB" transform="translate(261,238)"/>
<path d="M0 0 C-1.70828921 2.10633718 -2.52148416 2.93801608 -5.26171875 3.29296875 C-6.06222656 3.25816406 -6.86273438 3.22335937 -7.6875 3.1875 C-8.89986328 3.14689453 -8.89986328 3.14689453 -10.13671875 3.10546875 C-11.05904297 3.05326172 -11.05904297 3.05326172 -12 3 C-12 2.34 -12 1.68 -12 1 C-7.95858806 0.36605303 -4.0934693 -0.12404452 0 0 Z " fill="#525393" transform="translate(154,284)"/>
<path d="M0 0 C1.26823485 3.65393537 0.75715321 6.49070026 0.0625 10.25 C-0.13214844 11.32765625 -0.32679688 12.4053125 -0.52734375 13.515625 C-0.68332031 14.33546875 -0.83929688 15.1553125 -1 16 C-1.33 16 -1.66 16 -2 16 C-2.05402274 13.89611431 -2.09280256 11.79183286 -2.125 9.6875 C-2.14820313 8.51574219 -2.17140625 7.34398437 -2.1953125 6.13671875 C-2 3 -2 3 0 0 Z " fill="#B8CE76" transform="translate(371,263)"/>
<path d="M0 0 C1.32 1.65 2.64 3.3 4 5 C3.34 5 2.68 5 2 5 C1.67 5.66 1.34 6.32 1 7 C-0.97888961 7.72693904 -2.97954558 8.39816251 -5 9 C-4.6875 7.0625 -4.6875 7.0625 -4 5 C-3.01 4.67 -2.02 4.34 -1 4 C-0.26676204 1.98491642 -0.26676204 1.98491642 0 0 Z " fill="#A3CC35" transform="translate(292,241)"/>
<path d="M0 0 C1.32 0 2.64 0 4 0 C4 0.66 4 1.32 4 2 C3.01 2 2.02 2 1 2 C1 2.66 1 3.32 1 4 C1.99 4 2.98 4 4 4 C3.67 4.99 3.34 5.98 3 7 C1.68 6.34 0.36 5.68 -1 5 C-0.67 3.35 -0.34 1.7 0 0 Z " fill="#171E6F" transform="translate(117,291)"/>
<path d="M0 0 C0.99 0.33 1.98 0.66 3 1 C3 1.66 3 2.32 3 3 C6.63 3.33 10.26 3.66 14 4 C14 4.33 14 4.66 14 5 C12.39773045 5.22245393 10.79303233 5.42746669 9.1875 5.625 C8.29417969 5.74101562 7.40085937 5.85703125 6.48046875 5.9765625 C4 6 4 6 1 4 C0.3125 1.875 0.3125 1.875 0 0 Z " fill="#B7CC6B" transform="translate(393,281)"/>
<path d="M0 0 C1.125 3.75 1.125 3.75 0 6 C-2.31 6 -4.62 6 -7 6 C-7 5.34 -7 4.68 -7 4 C-5 3.33333333 -3 2.66666667 -1 2 C-0.67 1.34 -0.34 0.68 0 0 Z " fill="#25267E" transform="translate(205,279)"/>
<path d="M0 0 C2.64 0 5.28 0 8 0 C8.66 1.32 9.32 2.64 10 4 C9.01 4 8.02 4 7 4 C7 4.66 7 5.32 7 6 C6.01 6 5.02 6 4 6 C4.33 5.01 4.66 4.02 5 3 C5.66 3 6.32 3 7 3 C7 2.34 7 1.68 7 1 C4.69 1 2.38 1 0 1 C0 0.67 0 0.34 0 0 Z " fill="#B5D659" transform="translate(298,274)"/>
<path d="M0 0 C-0.66 1.32 -1.32 2.64 -2 4 C-2.33 3.67 -2.66 3.34 -3 3 C-4.34747084 2.76924918 -5.70377565 2.58846937 -7.0625 2.4375 C-8.361875 2.293125 -9.66125 2.14875 -11 2 C-11 2.66 -11 3.32 -11 4 C-11.66 4 -12.32 4 -13 4 C-12.67 3.01 -12.34 2.02 -12 1 C-7.95858806 0.36605303 -4.0934693 -0.12404452 0 0 Z " fill="#6B6DA3" transform="translate(141,263)"/>
<path d="M0 0 C1.98 0 3.96 0 6 0 C5.67 0.99 5.34 1.98 5 3 C1.4375 4.1875 1.4375 4.1875 -2 5 C-1.34 3.35 -0.68 1.7 0 0 Z " fill="#2A2D8C" transform="translate(175,274)"/>
<path d="M0 0 C1 3 1 3 1 6 C0.34 6 -0.32 6 -1 6 C-1.33 6.99 -1.66 7.98 -2 9 C-2.33 6.36 -2.66 3.72 -3 1 C-2.01 0.67 -1.02 0.34 0 0 Z " fill="#36368B" transform="translate(263,248)"/>
<path d="M0 0 C0.66 0.33 1.32 0.66 2 1 C1.71640113 2.4391134 1.42278601 3.87625518 1.125 5.3125 C0.88136719 6.51326172 0.88136719 6.51326172 0.6328125 7.73828125 C0 10 0 10 -2 13 C-1.85851011 11.3954444 -1.71164314 9.79136233 -1.5625 8.1875 C-1.48128906 7.29417969 -1.40007812 6.40085938 -1.31640625 5.48046875 C-1 3 -1 3 0 0 Z " fill="#B5CF61" transform="translate(362,246)"/>
<path d="M0 0 C2.475 0.99 2.475 0.99 5 2 C5 2.99 5 3.98 5 5 C3.35 5 1.7 5 0 5 C-0.5625 3.0625 -0.5625 3.0625 -1 1 C-0.67 0.67 -0.34 0.34 0 0 Z " fill="#B1B941" transform="translate(117,300)"/>
<path d="M0 0 C3.3 0.33 6.6 0.66 10 1 C8 4 8 4 5 5 C3.35 3.35 1.7 1.7 0 0 Z " fill="#C6D77F" transform="translate(104,282)"/>
<path d="M0 0 C0.103125 0.639375 0.20625 1.27875 0.3125 1.9375 C0.539375 2.618125 0.76625 3.29875 1 4 C1.99 4.33 2.98 4.66 4 5 C4 5.66 4 6.32 4 7 C3.34 7 2.68 7 2 7 C1.67 7.99 1.34 8.98 1 10 C0.63883954 8.5225254 0.28624952 7.04295325 -0.0625 5.5625 C-0.25972656 4.73878906 -0.45695312 3.91507812 -0.66015625 3.06640625 C-0.82837891 2.04353516 -0.82837891 2.04353516 -1 1 C-0.67 0.67 -0.34 0.34 0 0 Z " fill="#B5D060" transform="translate(336,268)"/>
<path d="M0 0 C0.66 0 1.32 0 2 0 C2 0.66 2 1.32 2 2 C2.66 2 3.32 2 4 2 C3.67 3.98 3.34 5.96 3 8 C0 6 0 6 -0.75 3.4375 C-0.8325 2.633125 -0.915 1.82875 -1 1 C-0.67 0.67 -0.34 0.34 0 0 Z " fill="#292A87" transform="translate(179,264)"/>
<path d="M0 0 C2.6875 -0.3125 2.6875 -0.3125 5 0 C3.68 0.33 2.36 0.66 1 1 C1.33 1.99 1.66 2.98 2 4 C1.01 5.485 1.01 5.485 0 7 C-0.99 6.34 -1.98 5.68 -3 5 C-1.8125 2.5 -1.8125 2.5 0 0 Z " fill="#2A2A83" transform="translate(181,239)"/>
<path d="M0 0 C0.33 1.65 0.66 3.3 1 5 C-0.66666667 5 -2.33333333 5 -4 5 C-4.33 3.68 -4.66 2.36 -5 1 C-3 0 -3 0 0 0 Z " fill="#AACD42" transform="translate(346,295)"/>
<path d="M0 0 C2.31 0 4.62 0 7 0 C7.33 2.31 7.66 4.62 8 7 C7.01 6.67 6.02 6.34 5 6 C5 4.35 5 2.7 5 1 C3.35 1 1.7 1 0 1 C0 0.67 0 0.34 0 0 Z " fill="#B0C750" transform="translate(110,262)"/>
<path d="M0 0 C1.98 0.495 1.98 0.495 4 1 C4 2.32 4 3.64 4 5 C2.35 4.67 0.7 4.34 -1 4 C-0.67 2.68 -0.34 1.36 0 0 Z " fill="#A5CB35" transform="translate(283,274)"/>
<path d="M0 0 C1.32 0.99 2.64 1.98 4 3 C3.34 3 2.68 3 2 3 C2 3.66 2 4.32 2 5 C0.68 5.33 -0.64 5.66 -2 6 C-2 4.35 -2 2.7 -2 1 C-1.34 0.67 -0.68 0.34 0 0 Z " fill="#2E3096" transform="translate(187,259)"/>
<path d="M0 0 C0.66 0 1.32 0 2 0 C2 1.65 2 3.3 2 5 C0.68 5.33 -0.64 5.66 -2 6 C-2 4.68 -2 3.36 -2 2 C-1.34 2 -0.68 2 0 2 C0 1.34 0 0.68 0 0 Z " fill="#4C4D8E" transform="translate(108,201)"/>
<path d="M0 0 C-1.75 1.5625 -1.75 1.5625 -4 3 C-6.25 2.6875 -6.25 2.6875 -8 2 C-8 1.34 -8 0.68 -8 0 C-5.13822943 -1.43088528 -3.06624227 -0.59991697 0 0 Z " fill="#A9C573" transform="translate(102,307)"/>
<path d="M0 0 C0.66 0 1.32 0 2 0 C2 2.31 2 4.62 2 7 C1.01 6.67 0.02 6.34 -1 6 C-1.042721 4.33388095 -1.04063832 2.66617115 -1 1 C-0.67 0.67 -0.34 0.34 0 0 Z " fill="#1C266A" transform="translate(65,288)"/>
<path d="M0 0 C3.3 0.33 6.6 0.66 10 1 C10 1.33 10 1.66 10 2 C8.865625 2.12375 7.73125 2.2475 6.5625 2.375 C4.7990625 2.684375 4.7990625 2.684375 3 3 C2.67 3.66 2.34 4.32 2 5 C1.34 3.35 0.68 1.7 0 0 Z " fill="#7375AF" transform="translate(225,247)"/>
<path d="M0 0 C0.33 0.66 0.66 1.32 1 2 C4.3 2 7.6 2 11 2 C11 2.33 11 2.66 11 3 C9.72125 3.12375 8.4425 3.2475 7.125 3.375 C3.65209064 3.69042399 3.65209064 3.69042399 1 6 C0.67 4.02 0.34 2.04 0 0 Z " fill="#8788C1" transform="translate(182,246)"/>
<path d="M0 0 C2.475 0.495 2.475 0.495 5 1 C4.34 2.98 3.68 4.96 3 7 C2.34 7 1.68 7 1 7 C1.20625 6.21625 1.4125 5.4325 1.625 4.625 C1.74875 3.75875 1.8725 2.8925 2 2 C1.34 1.34 0.68 0.68 0 0 Z " fill="#282B82" transform="translate(239,239)"/>
<path d="M0 0 C0.66 0.33 1.32 0.66 2 1 C2 1.99 2 2.98 2 4 C1.34 4 0.68 4 0 4 C-0.33 4.99 -0.66 5.98 -1 7 C-1.66 7 -2.32 7 -3 7 C-1.125 2.25 -1.125 2.25 0 0 Z " fill="#565698" transform="translate(175,261)"/>
<path d="M0 0 C0 0.99 0 1.98 0 3 C-0.99 3.33 -1.98 3.66 -3 4 C-3.33 4.66 -3.66 5.32 -4 6 C-4.33 4.35 -4.66 2.7 -5 1 C-3.35 0.67 -1.7 0.34 0 0 Z " fill="#AFCB50" transform="translate(397,249)"/>
<path d="M0 0 C5.53846154 -0.36923077 5.53846154 -0.36923077 7.875 1.5 C8.24625 1.995 8.6175 2.49 9 3 C8.2575 2.814375 7.515 2.62875 6.75 2.4375 C4.05009037 2.00796892 2.55368923 2.14877026 0 3 C0 2.01 0 1.02 0 0 Z " fill="#1E2550" transform="translate(104,250)"/>
<path d="" fill="#FFFFFF" transform="translate(0,0)"/>
<path d="" fill="#FFFFFF" transform="translate(0,0)"/>
<path d="" fill="#FFFFFF" transform="translate(0,0)"/>
<path d="" fill="#FFFFFF" transform="translate(0,0)"/>
<path d="" fill="#FFFFFF" transform="translate(0,0)"/>
<path d="" fill="#FFFFFF" transform="translate(0,0)"/>
<path d="" fill="#FFFFFF" transform="translate(0,0)"/>
<path d="" fill="#FFFFFF" transform="translate(0,0)"/>
<path d="" fill="#FFFFFF" transform="translate(0,0)"/>
<path d="" fill="#FFFFFF" transform="translate(0,0)"/>
<path d="" fill="#FFFFFF" transform="translate(0,0)"/>
<path d="" fill="#FFFFFF" transform="translate(0,0)"/>
<path d="" fill="#FFFFFF" transform="translate(0,0)"/>
<path d="" fill="#FFFFFF" transform="translate(0,0)"/>
<path d="" fill="#FFFFFF" transform="translate(0,0)"/>
<path d="" fill="#FFFFFF" transform="translate(0,0)"/>
<path d="" fill="#FFFFFF" transform="translate(0,0)"/>
<path d="" fill="#FFFFFF" transform="translate(0,0)"/>
<path d="" fill="#FFFFFF" transform="translate(0,0)"/>
<path d="" fill="#FFFFFF" transform="translate(0,0)"/>
<path d="" fill="#FFFFFF" transform="translate(0,0)"/>
<path d="" fill="#FFFFFF" transform="translate(0,0)"/>
<path d="" fill="#FFFFFF" transform="translate(0,0)"/>
<path d="" fill="#FFFFFF" transform="translate(0,0)"/>
<path d="" fill="#FFFFFF" transform="translate(0,0)"/>
<path d="" fill="#FFFFFF" transform="translate(0,0)"/>
<path d="" fill="#FFFFFF" transform="translate(0,0)"/>
<path d="" fill="#FFFFFF" transform="translate(0,0)"/>
<path d="" fill="#FFFFFF" transform="translate(0,0)"/>
<path d="" fill="#FFFFFF" transform="translate(0,0)"/>
<path d="" fill="#FFFFFF" transform="translate(0,0)"/>
<path d="" fill="#FFFFFF" transform="translate(0,0)"/>
<path d="" fill="#FFFFFF" transform="translate(0,0)"/>
<path d="" fill="#FFFFFF" transform="translate(0,0)"/>
<path d="" fill="#FFFFFF" transform="translate(0,0)"/>
<path d="" fill="#FFFFFF" transform="translate(0,0)"/>
<path d="" fill="#FFFFFF" transform="translate(0,0)"/>
<path d="" fill="#FFFFFF" transform="translate(0,0)"/>
<path d="" fill="#FFFFFF" transform="translate(0,0)"/>
<path d="" fill="#FFFFFF" transform="translate(0,0)"/>
<path d="" fill="#FFFFFF" transform="translate(0,0)"/>
<path d="" fill="#FFFFFF" transform="translate(0,0)"/>
<path d="" fill="#FFFFFF" transform="translate(0,0)"/>
<path d="" fill="#FFFFFF" transform="translate(0,0)"/>
<path d="" fill="#FFFFFF" transform="translate(0,0)"/>
<path d="" fill="#FFFFFF" transform="translate(0,0)"/>
<path d="" fill="#FFFFFF" transform="translate(0,0)"/>
<path d="" fill="#FFFFFF" transform="translate(0,0)"/>
<path d="" fill="#FFFFFF" transform="translate(0,0)"/>
<path d="" fill="#FFFFFF" transform="translate(0,0)"/>
<path d="" fill="#FFFFFF" transform="translate(0,0)"/>
<path d="" fill="#FFFFFF" transform="translate(0,0)"/>
<path d="" fill="#FFFF80" transform="translate(0,0)"/>
<path d="" fill="#FFFFFF" transform="translate(0,0)"/>
<path d="" fill="#FFFFFF" transform="translate(0,0)"/>
<path d="" fill="#FFFFFF" transform="translate(0,0)"/>
<path d="" fill="#FFFFFF" transform="translate(0,0)"/>
<path d="" fill="#FFFFFF" transform="translate(0,0)"/>
<path d="" fill="#FFFFFF" transform="translate(0,0)"/>
<path d="" fill="#FFFFFF" transform="translate(0,0)"/>
<path d="" fill="#FFFFFF" transform="translate(0,0)"/>
<path d="" fill="#FFFFFF" transform="translate(0,0)"/>
<path d="" fill="#FFFFFF" transform="translate(0,0)"/>
<path d="" fill="#FFFFFF" transform="translate(0,0)"/>
<path d="" fill="#FFFFFF" transform="translate(0,0)"/>
<path d="" fill="#FFFFFF" transform="translate(0,0)"/>
<path d="" fill="#FFFFFF" transform="translate(0,0)"/>
<path d="" fill="#FFFFFF" transform="translate(0,0)"/>
<path d="" fill="#FFFFFF" transform="translate(0,0)"/>
<path d="" fill="#FFFFFF" transform="translate(0,0)"/>
<path d="" fill="#FFFFFF" transform="translate(0,0)"/>
<path d="" fill="#FFFFFF" transform="translate(0,0)"/>
<path d="" fill="#FFFFFF" transform="translate(0,0)"/>
<path d="" fill="#FFFFFF" transform="translate(0,0)"/>
<path d="" fill="#FFFFFF" transform="translate(0,0)"/>
<path d="" fill="#FFFFFF" transform="translate(0,0)"/>
<path d="" fill="#FFFFFF" transform="translate(0,0)"/>
<path d="" fill="#FFFFFF" transform="translate(0,0)"/>
<path d="" fill="#FFFFFF" transform="translate(0,0)"/>
<path d="" fill="#FFFFFF" transform="translate(0,0)"/>
<path d="" fill="#FFFFFF" transform="translate(0,0)"/>
<path d="" fill="#FFFFFF" transform="translate(0,0)"/>
<path d="" fill="#FFFFFF" transform="translate(0,0)"/>
<path d="" fill="#FFFFFF" transform="translate(0,0)"/>
<path d="" fill="#FFFFFF" transform="translate(0,0)"/>
<path d="" fill="#FFFFFF" transform="translate(0,0)"/>
<path d="" fill="#FFFFFF" transform="translate(0,0)"/>
<path d="" fill="#FFFFFF" transform="translate(0,0)"/>
<path d="" fill="#FFFFFF" transform="translate(0,0)"/>
<path d="" fill="#FFFFFF" transform="translate(0,0)"/>
<path d="" fill="#FFFFFF" transform="translate(0,0)"/>
<path d="" fill="#FFFFFF" transform="translate(0,0)"/>
<path d="" fill="#FFFFFF" transform="translate(0,0)"/>
<path d="" fill="#FFFFFF" transform="translate(0,0)"/>
<path d="" fill="#FFFFFF" transform="translate(0,0)"/>
<path d="" fill="#FFFFFF" transform="translate(0,0)"/>
<path d="" fill="#FFFFFF" transform="translate(0,0)"/>
<path d="" fill="#FFFFFF" transform="translate(0,0)"/>
<path d="" fill="#FFFFFF" transform="translate(0,0)"/>
<path d="" fill="#FFFFFF" transform="translate(0,0)"/>
<path d="" fill="#FFFFFF" transform="translate(0,0)"/>
</svg>
