<?xml version="1.0" encoding="UTF-8"?>
<svg version="1.1" xmlns="http://www.w3.org/2000/svg" width="500" height="500">
<path d="M0 0 C9 0 9 0 11 1 C11 12.55 11 24.1 11 36 C5.26625 36.04125 -0.4675 36.0825 -6.375 36.125 C-8.18403809 36.14320801 -9.99307617 36.16141602 -11.85693359 36.18017578 C-13.28743187 36.18601584 -14.71793347 36.19111255 -16.1484375 36.1953125 C-16.89391846 36.20554443 -17.63939941 36.21577637 -18.4074707 36.22631836 C-20.27317284 36.22695317 -22.13834854 36.12287692 -24 36 C-26 34 -26 34 -26.375 31.5 C-25.46974699 23.05097192 -21.36710316 16.4047431 -16 10 C-11.73936041 10.8302317 -9.75432581 12.616114 -7 16 C-7 19.45502189 -9.17571792 22.14460196 -11 25 C-7.37 25 -3.74 25 0 25 C0 16.75 0 8.5 0 0 Z " fill="#DF2429" transform="translate(74,212)"/>
<path d="M0 0 C4.96622349 -0.02465098 9.93241166 -0.04283649 14.89868164 -0.05493164 C16.58944316 -0.0599719 18.28020029 -0.06680405 19.97094727 -0.07543945 C22.39600707 -0.08751857 24.82100944 -0.09323123 27.24609375 -0.09765625 C28.38672523 -0.10539818 28.38672523 -0.10539818 29.55039978 -0.11329651 C31.3673257 -0.11349238 33.18413127 -0.06197277 35 0 C36 1 36 1 36.4375 4.8125 C36.38850767 12.45530272 31.93968976 20.30244003 27 26 C26.34 26 25.68 26 25 26 C25 26.66 25 27.32 25 28 C24.34 28 23.68 28 23 28 C22.34 29.32 21.68 30.64 21 32 C20.01 32 19.02 32 18 32 C17.67 32.66 17.34 33.32 17 34 C11.13297012 36.91425773 6.33842759 37.26768552 0 36 C0 32.7 0 29.4 0 26 C1.52625 25.608125 3.0525 25.21625 4.625 24.8125 C9.53584479 23.36567887 12.28080354 21.44025672 16 18 C16.66 18 17.32 18 18 18 C18.4640625 17.071875 18.4640625 17.071875 18.9375 16.125 C19.625 14.75 20.3125 13.375 21 12 C19.73542969 11.95101563 18.47085938 11.90203125 17.16796875 11.8515625 C15.50779053 11.7765262 13.84763536 11.70097873 12.1875 11.625 C10.93743164 11.57859375 10.93743164 11.57859375 9.66210938 11.53125 C8.85966797 11.49257813 8.05722656 11.45390625 7.23046875 11.4140625 C6.12288208 11.36693115 6.12288208 11.36693115 4.99291992 11.31884766 C3 11 3 11 0 9 C-0.29296875 6.8359375 -0.29296875 6.8359375 -0.1875 4.375 C-0.16042969 3.55773437 -0.13335937 2.74046875 -0.10546875 1.8984375 C-0.05326172 0.95871094 -0.05326172 0.95871094 0 0 Z " fill="#028ED5" transform="translate(89,252)"/>
<path d="M0 0 C11.55 0 23.1 0 35 0 C35 0.66 35 1.32 35 2 C35.66 2 36.32 2 37 2 C37 13.22 37 24.44 37 36 C29 36 29 36 26 34 C25.65942383 31.66162109 25.65942383 31.66162109 25.70703125 28.7734375 C25.71669922 27.7421875 25.72636719 26.7109375 25.73632812 25.6484375 C25.76146484 24.56820313 25.78660156 23.48796875 25.8125 22.375 C25.83280273 20.74304688 25.83280273 20.74304688 25.85351562 19.078125 C25.88894876 16.38520709 25.94275697 13.69254259 26 11 C22.04 11 18.08 11 14 11 C14.928125 12.36125 14.928125 12.36125 15.875 13.75 C17.44389611 16.14948817 18.80443821 18.40961612 20 21 C15.66445183 25.93770764 15.66445183 25.93770764 13 26.1875 C7.01869287 22.63609889 3.26727831 15.37454018 1 9 C0.67 6.03 0.34 3.06 0 0 Z " fill="#F8D00D" transform="translate(48,252)"/>
<path d="M0 0 C11.25958702 0 11.25958702 0 14.875 2.3125 C15.57367188 2.74175781 16.27234375 3.17101562 16.9921875 3.61328125 C17.65476562 4.07089844 18.31734375 4.52851563 19 5 C20.11761719 5.76376953 20.11761719 5.76376953 21.2578125 6.54296875 C21.83273438 7.02378906 22.40765625 7.50460938 23 8 C23 8.66 23 9.32 23 10 C23.99 10.33 24.98 10.66 26 11 C25.34 12.98 24.68 14.96 24 17 C21.9375 17.8125 21.9375 17.8125 19 18 C16.41033739 16.56605459 14.32257597 14.86716892 12 13 C11.67 16.96 11.34 20.92 11 25 C12.55332031 24.96519531 14.10664062 24.93039063 15.70703125 24.89453125 C17.74217671 24.8663956 19.77733383 24.8390952 21.8125 24.8125 C22.83666016 24.78736328 23.86082031 24.76222656 24.91601562 24.73632812 C26.39038086 24.72182617 26.39038086 24.72182617 27.89453125 24.70703125 C28.80050049 24.6913208 29.70646973 24.67561035 30.63989258 24.65942383 C33 25 33 25 34.8190918 26.01831055 C36 28 36 28 36 36 C24.78 36 13.56 36 2 36 C2 35.34 2 34.68 2 34 C1.34 34 0.68 34 0 34 C0 22.78 0 11.56 0 0 Z " fill="#119A55" transform="translate(89,212)"/>
<path d="M0 0 C2.64 0 5.28 0 8 0 C8.98114627 3.08270694 9.95956877 6.16627178 10.9375 9.25 C11.35418945 10.55904297 11.35418945 10.55904297 11.77929688 11.89453125 C12.04677734 12.73886719 12.31425781 13.58320313 12.58984375 14.453125 C12.83597412 15.22817383 13.08210449 16.00322266 13.33569336 16.80175781 C13.95453695 18.84955924 14.48115184 20.92460734 15 23 C15.33 15.41 15.66 7.82 16 0 C18.31 0 20.62 0 23 0 C24.32 2.64 25.64 5.28 27 8 C27.33 5.36 27.66 2.72 28 0 C29.98 0 31.96 0 34 0 C34 8.58 34 17.16 34 26 C32.02 26 30.04 26 28 26 C26.35 22.7 24.7 19.4 23 16 C22.67 19.3 22.34 22.6 22 26 C19.87561661 26.08078641 17.7503677 26.13909141 15.625 26.1875 C14.44164062 26.22230469 13.25828125 26.25710937 12.0390625 26.29296875 C10.53472656 26.14794922 10.53472656 26.14794922 9 26 C8.34 25.01 7.68 24.02 7 23 C3.91634129 22.7497843 3.91634129 22.7497843 1 23 C0.67 23.99 0.34 24.98 0 26 C-2.31 26 -4.62 26 -7 26 C-4.86602101 17.26910121 -2.71981556 8.57153995 0 0 Z M4 11 C3.67 12.32 3.34 13.64 3 15 C3.66 15 4.32 15 5 15 C4.67 13.68 4.34 12.36 4 11 Z " fill="#383130" transform="translate(345,227)"/>
<path d="M0 0 C1.98 0 3.96 0 6 0 C6 2.97 6 5.94 6 9 C7.98 9 9.96 9 12 9 C12 6.03 12 3.06 12 0 C14.31 0 16.62 0 19 0 C19.33 6.6 19.66 13.2 20 20 C21.98 13.4 23.96 6.8 26 0 C28.64 0 31.28 0 34 0 C35.17347102 3.76875019 36.33760333 7.54032084 37.5 11.3125 C37.83386719 12.38435547 38.16773438 13.45621094 38.51171875 14.56054688 C38.82753906 15.58857422 39.14335937 16.61660156 39.46875 17.67578125 C39.76201172 18.62364502 40.05527344 19.57150879 40.35742188 20.5480957 C41 23 41 23 41 26 C38.69 26 36.38 26 34 26 C34 24.68 34 23.36 34 22 C31.36 22 28.72 22 26 22 C26 23.32 26 24.64 26 26 C23.85423363 26.02685938 21.70837355 26.04633088 19.5625 26.0625 C18.36753906 26.07410156 17.17257812 26.08570313 15.94140625 26.09765625 C13 26 13 26 12 25 C11.92820036 23.48071962 11.91607993 21.95832518 11.9375 20.4375 C11.94652344 19.61121094 11.95554687 18.78492188 11.96484375 17.93359375 C11.97644531 17.29550781 11.98804688 16.65742188 12 16 C10.02 16 8.04 16 6 16 C6 19.3 6 22.6 6 26 C4.02 26 2.04 26 0 26 C0 17.42 0 8.84 0 0 Z M29 12 C29 12.99 29 13.98 29 15 C29.66 15 30.32 15 31 15 C31 14.01 31 13.02 31 12 C30.34 12 29.68 12 29 12 Z " fill="#312D2B" transform="translate(387,227)"/>
<path d="M0 0 C1.98 0 3.96 0 6 0 C6.33 1.98 6.66 3.96 7 6 C7.495 5.01 7.99 4.02 8.5 3 C11 0 11 0 13.046875 -0.3984375 C15.25 -0.375 15.25 -0.375 19 0 C18.55527344 0.67546875 18.11054688 1.3509375 17.65234375 2.046875 C17.08644531 2.93890625 16.52054687 3.8309375 15.9375 4.75 C15.08478516 6.07257813 15.08478516 6.07257813 14.21484375 7.421875 C12.8489275 9.81050994 12.8489275 9.81050994 13.06640625 11.890625 C14.46399718 15.04836182 16.28673503 18.0017863 18 21 C19.98 14.07 21.96 7.14 24 0 C26.64 0 29.28 0 32 0 C33.78113867 5.25435908 35.51022631 10.52401427 37.1875 15.8125 C37.53167969 16.89144531 37.87585938 17.97039062 38.23046875 19.08203125 C39 22 39 22 39 26 C37.02 26 35.04 26 33 26 C32.505 24.02 32.505 24.02 32 22 C29.69 22 27.38 22 25 22 C24.67 23.32 24.34 24.64 24 26 C20.04 26 16.08 26 12 26 C10.68 23.69 9.36 21.38 8 19 C7.67 19 7.34 19 7 19 C6.67 21.31 6.34 23.62 6 26 C4.02 26 2.04 26 0 26 C0 17.42 0 8.84 0 0 Z M28 11 C27.67 12.32 27.34 13.64 27 15 C27.99 14.67 28.98 14.34 30 14 C29.34 13.01 28.68 12.02 28 11 Z " fill="#44403F" transform="translate(274,227)"/>
<path d="M0 0 C1.66666667 0.33333333 3.33333333 0.66666667 5 1 C5.33 0.67 5.66 0.34 6 0 C8.33293334 -0.04320247 10.6670134 -0.04022391 13 0 C13.99 0 14.98 0 16 0 C16.66 0 17.32 0 18 0 C18.33 2.31 18.66 4.62 19 7 C18.938125 6.21625 18.87625 5.4325 18.8125 4.625 C18.9053125 3.325625 18.9053125 3.325625 19 2 C22.48058971 -0.32039314 22.98142912 0 27 0 C27.33 0.66 27.66 1.32 28 2 C28.598125 1.67 29.19625 1.34 29.8125 1 C32 0 32 0 35 0 C36.175625 -0.04125 37.35125 -0.0825 38.5625 -0.125 C42 0 42 0 44 2 C44.33 1.34 44.66 0.68 45 0 C45.66 0 46.32 0 47 0 C47 0.66 47 1.32 47 2 C48.32 1.34 49.64 0.68 51 0 C51.66 0.66 52.32 1.32 53 2 C53.33 1.34 53.66 0.68 54 0 C54.598125 0.165 55.19625 0.33 55.8125 0.5 C58.11344336 1.1114124 58.11344336 1.1114124 61 1 C61 4.3 61 7.6 61 11 C42.85 11 24.7 11 6 11 C5.67 9.68 5.34 8.36 5 7 C4.01 7.33 3.02 7.66 2 8 C2 8.99 2 9.98 2 11 C1.01 11 0.02 11 -1 11 C-1.02688151 9.35425434 -1.04634123 7.70838587 -1.0625 6.0625 C-1.07410156 5.14597656 -1.08570313 4.22945313 -1.09765625 3.28515625 C-1 1 -1 1 0 0 Z M47 3 C48 5 48 5 48 5 Z M10 4 C10 4.99 10 5.98 10 7 C9.01 7.495 9.01 7.495 8 8 C8.99 8 9.98 8 11 8 C10.67 6.68 10.34 5.36 10 4 Z " fill="#6B6B6B" transform="translate(216,261)"/>
<path d="M0 0 C2.31 0 4.62 0 7 0 C7.66 3.3 8.32 6.6 9 10 C10.80330533 6.39338934 11.46599103 3.91606575 12 0 C14.31 0 16.62 0 19 0 C20.29243536 4.1196377 21.26252625 7.66831683 21 12 C21.66 12 22.32 12 23 12 C23.09087891 11.07767578 23.09087891 11.07767578 23.18359375 10.13671875 C23.26738281 9.32847656 23.35117187 8.52023438 23.4375 7.6875 C23.51871094 6.88699219 23.59992188 6.08648437 23.68359375 5.26171875 C24 3 24 3 25 0 C27.31 0 29.62 0 32 0 C31.3781885 3.02152093 30.75265425 6.04219214 30.125 9.0625 C29.86396484 10.33383789 29.86396484 10.33383789 29.59765625 11.63085938 C28.58438314 16.49081743 27.43195336 21.24617286 26 26 C23.36 26 20.72 26 18 26 C17.34 23.69 16.68 21.38 16 19 C15.01 21.31 14.02 23.62 13 26 C10.69 26 8.38 26 6 26 C3.03501416 17.81099149 0 8.77082704 0 0 Z " fill="#3C3635" transform="translate(310,227)"/>
<path d="M0 0 C14 0 14 0 15.875 0.5625 C18.52247135 1.10756763 20.3657749 0.56447681 23 0 C24.9996441 -0.03772913 27.00054061 -0.04649906 29 0 C29.33 2.31 29.66 4.62 30 7 C30.66 4.69 31.32 2.38 32 0 C34.475 0.495 34.475 0.495 37 1 C37 3.31 37 5.62 37 8 C37.99 8 38.98 8 40 8 C40 6.68 40 5.36 40 4 C39.34 4 38.68 4 38 4 C38.33 2.68 38.66 1.36 39 0 C55 0 55 0 58 1 C58 3.97 58 6.94 58 10 C54.59437148 10.77842938 51.49234244 11.09978121 48 11 C48 10.34 48 9.68 48 9 C47.34 9 46.68 9 46 9 C46 9.66 46 10.32 46 11 C30.33333333 11 14.66666667 11 -1 11 C-1.02688151 9.35425434 -1.04634123 7.70838587 -1.0625 6.0625 C-1.07410156 5.14597656 -1.08570313 4.22945313 -1.09765625 3.28515625 C-1 1 -1 1 0 0 Z M9 4 C9.33 5.32 9.66 6.64 10 8 C10.33 6.68 10.66 5.36 11 4 C10.34 4 9.68 4 9 4 Z M43 4 C44 7 44 7 44 7 Z " fill="#8A8C8B" transform="translate(154,261)"/>
<path d="M0 0 C2.31 0 4.62 0 7 0 C8.32 2.97 9.64 5.94 11 9 C12.32 6.03 13.64 3.06 15 0 C17.31 0 19.62 0 22 0 C22 8.58 22 17.16 22 26 C20.02 26 18.04 26 16 26 C15.67 24.02 15.34 22.04 15 20 C14.54625 20.969375 14.0925 21.93875 13.625 22.9375 C12 26 12 26 10 27 C9.01 24.36 8.02 21.72 7 19 C6.67 21.31 6.34 23.62 6 26 C4.02 26 2.04 26 0 26 C0 17.42 0 8.84 0 0 Z " fill="#413B3A" transform="translate(208,227)"/>
<path d="M0 0 C2 0.125 2 0.125 4 1 C5.25 3.0625 5.25 3.0625 6 5 C6.103125 4.360625 6.20625 3.72125 6.3125 3.0625 C6.539375 2.381875 6.76625 1.70125 7 1 C7.99 0.67 8.98 0.34 10 0 C10.33 0.66 10.66 1.32 11 2 C11.66 1.34 12.32 0.68 13 0 C15.5 0.375 15.5 0.375 18 1 C18.66 1 19.32 1 20 1 C21.32 1 22.64 1 24 1 C25.33783393 0.68521554 26.67203709 0.35412344 28 0 C28.66 0 29.32 0 30 0 C30.84691406 -0.01160156 31.69382812 -0.02320313 32.56640625 -0.03515625 C33.55511719 -0.04417969 34.54382813 -0.05320312 35.5625 -0.0625 C36.55378906 -0.07410156 37.54507813 -0.08570313 38.56640625 -0.09765625 C41 0 41 0 42 1 C42.07179964 2.51928038 42.08392007 4.04167482 42.0625 5.5625 C42.05347656 6.38878906 42.04445313 7.21507812 42.03515625 8.06640625 C42.02355469 8.70449219 42.01195312 9.34257812 42 10 C39.21201882 10.79388702 36.77033668 11.11203998 33.875 11.0625 C31.91681054 11.0309163 29.95844415 11 28 11 C25.66666667 11 23.33333333 11 21 11 C20.29939453 11.00523682 19.59878906 11.01047363 18.87695312 11.01586914 C16.08464616 11.03661709 13.29235365 11.04958951 10.5 11.0625 C9.03626953 11.07506836 9.03626953 11.07506836 7.54296875 11.08789062 C6.61097656 11.09111328 5.67898438 11.09433594 4.71875 11.09765625 C3.43387695 11.10551147 3.43387695 11.10551147 2.12304688 11.11352539 C0 11 0 11 -2 10 C-2.1953125 3.9453125 -2.1953125 3.9453125 -2 2 C-1.34 1.34 -0.68 0.68 0 0 Z M18 6 C19 8 19 8 19 8 Z " fill="#7A7D7D" transform="translate(313,261)"/>
<path d="M0 0 C2.31 0 4.62 0 7 0 C7.02465392 4.53897705 7.04283789 9.07791543 7.05493164 13.61694336 C7.0599714 15.16219766 7.0668032 16.70744716 7.07543945 18.25268555 C7.08752076 20.46925029 7.09323173 22.68575218 7.09765625 24.90234375 C7.10281754 25.5971434 7.10797882 26.29194305 7.11329651 27.00779724 C7.11349277 28.6722933 7.06189129 30.33665499 7 32 C6 33 6 33 3.31616211 33.11352539 C2.14835205 33.10828857 0.98054199 33.10305176 -0.22265625 33.09765625 C-1.48271484 33.09443359 -2.74277344 33.09121094 -4.04101562 33.08789062 C-5.38151109 33.07953403 -6.72200588 33.07106907 -8.0625 33.0625 C-9.40689942 33.0574866 -10.7513006 33.05292342 -12.09570312 33.04882812 C-15.39717941 33.03699488 -18.69856803 33.02050971 -22 33 C-22 32.67 -22 32.34 -22 32 C-18.7 32 -15.4 32 -12 32 C-12 31.34 -12 30.68 -12 30 C-12.78375 30.185625 -13.5675 30.37125 -14.375 30.5625 C-17 31 -17 31 -19 30 C-18.67 29.01 -18.34 28.02 -18 27 C-12.56407609 25.18802536 -6.6869972 25.36522 -1 25 C-0.67 16.75 -0.34 8.5 0 0 Z " fill="#E12329" transform="translate(75,213)"/>
<path d="M0 0 C1.134375 0.020625 2.26875 0.04125 3.4375 0.0625 C5.72842119 5.07758249 7.34106439 9.95693978 8.625 15.3125 C8.80224609 16.01890625 8.97949219 16.7253125 9.16210938 17.453125 C9.88400093 20.39643576 10.4375 23.02051941 10.4375 26.0625 C8.4575 26.0625 6.4775 26.0625 4.4375 26.0625 C4.1075 24.7425 3.7775 23.4225 3.4375 22.0625 C1.1275 22.0625 -1.1825 22.0625 -3.5625 22.0625 C-3.8925 23.3825 -4.2225 24.7025 -4.5625 26.0625 C-6.5425 26.0625 -8.5225 26.0625 -10.5625 26.0625 C-6.53794338 0.11470076 -6.53794338 0.11470076 0 0 Z M-0.5625 10.0625 C-0.8925 11.7125 -1.2225 13.3625 -1.5625 15.0625 C-0.5725 15.0625 0.4175 15.0625 1.4375 15.0625 C1.1075 13.4125 0.7775 11.7625 0.4375 10.0625 C0.1075 10.0625 -0.2225 10.0625 -0.5625 10.0625 Z " fill="#504B4A" transform="translate(171.5625,226.9375)"/>
<path d="M0 0 C0.99 0 1.98 0 3 0 C12.33333333 0 21.66666667 0 31 0 C30.44894091 3.9492568 29.61064629 7.34920174 28 11 C27.34 11 26.68 11 26 11 C25.71125 10.030625 25.4225 9.06125 25.125 8.0625 C24.35785318 4.89335797 24.35785318 4.89335797 22 4 C22 6.31 22 8.62 22 11 C21.01 11 20.02 11 19 11 C19 8.69 19 6.38 19 4 C18.34 4 17.68 4 17 4 C17.185625 4.969375 17.37125 5.93875 17.5625 6.9375 C17.706875 7.948125 17.85125 8.95875 18 10 C17 11 17 11 14.59155273 11.11352539 C13.54942627 11.10828857 12.5072998 11.10305176 11.43359375 11.09765625 C10.30888672 11.09443359 9.18417969 11.09121094 8.02539062 11.08789062 C6.84138672 11.07951172 5.65738281 11.07113281 4.4375 11.0625 C3.24962891 11.05798828 2.06175781 11.05347656 0.83789062 11.04882812 C-2.10812226 11.03699675 -5.05403681 11.02051287 -8 11 C-8 7.7 -8 4.4 -8 1 C-5.2761601 -0.36191995 -3.01903173 -0.06161289 0 0 Z " fill="#5B5E5D" transform="translate(390,261)"/>
<path d="M0 0 C1.98 0 3.96 0 6 0 C6.33 1.98 6.66 3.96 7 6 C7.495 5.01 7.99 4.02 8.5 3 C11 0 11 0 13.046875 -0.3984375 C15.25 -0.375 15.25 -0.375 19 0 C18.55527344 0.67546875 18.11054688 1.3509375 17.65234375 2.046875 C17.08644531 2.93890625 16.52054687 3.8309375 15.9375 4.75 C15.08478516 6.07257813 15.08478516 6.07257813 14.21484375 7.421875 C12.81195645 9.83557826 12.81195645 9.83557826 13.18359375 12.0390625 C14.44494734 15.0687252 15.83380216 18.02051346 17.2578125 20.9765625 C17.50273437 21.64429688 17.74765625 22.31203125 18 23 C17.67 23.66 17.34 24.32 17 25 C13.27715732 24.49691315 11.42672659 23.88896023 9 21 C8.34 20.34 7.68 19.68 7 19 C6.67 21.31 6.34 23.62 6 26 C4.02 26 2.04 26 0 26 C0 17.42 0 8.84 0 0 Z " fill="#3B3636" transform="translate(274,227)"/>
<path d="M0 0 C1.20970459 0.00523682 2.41940918 0.01047363 3.66577148 0.01586914 C4.97094727 0.0190918 6.27612305 0.02231445 7.62084961 0.02563477 C9.00952213 0.03399138 10.39819401 0.04245634 11.78686523 0.05102539 C13.17944179 0.05603873 14.57202005 0.06060193 15.96459961 0.06469727 C19.38453974 0.07653097 22.80445773 0.09446708 26.22436523 0.11352539 C26.22436523 5.39352539 26.22436523 10.67352539 26.22436523 16.11352539 C25.23436523 16.11352539 24.24436523 16.11352539 23.22436523 16.11352539 C22.89436523 16.77352539 22.56436523 17.43352539 22.22436523 18.11352539 C20.96350009 14.17332181 21.22436523 11.6377224 21.22436523 7.11352539 C15.61436523 6.78352539 10.00436523 6.45352539 4.22436523 6.11352539 C4.22436523 7.76352539 4.22436523 9.41352539 4.22436523 11.11352539 C4.88436523 11.11352539 5.54436523 11.11352539 6.22436523 11.11352539 C7.65381469 13.46791272 8.31097785 14.59384972 7.84936523 17.36352539 C7.64311523 17.94102539 7.43686523 18.51852539 7.22436523 19.11352539 C5.90436523 19.44352539 4.58436523 19.77352539 3.22436523 20.11352539 C2.56436523 18.46352539 1.90436523 16.81352539 1.22436523 15.11352539 C0.56436523 15.11352539 -0.09563477 15.11352539 -0.77563477 15.11352539 C-2.79453563 10.23451497 -4.29968836 6.48507471 -3.77563477 1.11352539 C-2.77563477 0.11352539 -2.77563477 0.11352539 0 0 Z " fill="#FBD004" transform="translate(54.775634765625,253.886474609375)"/>
<path d="M0 0 C1.125 4.75 1.125 4.75 0 7 C-2.64 7 -5.28 7 -8 7 C-7.04287109 7.61488281 -7.04287109 7.61488281 -6.06640625 8.2421875 C-5.24011719 8.78101563 -4.41382813 9.31984375 -3.5625 9.875 C-2.73878906 10.40867188 -1.91507813 10.94234375 -1.06640625 11.4921875 C1 13 1 13 2 15 C2.57803468 22.28323699 2.57803468 22.28323699 0.4375 24.9375 C-2.82601318 26.36005703 -5.43132733 26.87694232 -9 27 C-12.4375 25.5625 -12.4375 25.5625 -15 24 C-14.67 22.35 -14.34 20.7 -14 19 C-10.34017193 17.78005731 -9.41884698 18.50973337 -6 20 C-5.34 20 -4.68 20 -4 20 C-5.16970222 16.49089335 -5.85048928 16.21825302 -8.9375 14.4375 C-11.30537576 13.05802973 -13.04971701 11.95028299 -15 10 C-15.36204163 6.66921703 -15.35584714 4.65831721 -13.75 1.6875 C-9.68656009 -2.23081705 -5.17231952 -0.77584793 0 0 Z " fill="#3B3635" transform="translate(252,227)"/>
<path d="M0 0 C4.95 0 9.9 0 15 0 C15 1.98 15 3.96 15 6 C12.03 6 9.06 6 6 6 C6 6.99 6 7.98 6 9 C6.804375 8.979375 7.60875 8.95875 8.4375 8.9375 C11 9 11 9 12 10 C12.125 12.5 12.125 12.5 12 15 C11 16 11 16 8.4375 16.0625 C7.633125 16.041875 6.82875 16.02125 6 16 C6 17.32 6 18.64 6 20 C8.97 20 11.94 20 15 20 C15 21.98 15 23.96 15 26 C10.05 26 5.1 26 0 26 C0 17.42 0 8.84 0 0 Z " fill="#322C29" transform="translate(256,227)"/>
<path d="M0 0 C2.64 0 5.28 0 8 0 C9.0070436 3.1019264 10.00440805 6.20688098 11 9.3125 C11.28617187 10.19357422 11.57234375 11.07464844 11.8671875 11.98242188 C12.13789063 12.82998047 12.40859375 13.67753906 12.6875 14.55078125 C12.93886719 15.33106689 13.19023437 16.11135254 13.44921875 16.9152832 C14 19 14 19 14 22 C13.01 22 12.02 22 11 22 C11 20.35 11 18.7 11 17 C9.68 16.67 8.36 16.34 7 16 C6.34 16.99 5.68 17.98 5 19 C5.99 19.33 6.98 19.66 8 20 C8 20.66 8 21.32 8 22 C5.69 22.33 3.38 22.66 1 23 C0.67 23.99 0.34 24.98 0 26 C-2.31 26 -4.62 26 -7 26 C-4.86602101 17.26910121 -2.71981556 8.57153995 0 0 Z M4 11 C3.67 12.32 3.34 13.64 3 15 C3.66 15 4.32 15 5 15 C4.67 13.68 4.34 12.36 4 11 Z " fill="#3C3635" transform="translate(345,227)"/>
<path d="M0 0 C1.67293936 0.30027117 3.33985384 0.63557767 5 1 C7.01073695 1.08329267 7.01073695 1.08329267 8.9375 0.5 C11.52941667 -0.12834343 13.5464748 -0.12005079 16.125 0.5625 C16.74375 0.706875 17.3625 0.85125 18 1 C18.33 0.67 18.66 0.34 19 0 C23.03160191 -0.26293056 24.55892734 -0.29404844 28 2 C28.40843923 4.71203652 28.13336867 7.2437142 28 10 C25.26370906 11.36814547 23.04960747 11.09548854 20 11.0625 C18.9275 11.05347656 17.855 11.04445313 16.75 11.03515625 C15.38875 11.01775391 15.38875 11.01775391 14 11 C13.34 11 12.68 11 12 11 C10.989375 10.814375 9.97875 10.62875 8.9375 10.4375 C7.968125 10.293125 6.99875 10.14875 6 10 C5.67 10.33 5.34 10.66 5 11 C3.00041636 11.04080783 0.99954746 11.04254356 -1 11 C-1.02688151 9.35425434 -1.04634123 7.70838587 -1.0625 6.0625 C-1.07410156 5.14597656 -1.08570313 4.22945313 -1.09765625 3.28515625 C-1 1 -1 1 0 0 Z M9 4 C9.33 5.32 9.66 6.64 10 8 C10.33 6.68 10.66 5.36 11 4 C10.34 4 9.68 4 9 4 Z M24 4 C24.33 4.99 24.66 5.98 25 7 C25 6.01 25 5.02 25 4 C24.67 4 24.34 4 24 4 Z " fill="#797979" transform="translate(424,261)"/>
<path d="M0 0 C2.56695636 0.39491636 4.67123994 0.83561997 7 2 C7.33 1.34 7.66 0.68 8 0 C8.5775 0.165 9.155 0.33 9.75 0.5 C13.9940794 1.44312876 17.79259598 0.71615388 22 0 C23.66666667 0 25.33333333 0 27 0 C26.814375 1.0725 26.62875 2.145 26.4375 3.25 C26.0695432 6.40391546 25.95534657 8.09818492 27 11 C26.360625 10.814375 25.72125 10.62875 25.0625 10.4375 C24.0415625 10.2209375 24.0415625 10.2209375 23 10 C22.67 10.33 22.34 10.66 22 11 C20.29227642 11.08713831 18.58101351 11.10700007 16.87109375 11.09765625 C15.31938477 11.09282227 15.31938477 11.09282227 13.73632812 11.08789062 C12.64771484 11.07951172 11.55910156 11.07113281 10.4375 11.0625 C8.7987793 11.05573242 8.7987793 11.05573242 7.12695312 11.04882812 C4.41791505 11.03699826 1.70898401 11.02051543 -1 11 C-1.02688151 9.35425434 -1.04634123 7.70838587 -1.0625 6.0625 C-1.07410156 5.14597656 -1.08570313 4.22945313 -1.09765625 3.28515625 C-1 1 -1 1 0 0 Z " fill="#6C6C6C" transform="translate(281,261)"/>
<path d="M0 0 C2.64 0 5.28 0 8 0 C9.17347102 3.76875019 10.33760333 7.54032084 11.5 11.3125 C11.83386719 12.38435547 12.16773438 13.45621094 12.51171875 14.56054688 C12.98544922 16.10258789 12.98544922 16.10258789 13.46875 17.67578125 C13.90864258 19.0975769 13.90864258 19.0975769 14.35742188 20.5480957 C15 23 15 23 15 26 C12.69 26 10.38 26 8 26 C8 24.35 8 22.7 8 21 C6.02 21 4.04 21 2 21 C1.67 20.01 1.34 19.02 1 18 C1.66 17.34 2.32 16.68 3 16 C4.32 16 5.64 16 7 16 C6.67 14.68 6.34 13.36 6 12 C5.01 12 4.02 12 3 12 C3 12.99 3 13.98 3 15 C2.34 15 1.68 15 1 15 C0.67 15.66 0.34 16.32 0 17 C-2 15 -2 15 -2.25 11.3125 C-2.1609339 7.25257007 -1.28029578 3.84088735 0 0 Z " fill="#363131" transform="translate(413,227)"/>
<path d="M0 0 C6.27 0 12.54 0 19 0 C19 1.98 19 3.96 19 6 C17.02 6 15.04 6 13 6 C13.01160156 7.10859375 13.02320313 8.2171875 13.03515625 9.359375 C13.04453792 10.82291498 13.05363771 12.28645678 13.0625 13.75 C13.07087891 14.47960937 13.07925781 15.20921875 13.08789062 15.9609375 C13.10391684 19.48670558 12.95292713 22.61034916 12 26 C10.02 26 8.04 26 6 26 C6 19.4 6 12.8 6 6 C4.02 6 2.04 6 0 6 C0 4.02 0 2.04 0 0 Z " fill="#504B49" transform="translate(425,227)"/>
<path d="M0 0 C6.27 0 12.54 0 19 0 C19 1.98 19 3.96 19 6 C17.02 6 15.04 6 13 6 C13 12.6 13 19.2 13 26 C11.02 26 9.04 26 7 26 C7 19.4 7 12.8 7 6 C4.69 6 2.38 6 0 6 C0 4.02 0 2.04 0 0 Z " fill="#5C5857" transform="translate(179,227)"/>
<path d="M0 0 C1.98 0 3.96 0 6 0 C6 2.97 6 5.94 6 9 C7.98 9 9.96 9 12 9 C12 6.03 12 3.06 12 0 C14.31 0 16.62 0 19 0 C19.33 6.6 19.66 13.2 20 20 C20.99 16.7 21.98 13.4 23 10 C24 12 25 14 26 16 C27.65 15.67 29.3 15.34 31 15 C31.33 14.01 31.66 13.02 32 12 C32.495 13.98 32.495 13.98 33 16 C31.35 16.66 29.7 17.32 28 18 C28.33 18.66 28.66 19.32 29 20 C31.52733235 20.65555119 31.52733235 20.65555119 34 21 C34 21.33 34 21.66 34 22 C31.36 22 28.72 22 26 22 C26 23.32 26 24.64 26 26 C22.37 26 18.74 26 15 26 C15.66 25.67 16.32 25.34 17 25 C17 17.41 17 9.82 17 2 C15.68 1.67 14.36 1.34 13 1 C13.33 4.3 13.66 7.6 14 11 C11.22003893 11 8.57507433 10.78702071 5.8125 10.5 C4.46091797 10.36078125 4.46091797 10.36078125 3.08203125 10.21875 C2.39496094 10.1465625 1.70789063 10.074375 1 10 C1 10.66 1 11.32 1 12 C1.66 12 2.32 12 3 12 C2.67 12.66 2.34 13.32 2 14 C1.34 14 0.68 14 0 14 C0 9.38 0 4.76 0 0 Z M10 12 C10.66 12 11.32 12 12 12 C11.67 12.66 11.34 13.32 11 14 C10.67 13.34 10.34 12.68 10 12 Z " fill="#5F5A5A" transform="translate(387,227)"/>
<path d="M0 0 C1.66666667 0.33333333 3.33333333 0.66666667 5 1 C5.33 0.67 5.66 0.34 6 0 C8.33293334 -0.04320247 10.6670134 -0.04022391 13 0 C13.99 0 14.98 0 16 0 C16.66 0 17.32 0 18 0 C18.33 2.31 18.66 4.62 19 7 C18.938125 6.21625 18.87625 5.4325 18.8125 4.625 C18.9053125 3.325625 18.9053125 3.325625 19 2 C19.99 1.34 20.98 0.68 22 0 C23.88057664 1.88057664 23.46277585 4.57124096 23.71875 7.08984375 C23.91037786 9.08088347 23.91037786 9.08088347 25 11 C18.73 11 12.46 11 6 11 C5.67 9.68 5.34 8.36 5 7 C4.01 7.33 3.02 7.66 2 8 C2 8.99 2 9.98 2 11 C1.01 11 0.02 11 -1 11 C-1.02688151 9.35425434 -1.04634123 7.70838587 -1.0625 6.0625 C-1.07410156 5.14597656 -1.08570313 4.22945313 -1.09765625 3.28515625 C-1 1 -1 1 0 0 Z M10 4 C10 4.99 10 5.98 10 7 C9.01 7.495 9.01 7.495 8 8 C8.99 8 9.98 8 11 8 C10.67 6.68 10.34 5.36 10 4 Z " fill="#777777" transform="translate(216,261)"/>
<path d="M0 0 C9 0 9 0 11 1 C11 12.55 11 24.1 11 36 C5.26625 36.04125 -0.4675 36.0825 -6.375 36.125 C-8.18403809 36.14320801 -9.99307617 36.16141602 -11.85693359 36.18017578 C-13.28743187 36.18601584 -14.71793347 36.19111255 -16.1484375 36.1953125 C-16.89391846 36.20554443 -17.63939941 36.21577637 -18.4074707 36.22631836 C-20.27317284 36.22695317 -22.13834854 36.12287692 -24 36 C-26 34 -26 34 -26.125 30.875 C-26.08375 29.92625 -26.0425 28.9775 -26 28 C-25.731875 28.639375 -25.46375 29.27875 -25.1875 29.9375 C-24.11332248 32.33131686 -24.11332248 32.33131686 -21 33 C-18.86205475 33.0833804 -16.72157991 33.10733747 -14.58203125 33.09765625 C-13.4525708 33.09515869 -12.32311035 33.09266113 -11.15942383 33.09008789 C-9.72493896 33.08098389 -8.2904541 33.07187988 -6.8125 33.0625 C0.0246875 33.0315625 0.0246875 33.0315625 7 33 C7.33 22.44 7.66 11.88 8 1 C5.69 1 3.38 1 1 1 C1 8.92 1 16.84 1 25 C0.67 25 0.34 25 0 25 C0 16.75 0 8.5 0 0 Z " fill="#BB5147" transform="translate(74,212)"/>
<path d="M0 0 C4.96622349 -0.02465098 9.93241166 -0.04283649 14.89868164 -0.05493164 C16.58944316 -0.0599719 18.28020029 -0.06680405 19.97094727 -0.07543945 C22.39600707 -0.08751857 24.82100944 -0.09323123 27.24609375 -0.09765625 C28.38672523 -0.10539818 28.38672523 -0.10539818 29.55039978 -0.11329651 C31.3673257 -0.11349238 33.18413127 -0.06197277 35 0 C36 1 36 1 36.4375 4.8125 C36.38850767 12.45530272 31.93968976 20.30244003 27 26 C26.34 26 25.68 26 25 26 C25 26.66 25 27.32 25 28 C24.34 28 23.68 28 23 28 C22.34 29.32 21.68 30.64 21 32 C20.01 32 19.02 32 18 32 C17.67 32.66 17.34 33.32 17 34 C11.13297012 36.91425773 6.33842759 37.26768552 0 36 C0 32.7 0 29.4 0 26 C0.66 26.33 1.32 26.66 2 27 C1.67 29.64 1.34 32.28 1 35 C15.67355658 30.604208 15.67355658 30.604208 27 21 C29.96209828 14.45826351 31.43294515 8.05174682 33 1 C22.11 1 11.22 1 0 1 C0 0.67 0 0.34 0 0 Z " fill="#61B0CA" transform="translate(89,252)"/>
<path d="M0 0 C5 1 5 1 7 3 C7.66 2.01 8.32 1.02 9 0 C9.556875 0.185625 10.11375 0.37125 10.6875 0.5625 C13.03695299 1.16549567 13.03695299 1.16549567 15.5 0.4375 C18 0 18 0 22 2 C21.67 4.97 21.34 7.94 21 11 C19.68 10.67 18.36 10.34 17 10 C16.67 10.33 16.34 10.66 16 11 C14.33388095 11.042721 12.66617115 11.04063832 11 11 C10.34 11 9.68 11 9 11 C6 11 3 11 0 11 C0 7.37 0 3.74 0 0 Z M3 4 C4 7 4 7 4 7 Z " fill="#606061" transform="translate(358,261)"/>
<path d="M0 0 C1 2 1 2 0.57421875 3.953125 C-2.20335644 11.14790126 -6.25323704 13.6604006 -13 17 C-13.89074219 17.48726563 -14.78148438 17.97453125 -15.69921875 18.4765625 C-20.04639528 20.80285428 -22.98039571 22.30206468 -28 22 C-28.09765625 15.84765625 -28.09765625 15.84765625 -28 14 C-26.32488405 12.32488405 -24.04190726 12.51535304 -21.75 12.1875 C-17.06528148 11.38752219 -14.51400648 10.30103639 -11 7 C-8.9375 6.125 -8.9375 6.125 -7 6 C-4.75 6.9375 -4.75 6.9375 -3 8 C-2.87625 7.236875 -2.7525 6.47375 -2.625 5.6875 C-2 3 -2 3 0 0 Z " fill="#058DD1" transform="translate(118,265)"/>
<path d="M0 0 C1.98 0 3.96 0 6 0 C6.08724706 3.4165052 6.14047325 6.83272313 6.1875 10.25 C6.21263672 11.21808594 6.23777344 12.18617188 6.26367188 13.18359375 C6.27817383 14.58544922 6.27817383 14.58544922 6.29296875 16.015625 C6.31653442 17.30388184 6.31653442 17.30388184 6.34057617 18.61816406 C5.92201976 21.54535855 5.02729234 22.87337419 3 25 C-0.47325181 26.1577506 -3.36067448 26.06866652 -7 26 C-7 24.02 -7 22.04 -7 20 C-5.02 19.34 -3.04 18.68 -1 18 C-0.505 9.09 -0.505 9.09 0 0 Z " fill="#595554" transform="translate(155,227)"/>
<path d="M0 0 C2.31 0 4.62 0 7 0 C7 8.58 7 17.16 7 26 C4.69 26 2.38 26 0 26 C0 17.42 0 8.84 0 0 Z " fill="#9D9B9A" transform="translate(199,227)"/>
<path d="M0 0 C1.98 0 3.96 0 6 0 C6 8.58 6 17.16 6 26 C4.02 26 2.04 26 0 26 C-1.65 22.7 -3.3 19.4 -5 16 C-1 14 -1 14 1 14 C0.67 13.34 0.34 12.68 0 12 C-0.07065617 9.95944995 -0.08421976 7.91665743 -0.0625 5.875 C-0.05347656 4.77929688 -0.04445313 3.68359375 -0.03515625 2.5546875 C-0.02355469 1.71164063 -0.01195312 0.86859375 0 0 Z " fill="#45413F" transform="translate(373,227)"/>
<path d="M0 0 C0.66 0 1.32 0 2 0 C2 0.66 2 1.32 2 2 C3.32 1.34 4.64 0.68 6 0 C6.66 0.66 7.32 1.32 8 2 C8.33 1.34 8.66 0.68 9 0 C9.598125 0.165 10.19625 0.33 10.8125 0.5 C13.11344336 1.1114124 13.11344336 1.1114124 16 1 C16 4.3 16 7.6 16 11 C7.42 11 -1.16 11 -10 11 C-10 10.67 -10 10.34 -10 10 C-8.35 10 -6.7 10 -5 10 C-5 8.02 -5 6.04 -5 4 C-3.68 4.66 -2.36 5.32 -1 6 C-0.67 4.02 -0.34 2.04 0 0 Z M2 3 C3 5 3 5 3 5 Z " fill="#6B6B6B" transform="translate(261,261)"/>
<path d="M0 0 C2 0.125 2 0.125 4 1 C5.25 3.0625 5.25 3.0625 6 5 C6.103125 4.360625 6.20625 3.72125 6.3125 3.0625 C6.539375 2.381875 6.76625 1.70125 7 1 C7.99 0.67 8.98 0.34 10 0 C10.33 0.66 10.66 1.32 11 2 C11.66 1.34 12.32 0.68 13 0 C13.99 0.33 14.98 0.66 16 1 C17.07009208 3.82115184 17 5.90544541 17 9 C18.32 9 19.64 9 21 9 C21 9.66 21 10.32 21 11 C17.54168414 11.02894547 14.08339928 11.04678 10.625 11.0625 C9.14773438 11.07506836 9.14773438 11.07506836 7.640625 11.08789062 C6.22910156 11.09272461 6.22910156 11.09272461 4.7890625 11.09765625 C3.91975098 11.10289307 3.05043945 11.10812988 2.15478516 11.11352539 C0 11 0 11 -2 10 C-2.1953125 3.9453125 -2.1953125 3.9453125 -2 2 C-1.34 1.34 -0.68 0.68 0 0 Z " fill="#78787A" transform="translate(313,261)"/>
<path d="M0 0 C1.98 0 3.96 0 6 0 C6 8.58 6 17.16 6 26 C4.02 26 2.04 26 0 26 C0 17.42 0 8.84 0 0 Z " fill="#3A3536" transform="translate(445,227)"/>
<path d="M0 0 C4.95 0 9.9 0 15 0 C16.28605661 2.57211322 16.21043941 4.56906966 16.31640625 7.4453125 C16.35830078 8.52167969 16.40019531 9.59804688 16.44335938 10.70703125 C16.48267578 11.83496094 16.52199219 12.96289062 16.5625 14.125 C16.60568359 15.26066406 16.64886719 16.39632813 16.69335938 17.56640625 C16.7996604 20.37747768 16.90169405 23.18863945 17 26 C16.34 26 15.68 26 15 26 C15 18.41 15 10.82 15 3 C11.04 3 7.08 3 3 3 C3.61875 3.9075 4.2375 4.815 4.875 5.75 C6.44389611 8.14948817 7.80443821 10.40961612 9 13 C4.66445183 17.93770764 4.66445183 17.93770764 2 18.1875 C-1.13025015 16.32891397 -2.84366864 13.93500657 -5 11 C-5 10.34 -5 9.68 -5 9 C-4.01 8.67 -3.02 8.34 -2 8 C-1.67 9.98 -1.34 11.96 -1 14 C0.32 13.34 1.64 12.68 3 12 C2.67 9.69 2.34 7.38 2 5 C1.34 5 0.68 5 0 5 C0 3.35 0 1.7 0 0 Z " fill="#EDD357" transform="translate(59,260)"/>
<path d="M0 0 C1.125 4.75 1.125 4.75 0 7 C-2.64 7 -5.28 7 -8 7 C-7.01 7.99 -6.02 8.98 -5 10 C-5.66 10 -6.32 10 -7 10 C-7.33 11.32 -7.66 12.64 -8 14 C-10.27029534 13.60856977 -11.83408198 13.11258722 -13.75 11.8125 C-15.61326 9.11077301 -15.392614 7.20634765 -15 4 C-13.69854501 1.59230827 -12.78123543 0.37615039 -10.3125 -0.8125 C-6.78327516 -1.09865337 -3.49920275 -0.52488041 0 0 Z " fill="#453E3D" transform="translate(252,227)"/>
<path d="M0 0 C0.99 0.33 1.98 0.66 3 1 C3 3.97 3 6.94 3 10 C-0.40562852 10.77842938 -3.50765756 11.09978121 -7 11 C-7 10.34 -7 9.68 -7 9 C-8.32 9.33 -9.64 9.66 -11 10 C-11.33 8.68 -11.66 7.36 -12 6 C-12.66 6 -13.32 6 -14 6 C-13.67 5.01 -13.34 4.02 -13 3 C-9.5625 1.875 -9.5625 1.875 -6 1 C-4 0 -4 0 0 0 Z " fill="#616262" transform="translate(209,261)"/>
<path d="M0 0 C9.9 0 19.8 0 30 0 C30 8 30 8 28 11 C28.33 7.7 28.66 4.4 29 1 C27.2282281 1.06016203 25.45741321 1.14899328 23.6875 1.25 C22.70136719 1.29640625 21.71523437 1.3428125 20.69921875 1.390625 C17.86186186 1.71203008 17.86186186 1.71203008 16.58984375 4.02734375 C15 6 15 6 11.6796875 6.42578125 C10.42414063 6.38839844 9.16859375 6.35101563 7.875 6.3125 C6.61429687 6.28800781 5.35359375 6.26351563 4.0546875 6.23828125 C1 6 1 6 0 5 C0 3.35 0 1.7 0 0 Z " fill="#048DD1" transform="translate(91,254)"/>
<path d="M0 0 C1.134375 0.020625 2.26875 0.04125 3.4375 0.0625 C2.97927532 3.53191546 2.54618317 6.73645049 1.4375 10.0625 C0.7775 10.0625 0.1175 10.0625 -0.5625 10.0625 C-2.12522189 14.45503773 -2.12522189 14.45503773 -2.5625 19.0625 C-5.0375 18.0725 -5.0375 18.0725 -7.5625 17.0625 C-8.01314062 11.35438553 -6.49353416 6.37534527 -4.5625 1.0625 C-3.5625 0.0625 -3.5625 0.0625 0 0 Z " fill="#3D3837" transform="translate(171.5625,226.9375)"/>
<path d="M0 0 C2.64 0 5.28 0 8 0 C10.09350689 3.4019487 10.17942163 6.05272412 10 10 C9.01 10.33 8.02 10.66 7 11 C6.67 11.99 6.34 12.98 6 14 C3 14 3 14 0 13 C0.33 11.68 0.66 10.36 1 9 C0.34 9 -0.32 9 -1 9 C-0.67 6.03 -0.34 3.06 0 0 Z " fill="#3F3938" transform="translate(298,227)"/>
<path d="M0 0 C3.66666667 0 7.33333333 0 11 0 C10.195625 0.61875 9.39125 1.2375 8.5625 1.875 C5.96125481 3.74164041 5.96125481 3.74164041 5 6 C5.99 6 6.98 6 8 6 C8 5.01 8 4.02 8 3 C8.61875 3.185625 9.2375 3.37125 9.875 3.5625 C12.04160178 4.23686176 12.04160178 4.23686176 14 3 C14 5.31 14 7.62 14 10 C9.94910889 10.70111577 6.94805573 11.08911882 3 10 C1.6582426 10.29761717 0.32292557 10.62749922 -1 11 C-1.02688151 9.35425434 -1.04634123 7.70838587 -1.0625 6.0625 C-1.07410156 5.14597656 -1.08570313 4.22945313 -1.09765625 3.28515625 C-1 1 -1 1 0 0 Z M9 4 C9.33 5.32 9.66 6.64 10 8 C10.33 6.68 10.66 5.36 11 4 C10.34 4 9.68 4 9 4 Z " fill="#9B9D9B" transform="translate(154,261)"/>
<path d="M0 0 C0.33 0.66 0.66 1.32 1 2 C1.66 2 2.32 2 3 2 C3 13.22 3 24.44 3 36 C0.36 36 -2.28 36 -5 36 C-5.33 35.34 -5.66 34.68 -6 34 C-4.02 34 -2.04 34 0 34 C0 22.78 0 11.56 0 0 Z " fill="#C8BB6A" transform="translate(82,252)"/>
<path d="M0 0 C4.25219775 0.47246642 6.37314725 2.77272377 9 6 C9 9.45502189 6.82428208 12.14460196 5 15 C8.3 15 11.6 15 15 15 C15 15.33 15 15.66 15 16 C9.33333333 16 3.66666667 16 -2 16 C-1.67558396 14.33157466 -1.34060811 12.66519519 -1 11 C-0.855625 10.2575 -0.71125 9.515 -0.5625 8.75 C-0.376875 8.1725 -0.19125 7.595 0 7 C0.66 6.67 1.32 6.34 2 6 C2.33 5.01 2.66 4.02 3 3 C1.35 3 -0.3 3 -2 3 C-1.34 2.01 -0.68 1.02 0 0 Z " fill="#DA2630" transform="translate(58,222)"/>
<path d="M0 0 C2.64 0 5.28 0 8 0 C8.83679277 2.62394306 9.66956942 5.24904384 10.5 7.875 C10.73847656 8.62136719 10.97695313 9.36773437 11.22265625 10.13671875 C13 15.7734375 13 15.7734375 13 18 C11.0625 17.6875 11.0625 17.6875 9 17 C8.67 16.01 8.34 15.02 8 14 C8.66 14 9.32 14 10 14 C9.01 12.02 8.02 10.04 7 8 C6.01 8.66 5.02 9.32 4 10 C4 9.34 4 8.68 4 8 C2.35 8 0.7 8 -1 8 C-1.33 8.66 -1.66 9.32 -2 10 C-1.34 6.7 -0.68 3.4 0 0 Z " fill="#3F3B3A" transform="translate(413,227)"/>
<path d="M0 0 C11.22 0 22.44 0 34 0 C34 0.66 34 1.32 34 2 C24.1 2.33 14.2 2.66 4 3 C4 8.09890819 4.44281353 10.43225301 6 15 C5.67 15.66 5.34 16.32 5 17 C1.37532675 10.5691281 0.89992956 8.09936608 0 0 Z " fill="#F5CD36" transform="translate(48,252)"/>
<path d="M0 0 C2.31 0 4.62 0 7 0 C7.66 4.29 8.32 8.58 9 13 C7 12 7 12 6 9 C5.34 9 4.68 9 4 9 C4.99 14.28 5.98 19.56 7 25 C8.65 25 10.3 25 12 25 C12.33 23.35 12.66 21.7 13 20 C14 23 14 23 13 26 C10.69 26 8.38 26 6 26 C3.03501416 17.81099149 0 8.77082704 0 0 Z " fill="#625D5B" transform="translate(310,227)"/>
<path d="M0 0 C10.89 0 21.78 0 33 0 C32.67 0.99 32.34 1.98 32 3 C32 2.34 32 1.68 32 1 C22.1 1 12.2 1 2 1 C2.33 2.65 2.66 4.3 3 6 C9.6 6.33 16.2 6.66 23 7 C23 7.66 23 8.32 23 9 C19.35418313 9.02887512 15.70839537 9.04675585 12.0625 9.0625 C10.50112305 9.07506836 10.50112305 9.07506836 8.90820312 9.08789062 C7.91884766 9.09111328 6.92949219 9.09433594 5.91015625 9.09765625 C4.99371338 9.10289307 4.07727051 9.10812988 3.13305664 9.11352539 C1 9 1 9 0 8 C0 5.36 0 2.72 0 0 Z " fill="#2487B8" transform="translate(89,253)"/>
<path d="M0 0 C0.99 0.33 1.98 0.66 3 1 C3 3.31 3 5.62 3 8 C3.99 8 4.98 8 6 8 C6 6.68 6 5.36 6 4 C5.34 4 4.68 4 4 4 C4.33 2.68 4.66 1.36 5 0 C7.97 0 10.94 0 14 0 C11.7629196 3.3556206 11.57482962 3.19278041 8 4 C7.67 4.66 7.34 5.32 7 6 C7.99 6.33 8.98 6.66 10 7 C10 7.99 10 8.98 10 10 C10.66 10.33 11.32 10.66 12 11 C8.04 11 4.08 11 0 11 C0 7.37 0 3.74 0 0 Z " fill="#8E8F8F" transform="translate(188,261)"/>
<path d="M0 0 C1.32 0 2.64 0 4 0 C4 7.59 4 15.18 4 23 C3.01 23 2.02 23 1 23 C-0.2263757 20.54724859 -0.11415314 18.9494219 -0.09765625 16.2109375 C-0.09443359 15.26992187 -0.09121094 14.32890625 -0.08789062 13.359375 C-0.07951172 12.37453125 -0.07113281 11.3896875 -0.0625 10.375 C-0.05798828 9.38242188 -0.05347656 8.38984375 -0.04882812 7.3671875 C-0.03702145 4.9113984 -0.020554 2.45572896 0 0 Z " fill="#332D2C" transform="translate(200,228)"/>
<path d="M0 0 C1.98 0 3.96 0 6 0 C6 2.97 6 5.94 6 9 C7.98 9 9.96 9 12 9 C12 6.03 12 3.06 12 0 C12.33 0 12.66 0 13 0 C13.33 3.63 13.66 7.26 14 11 C11.22003893 11 8.57507433 10.78702071 5.8125 10.5 C4.46091797 10.36078125 4.46091797 10.36078125 3.08203125 10.21875 C2.39496094 10.1465625 1.70789063 10.074375 1 10 C1 10.66 1 11.32 1 12 C1.66 12 2.32 12 3 12 C2.67 12.66 2.34 13.32 2 14 C1.34 14 0.68 14 0 14 C0 9.38 0 4.76 0 0 Z M10 12 C10.66 12 11.32 12 12 12 C11.67 12.66 11.34 13.32 11 14 C10.67 13.34 10.34 12.68 10 12 Z " fill="#605C5A" transform="translate(387,227)"/>
<path d="M0 0 C1.875 0.375 1.875 0.375 4 1 C5.32 1 6.64 1 8 1 C8 1.99 8 2.98 8 4 C6.68 4.33 5.36 4.66 4 5 C3.67 6.32 3.34 7.64 3 9 C0.69 9.33 -1.62 9.66 -4 10 C-5.42944945 7.64561267 -6.08661261 6.51967567 -5.625 3.75 C-5.41875 3.1725 -5.2125 2.595 -5 2 C-5.66 1.67 -6.32 1.34 -7 1 C-5.824375 1.309375 -5.824375 1.309375 -4.625 1.625 C-3.75875 1.74875 -2.8925 1.8725 -2 2 C-1.34 1.34 -0.68 0.68 0 0 Z M-3 6 C-2 8 -2 8 -2 8 Z " fill="#606162" transform="translate(334,261)"/>
<path d="M0 0 C0.33 0 0.66 0 1 0 C1 1.65 1 3.3 1 5 C0.34 5 -0.32 5 -1 5 C-0.95875 5.94875 -0.9175 6.8975 -0.875 7.875 C-1 11 -1 11 -3 13 C-4.31403276 13.70394612 -5.6520257 14.36345658 -7 15 C-7.94875 15.53625 -8.8975 16.0725 -9.875 16.625 C-13.20782325 18.09144223 -15.40421401 18.25684186 -19 18 C-15.06353194 15.37568796 -11.0346599 12.87985293 -6.6875 11 C-4.48319585 9.69374569 -3.95041824 8.33949105 -3 6 C-2.67 5.34 -2.34 4.68 -2 4 C-7.94 3.67 -13.88 3.34 -20 3 C-20 2.67 -20 2.34 -20 2 C-13.4 2 -6.8 2 0 2 C0 1.34 0 0.68 0 0 Z " fill="#4FACD3" transform="translate(112,260)"/>
<path d="M0 0 C3 1 3 1 4.75 3.875 C6 7 6 7 5 10 C6.65 10.33 8.3 10.66 10 11 C9.34 12.98 8.68 14.96 8 17 C6.35 17 4.7 17 3 17 C2.30190555 14.73194205 1.61628983 12.46133393 0.9375 10.1875 C0.73833984 9.54490234 0.53917969 8.90230469 0.33398438 8.24023438 C-1.11328125 3.33984375 -1.11328125 3.33984375 0 0 Z " fill="#312B2A" transform="translate(314,235)"/>
<path d="M0 0 C4.95 0 9.9 0 15 0 C15 1.98 15 3.96 15 6 C12.03 6 9.06 6 6 6 C6 6.99 6 7.98 6 9 C7.65 9 9.3 9 11 9 C11 9.33 11 9.66 11 10 C9.02 10.33 7.04 10.66 5 11 C5 9.02 5 7.04 5 5 C7.31 5 9.62 5 12 5 C12.33 3.68 12.66 2.36 13 1 C9.04 1 5.08 1 1 1 C1 8.92 1 16.84 1 25 C5.62 25 10.24 25 15 25 C15 25.33 15 25.66 15 26 C10.05 26 5.1 26 0 26 C0 17.42 0 8.84 0 0 Z " fill="#7B7675" transform="translate(256,227)"/>
<path d="M0 0 C0.33 0 0.66 0 1 0 C1 11.55 1 23.1 1 35 C-4.73375 35.04125 -10.4675 35.0825 -16.375 35.125 C-18.18403809 35.14320801 -19.99307617 35.16141602 -21.85693359 35.18017578 C-23.28743187 35.18601584 -24.71793347 35.19111255 -26.1484375 35.1953125 C-26.89391846 35.20554443 -27.63939941 35.21577637 -28.4074707 35.22631836 C-30.27317284 35.22695317 -32.13834854 35.12287692 -34 35 C-36 33 -36 33 -36.125 29.875 C-36.08375 28.92625 -36.0425 27.9775 -36 27 C-35.731875 27.61875 -35.46375 28.2375 -35.1875 28.875 C-34.04443152 31.2995233 -34.04443152 31.2995233 -31 33 C-27.70229658 33.37032217 -27.70229658 33.37032217 -23.92578125 33.4140625 C-22.67450439 33.44967285 -21.42322754 33.4852832 -20.1340332 33.52197266 C-18.54292725 33.55597168 -16.95182129 33.5899707 -15.3125 33.625 C-10.259375 33.74875 -5.20625 33.8725 0 34 C0 22.78 0 11.56 0 0 Z " fill="#D7A69A" transform="translate(84,213)"/>
<path d="M0 0 C1.98 0 3.96 0 6 0 C5.01 0.66 4.02 1.32 3 2 C3.33 3.65 3.66 5.3 4 7 C3.34 7 2.68 7 2 7 C2 7.99 2 8.98 2 10 C1.01 10.33 0.02 10.66 -1 11 C-1.144375 12.2375 -1.28875 13.475 -1.4375 14.75 C-1.78688502 17.56504499 -2.20379366 20.2701497 -3 23 C-2.01 23.33 -1.02 23.66 0 24 C0 24.66 0 25.32 0 26 C-2.31 26 -4.62 26 -7 26 C-4.86602101 17.26910121 -2.71981556 8.57153995 0 0 Z " fill="#504B4B" transform="translate(345,227)"/>
<path d="M0 0 C0 1.98 0 3.96 0 6 C-2.01822917 5.96744792 -4.03645833 5.93489583 -6.0546875 5.90234375 C-8.08185404 5.87350758 -8.08185404 5.87350758 -10 7 C-11.9453125 6.66015625 -11.9453125 6.66015625 -14.125 6.0625 C-14.84945313 5.86785156 -15.57390625 5.67320312 -16.3203125 5.47265625 C-16.87460937 5.31667969 -17.42890625 5.16070312 -18 5 C-18 3.68 -18 2.36 -18 1 C-15.1875205 0.83298107 -12.37501801 0.66636797 -9.5625 0.5 C-8.76005859 0.45230469 -7.95761719 0.40460938 -7.13085938 0.35546875 C-1.11328125 0 -1.11328125 0 0 0 Z " fill="#322C2C" transform="translate(444,227)"/>
<path d="M0 0 C1 1 1 1 1.09765625 2.84765625 C1.04882812 5.92382812 1.04882812 5.92382812 1 9 C-2.21451269 10.60725635 -5.43612536 10.05748185 -9 10 C-8.34 9.67 -7.68 9.34 -7 9 C-7 6.03 -7 3.06 -7 0 C-4.31633121 -1.3418344 -2.84719317 -0.73004953 0 0 Z M-3 3 C-2.67 3.99 -2.34 4.98 -2 6 C-2 5.01 -2 4.02 -2 3 C-2.33 3 -2.66 3 -3 3 Z " fill="#868686" transform="translate(451,262)"/>
<path d="M0 0 C0.66 0.33 1.32 0.66 2 1 C2 3.64 2 6.28 2 9 C-9.22 9 -20.44 9 -32 9 C-27.96184058 6.98092029 -26.09731422 6.71030135 -21.703125 6.5859375 C-20.49785156 6.54726562 -19.29257813 6.50859375 -18.05078125 6.46875 C-16.16939453 6.42234375 -16.16939453 6.42234375 -14.25 6.375 C-12.98027344 6.33632812 -11.71054688 6.29765625 -10.40234375 6.2578125 C-7.2683743 6.16355778 -4.13441051 6.07794834 -1 6 C-0.67 4.02 -0.34 2.04 0 0 Z " fill="#6DAE9E" transform="translate(123,239)"/>
<path d="M0 0 C5.94 0 11.88 0 18 0 C18 0.33 18 0.66 18 1 C12.39 1 6.78 1 1 1 C1 2.32 1 3.64 1 5 C2.3921875 4.9690625 2.3921875 4.9690625 3.8125 4.9375 C7 5 7 5 10 6 C10.33 5.67 10.66 5.34 11 5 C13.33297433 4.95907063 15.66705225 4.95758277 18 5 C18 5.33 18 5.66 18 6 C16.35 6 14.7 6 13 6 C13 11.28 13 16.56 13 22 C12.67 22 12.34 22 12 22 C11.93941406 21.30132812 11.87882812 20.60265625 11.81640625 19.8828125 C11.73261719 18.97273438 11.64882813 18.06265625 11.5625 17.125 C11.48128906 16.22007812 11.40007812 15.31515625 11.31640625 14.3828125 C11.13010715 11.98889139 11.13010715 11.98889139 10 10 C9.34 10 8.68 10 8 10 C7.67 10.66 7.34 11.32 7 12 C6.67 10.35 6.34 8.7 6 7 C3.03 6.505 3.03 6.505 0 6 C0 4.02 0 2.04 0 0 Z " fill="#484543" transform="translate(425,227)"/>
<path d="M0 0 C0.33 0 0.66 0 1 0 C1.33 2.31 1.66 4.62 2 7 C1.938125 6.21625 1.87625 5.4325 1.8125 4.625 C1.874375 3.75875 1.93625 2.8925 2 2 C2.99 1.34 3.98 0.68 5 0 C6.88057664 1.88057664 6.46277585 4.57124096 6.71875 7.08984375 C6.91037786 9.08088347 6.91037786 9.08088347 8 11 C1.73 11 -4.54 11 -11 11 C-11 10.67 -11 10.34 -11 10 C-8.69 10 -6.38 10 -4 10 C-4 8.35 -4 6.7 -4 5 C-2.68 5.33 -1.36 5.66 0 6 C0 4.02 0 2.04 0 0 Z " fill="#929393" transform="translate(233,261)"/>
<path d="M0 0 C1 3 2 6 3 9 C1.68 8.67 0.36 8.34 -1 8 C-1 5.69 -1 3.38 -1 1 C-2.98 1 -4.96 1 -7 1 C-7 4.3 -7 7.6 -7 11 C-8.98 11 -10.96 11 -13 11 C-13 8.36 -13 5.72 -13 3 C-12.34 3.66 -11.68 4.32 -11 5 C-10.87625 4.360625 -10.7525 3.72125 -10.625 3.0625 C-10.41875 2.381875 -10.2125 1.70125 -10 1 C-6.78548731 -0.60725635 -3.56387464 -0.05748185 0 0 Z " fill="#484343" transform="translate(400,242)"/>
<path d="M0 0 C0.99 0 1.98 0 3 0 C4.59412284 3.18824568 4.10174735 6.62896662 4.0625 10.125 C4.05798828 10.87910156 4.05347656 11.63320312 4.04882812 12.41015625 C4.03703499 14.27347127 4.01909942 16.13674555 4 18 C2.35 18 0.7 18 -1 18 C-0.505 9.09 -0.505 9.09 0 0 Z " fill="#312D2B" transform="translate(187,234)"/>
<path d="M0 0 C2 0.125 2 0.125 4 1 C6.14849825 4.0531291 6.50301611 7.35545149 7 11 C0.25 11.125 0.25 11.125 -2 10 C-2.1953125 3.9453125 -2.1953125 3.9453125 -2 2 C-1.34 1.34 -0.68 0.68 0 0 Z " fill="#8B8E8D" transform="translate(313,261)"/>
<path d="M0 0 C0.33 0.99 0.66 1.98 1 3 C1.66 2.34 2.32 1.68 3 1 C3.79953138 4.28696233 4.09658936 5.71023192 3 9 C1.02 9.33 -0.96 9.66 -3 10 C-3.061875 9.236875 -3.12375 8.47375 -3.1875 7.6875 C-3.76935262 4.76948191 -3.76935262 4.76948191 -6.5625 3.1875 C-7.366875 2.795625 -8.17125 2.40375 -9 2 C-9 2.99 -9 3.98 -9 5 C-9.99 4.67 -10.98 4.34 -12 4 C-8.31497587 -0.23095363 -5.4879376 -1.82931253 0 0 Z " fill="#696A69" transform="translate(171,262)"/>
<path d="M0 0 C1.65 0 3.3 0 5 0 C5.33 0.99 5.66 1.98 6 3 C5.01 2.67 4.02 2.34 3 2 C2.67 5.96 2.34 9.92 2 14 C8.6 14 15.2 14 22 14 C22 14.33 22 14.66 22 15 C14.74 15 7.48 15 0 15 C-1.23689062 12.52621876 -1.13310087 10.82084683 -1.125 8.0625 C-1.12757812 7.18722656 -1.13015625 6.31195313 -1.1328125 5.41015625 C-1 3 -1 3 0 0 Z " fill="#64B88D" transform="translate(98,223)"/>
<path d="M0 0 C1.32 0 2.64 0 4 0 C4 4.95 4 9.9 4 15 C2.02 15.99 2.02 15.99 0 17 C0 11.39 0 5.78 0 0 Z " fill="#332E2C" transform="translate(156,227)"/>
<path d="M0 0 C2.33294775 -0.04241723 4.66702567 -0.04092937 7 0 C8 1 8 1 8.09765625 3.06640625 C8.08605469 3.89011719 8.07445312 4.71382813 8.0625 5.5625 C8.05347656 6.38878906 8.04445313 7.21507812 8.03515625 8.06640625 C8.02355469 8.70449219 8.01195312 9.34257812 8 10 C5.17068148 10.80928705 2.68915923 11.11148599 -0.25 11.0625 C-2.10625 11.0315625 -2.10625 11.0315625 -4 11 C-3.34 10.67 -2.68 10.34 -2 10 C-1.67 9.34 -1.34 8.68 -1 8 C-1 8.66 -1 9.32 -1 10 C0.32 9.67 1.64 9.34 3 9 C2.42655063 6.13275314 2.1385485 5.1385485 0 3 C0.66 3 1.32 3 2 3 C2 2.34 2 1.68 2 1 C1.34 0.67 0.68 0.34 0 0 Z " fill="#999A9A" transform="translate(347,261)"/>
<path d="M0 0 C1.98 0 3.96 0 6 0 C6 7.59 6 15.18 6 23 C9.465 22.505 9.465 22.505 13 22 C13 23.32 13 24.64 13 26 C9.37 26 5.74 26 2 26 C2.66 25.67 3.32 25.34 4 25 C4 17.41 4 9.82 4 2 C2.68 1.34 1.36 0.68 0 0 Z " fill="#545153" transform="translate(400,227)"/>
<path d="M0 0 C0.66 0 1.32 0 2 0 C2 0.66 2 1.32 2 2 C3.32 1.34 4.64 0.68 6 0 C5.67 0.99 5.34 1.98 5 3 C3.68 3 2.36 3 1 3 C1.495 3.763125 1.99 4.52625 2.5 5.3125 C4 8 4 8 4 11 C-0.62 11 -5.24 11 -10 11 C-10 10.67 -10 10.34 -10 10 C-8.35 10 -6.7 10 -5 10 C-5 8.02 -5 6.04 -5 4 C-3.68 4.66 -2.36 5.32 -1 6 C-0.67 4.02 -0.34 2.04 0 0 Z " fill="#8D8D8D" transform="translate(261,261)"/>
<path d="M0 0 C0.99 0.99 1.98 1.98 3 3 C2.34 4.32 1.68 5.64 1 7 C0.67 6.34 0.34 5.68 0 5 C-0.99 5 -1.98 5 -3 5 C-3 5.99 -3 6.98 -3 8 C-3.66 8 -4.32 8 -5 8 C-5.33 8.66 -5.66 9.32 -6 10 C-6.66 9.34 -7.32 8.68 -8 8 C-7.625 4.375 -7.625 4.375 -7 1 C-5.5459375 1.0309375 -5.5459375 1.0309375 -4.0625 1.0625 C-1.12534105 1.35618499 -1.12534105 1.35618499 0 0 Z " fill="#342D2A" transform="translate(419,234)"/>
<path d="M0 0 C1.67654729 0.27942455 3.34259285 0.62331656 5 1 C6.3921875 1.2784375 6.3921875 1.2784375 7.8125 1.5625 C8.534375 1.706875 9.25625 1.85125 10 2 C9.8125 3.875 9.8125 3.875 9 6 C6.5625 7.3125 6.5625 7.3125 4 8 C3.34 7.67 2.68 7.34 2 7 C2 7.99 2 8.98 2 10 C1.34 10 0.68 10 0 10 C-0.19412181 8.52168779 -0.38012131 7.04230684 -0.5625 5.5625 C-0.66691406 4.73878906 -0.77132813 3.91507812 -0.87890625 3.06640625 C-0.91886719 2.38449219 -0.95882813 1.70257813 -1 1 C-0.67 0.67 -0.34 0.34 0 0 Z " fill="#626262" transform="translate(424,261)"/>
<path d="M0 0 C1.67542976 0.28604898 3.34385343 0.61781233 5 1 C5.33 2.65 5.66 4.3 6 6 C4.02 6.99 4.02 6.99 2 8 C2 8.99 2 9.98 2 11 C1.01 11 0.02 11 -1 11 C-1.02688151 9.35425434 -1.04634123 7.70838587 -1.0625 6.0625 C-1.07410156 5.14597656 -1.08570313 4.22945313 -1.09765625 3.28515625 C-1 1 -1 1 0 0 Z " fill="#818281" transform="translate(216,261)"/>
<path d="M0 0 C1.32 0.66 2.64 1.32 4 2 C3.67 4.97 3.34 7.94 3 11 C1.68 10.67 0.36 10.34 -1 10 C-1.33 10.33 -1.66 10.66 -2 11 C-3.66617115 11.04063832 -5.33388095 11.042721 -7 11 C-6.67 10.34 -6.34 9.68 -6 9 C-5.01 9.33 -4.02 9.66 -3 10 C-3.061875 9.0925 -3.12375 8.185 -3.1875 7.25 C-2.98327924 3.71017358 -2.35448165 2.55068845 0 0 Z " fill="#808183" transform="translate(376,261)"/>
<path d="M0 0 C0.99 0 1.98 0 3 0 C4.125 4.75 4.125 4.75 3 7 C4.65 7 6.3 7 8 7 C8 8.32 8 9.64 8 11 C5.03 10.67 2.06 10.34 -1 10 C-1.125 3.375 -1.125 3.375 0 0 Z " fill="#6D6D6D" transform="translate(240,261)"/>
<path d="M0 0 C0.33 0.66 0.66 1.32 1 2 C3.97 2 6.94 2 10 2 C10 3.65 10 5.3 10 7 C6.37 7 2.74 7 -1 7 C-0.67 4.69 -0.34 2.38 0 0 Z " fill="#413B3A" transform="translate(261,245)"/>
<path d="M0 0 C1.32 0.66 2.64 1.32 4 2 C4 2.66 4 3.32 4 4 C4.99 4.33 5.98 4.66 7 5 C6.34 6.98 5.68 8.96 5 11 C2.75 11.75 2.75 11.75 0 12 C-2.3125 10.0625 -2.3125 10.0625 -4 8 C-2.35 7.67 -0.7 7.34 1 7 C0.67 4.69 0.34 2.38 0 0 Z " fill="#50A377" transform="translate(108,218)"/>
<path d="M0 0 C0.99 0 1.98 0 3 0 C3.45375 1.134375 3.9075 2.26875 4.375 3.4375 C5.57095806 7.04721692 5.57095806 7.04721692 8 8 C8.33 8.99 8.66 9.98 9 11 C6.03 11 3.06 11 0 11 C0 7.37 0 3.74 0 0 Z M3 4 C4 7 4 7 4 7 Z " fill="#8D8D8D" transform="translate(358,261)"/>
<path d="M0 0 C0.99 0.495 0.99 0.495 2 1 C1.67 3.64 1.34 6.28 1 9 C2.03640625 8.72285156 3.0728125 8.44570313 4.140625 8.16015625 C5.51041222 7.79425418 6.88020413 7.42836969 8.25 7.0625 C9.27287109 6.78889648 9.27287109 6.78889648 10.31640625 6.50976562 C13.53860894 5.64946879 16.76053223 4.79316866 20 4 C20.33 4.66 20.66 5.32 21 6 C20.01 6 19.02 6 18 6 C17.67 6.66 17.34 7.32 17 8 C11.13297012 10.91425773 6.33842759 11.26768552 0 10 C0 6.7 0 3.4 0 0 Z " fill="#67B0BE" transform="translate(89,278)"/>
<path d="M0 0 C1.67542976 0.28604898 3.34385343 0.61781233 5 1 C4.814375 1.9075 4.62875 2.815 4.4375 3.75 C4.04265379 6.68314324 4.05308428 8.2644657 5 11 C3.02 11 1.04 11 -1 11 C-1.02688151 9.35425434 -1.04634123 7.70838587 -1.0625 6.0625 C-1.07410156 5.14597656 -1.08570313 4.22945313 -1.09765625 3.28515625 C-1 1 -1 1 0 0 Z " fill="#868686" transform="translate(281,261)"/>
<path d="M0 0 C1.98 0 3.96 0 6 0 C6 3.3 6 6.6 6 10 C5.01 10 4.02 10 3 10 C2.875 3.25 2.875 3.25 4 1 C3.01 1 2.02 1 1 1 C1 8.59 1 16.18 1 24 C0.67 24 0.34 24 0 24 C0 16.08 0 8.16 0 0 Z " fill="#585453" transform="translate(445,227)"/>
<path d="M0 0 C3.09202435 0.74846895 3.09202435 0.74846895 6.0625 -0.5 C5.51144091 3.4492568 4.67314629 6.84920174 3.0625 10.5 C2.4025 10.5 1.7425 10.5 1.0625 10.5 C0.4025 7.53 -0.2575 4.56 -0.9375 1.5 C-2.2575 1.17 -3.5775 0.84 -4.9375 0.5 C-2.9375 -0.5 -2.9375 -0.5 0 0 Z " fill="#6A6B6A" transform="translate(414.9375,261.5)"/>
<path d="M0 0 C0.40729228 2.32156597 0.74438677 4.6568787 1 7 C-1.31 7.33 -3.62 7.66 -6 8 C-6 5.36 -6 2.72 -6 0 C-2.25 -1.125 -2.25 -1.125 0 0 Z " fill="#898F8A" transform="translate(388,264)"/>
<path d="M0 0 C2.31 0 4.62 0 7 0 C7.66 3.3 8.32 6.6 9 10 C8.67 9.34 8.34 8.68 8 8 C5.47266765 7.34444881 5.47266765 7.34444881 3 7 C2.67 6.01 2.34 5.02 2 4 C1.01 4.495 1.01 4.495 0 5 C0 3.35 0 1.7 0 0 Z " fill="#524D4C" transform="translate(322,227)"/>
<path d="M0 0 C1.32 0.33 2.64 0.66 4 1 C4.66666667 3.66666667 5.33333333 6.33333333 6 9 C3.23735711 9.59732819 0.83967231 10 -2 10 C-2.33 8.68 -2.66 7.36 -3 6 C-1.68 5.67 -0.36 5.34 1 5 C0.67 3.35 0.34 1.7 0 0 Z " fill="#5F6060" transform="translate(345,261)"/>
<path d="M0 0 C0.99 0.33 1.98 0.66 3 1 C3 1.66 3 2.32 3 3 C3.66 3 4.32 3 5 3 C4.67 5.97 4.34 8.94 4 12 C2.68 12 1.36 12 0 12 C0 8.04 0 4.08 0 0 Z " fill="#332C2B" transform="translate(209,240)"/>
<path d="M0 0 C3.66666667 0 7.33333333 0 11 0 C10.21625 0.61875 9.4325 1.2375 8.625 1.875 C6.03162353 3.89858661 6.03162353 3.89858661 4 6 C4 5.01 4 4.02 4 3 C3.01 3 2.02 3 1 3 C0.79029441 7.14093698 0.79029441 7.14093698 2 11 C1.01 11 0.02 11 -1 11 C-1.02688151 9.35425434 -1.04634123 7.70838587 -1.0625 6.0625 C-1.07410156 5.14597656 -1.08570313 4.22945313 -1.09765625 3.28515625 C-1 1 -1 1 0 0 Z " fill="#A6A6A6" transform="translate(154,261)"/>
<path d="M0 0 C0.66 0 1.32 0 2 0 C2.70048208 7.42511009 0.37081613 12.4509858 -3 19 C-3.33 19 -3.66 19 -4 19 C-4 17.35 -4 15.7 -4 14 C-3.34 14 -2.68 14 -2 14 C-1.93941406 13.24074219 -1.87882812 12.48148437 -1.81640625 11.69921875 C-1.69072266 10.20841797 -1.69072266 10.20841797 -1.5625 8.6875 C-1.48128906 7.70136719 -1.40007812 6.71523438 -1.31640625 5.69921875 C-1 3 -1 3 0 0 Z " fill="#81A5AA" transform="translate(123,254)"/>
<path d="M0 0 C0.99 0.33 1.98 0.66 3 1 C2.34 3.97 1.68 6.94 1 10 C-1.64 10 -4.28 10 -7 10 C-6 7 -6 7 -3.5 5.5625 C-0.84127915 4.25447976 -0.84127915 4.25447976 -0.1875 1.8125 C-0.125625 1.214375 -0.06375 0.61625 0 0 Z " fill="#5D5D5F" transform="translate(372,261)"/>
<path d="M0 0 C0.33 0.66 0.66 1.32 1 2 C1.66 2 2.32 2 3 2 C2.67 3.32 2.34 4.64 2 6 C4.31 6.66 6.62 7.32 9 8 C7.3125 9.625 7.3125 9.625 5 11 C2.25 10.1875 2.25 10.1875 0 9 C-0.66 9.66 -1.32 10.32 -2 11 C-1 3.57142857 -1 3.57142857 0 0 Z " fill="#585454" transform="translate(296,234)"/>
<path d="M0 0 C1.98 0 3.96 0 6 0 C6.042721 1.66611905 6.04063832 3.33382885 6 5 C5 6 5 6 1.9375 6.0625 C0.968125 6.041875 -0.00125 6.02125 -1 6 C-1.33 4.68 -1.66 3.36 -2 2 C-1.34 2 -0.68 2 0 2 C0 1.34 0 0.68 0 0 Z " fill="#474344" transform="translate(262,237)"/>
<path d="M0 0 C4 1 4 1 6 2 C6 2.66 6 3.32 6 4 C5.34 4 4.68 4 4 4 C4 6.31 4 8.62 4 11 C3.01 11 2.02 11 1 11 C0.67 7.37 0.34 3.74 0 0 Z " fill="#858786" transform="translate(408,261)"/>
<path d="M0 0 C0.598125 0.165 1.19625 0.33 1.8125 0.5 C4.11344336 1.1114124 4.11344336 1.1114124 7 1 C7 4.3 7 7.6 7 11 C6.01 10.67 5.02 10.34 4 10 C4.66 10 5.32 10 6 10 C6 8.68 6 7.36 6 6 C5.071875 5.7834375 5.071875 5.7834375 4.125 5.5625 C2 5 2 5 0 4 C0 2.68 0 1.36 0 0 Z " fill="#767676" transform="translate(270,261)"/>
<path d="M0 0 C1 2 1 2 0.44140625 4.1640625 C0.15136719 4.97617188 -0.13867188 5.78828125 -0.4375 6.625 C-0.72496094 7.44226563 -1.01242188 8.25953125 -1.30859375 9.1015625 C-1.65083984 10.04128906 -1.65083984 10.04128906 -2 11 C-2.66 11 -3.32 11 -4 11 C-4 13.64 -4 16.28 -4 19 C-4.66 18.67 -5.32 18.34 -6 18 C-5.8349028 10.67568804 -4.43630328 5.86050397 0 0 Z " fill="#D9525A" transform="translate(55,226)"/>
<path d="M0 0 C1.57554035 2.88628401 2.46276373 5.53342384 3.125 8.75 C3.29257813 9.54921875 3.46015625 10.3484375 3.6328125 11.171875 C3.81457031 12.07679688 3.81457031 12.07679688 4 13 C3.34 11.68 2.68 10.36 2 9 C1.54625 9.495 1.0925 9.99 0.625 10.5 C-1 12 -1 12 -3 12 C-2.40075776 7.80530429 -1.42500059 3.99000166 0 0 Z " fill="#504C4A" transform="translate(175,228)"/>
<path d="M0 0 C1.65 0 3.3 0 5 0 C4.67 1.98 4.34 3.96 4 6 C3.34 6 2.68 6 2 6 C2 6.66 2 7.32 2 8 C3.32 8 4.64 8 6 8 C6.33 7.34 6.66 6.68 7 6 C7 6.99 7 7.98 7 9 C4.69 9 2.38 9 0 9 C0 6.03 0 3.06 0 0 Z " fill="#585A59" transform="translate(222,262)"/>
<path d="M0 0 C2.44609118 4.89218236 1.54875688 5.98931596 0 11 C0.33 11.99 0.66 12.98 1 14 C1.66 14 2.32 14 3 14 C3 14.66 3 15.32 3 16 C0.69 16 -1.62 16 -4 16 C-2.68 10.72 -1.36 5.44 0 0 Z " fill="#6F6C6B" transform="translate(342,237)"/>
<path d="M0 0 C2.31 0 4.62 0 7 0 C6.34 2.97 5.68 5.94 5 9 C4.34 7.68 3.68 6.36 3 5 C1.68 5.33 0.36 5.66 -1 6 C-0.67 4.02 -0.34 2.04 0 0 Z " fill="#413D3B" transform="translate(335,227)"/>
<path d="M0 0 C0 0.33 0 0.66 0 1 C-0.94875 1.12375 -1.8975 1.2475 -2.875 1.375 C-6.08667191 1.71687177 -6.08667191 1.71687177 -8 4 C-8.33 3.01 -8.66 2.02 -9 1 C-11.40072955 3.88087546 -13.47291037 6.56404834 -15 10 C-15.22275681 6.73290013 -15.32663401 4.60427292 -13.75 1.6875 C-9.68656009 -2.23081705 -5.17231952 -0.77584793 0 0 Z " fill="#706D6C" transform="translate(252,227)"/>
<path d="M0 0 C1 2 1 2 0.50390625 3.98828125 C-1.73645017 9.51945166 -4.01885917 12.33164322 -9.1953125 15.3203125 C-9.79085937 15.54460937 -10.38640625 15.76890625 -11 16 C-11.66 15.67 -12.32 15.34 -13 15 C-11.576875 14.1028125 -11.576875 14.1028125 -10.125 13.1875 C-6.86035803 11.18437474 -6.86035803 11.18437474 -5 8 C-4.34 8 -3.68 8 -3 8 C-2.87625 7.236875 -2.7525 6.47375 -2.625 5.6875 C-2 3 -2 3 0 0 Z " fill="#1B87B9" transform="translate(118,265)"/>
<path d="M0 0 C0.33 0.33 0.66 0.66 1 1 C0.91062197 2.52519276 0.75462854 4.04681929 0.5625 5.5625 C0.46066406 6.38878906 0.35882813 7.21507812 0.25390625 8.06640625 C0.17011719 8.70449219 0.08632813 9.34257812 0 10 C-0.28875 9.401875 -0.5775 8.80375 -0.875 8.1875 C-2.04742026 5.80672208 -2.04742026 5.80672208 -4 3 C-5.32 3 -6.64 3 -8 3 C-8 2.34 -8 1.68 -8 1 C-5.26752652 -0.36623674 -3.01801098 -0.128426 0 0 Z " fill="#5B5C5B" transform="translate(390,261)"/>
<path d="M0 0 C1.98 0 3.96 0 6 0 C6 2.64 6 5.28 6 8 C4.02 8.99 4.02 8.99 2 10 C1.375 7.6875 1.375 7.6875 1 5 C1.66 4.01 2.32 3.02 3 2 C2.01 1.34 1.02 0.68 0 0 Z " fill="#514D4D" transform="translate(274,227)"/>
<path d="M0 0 C1.32 0 2.64 0 4 0 C3.25 6.625 3.25 6.625 1 10 C0.67 8.35 0.34 6.7 0 5 C-0.66 5 -1.32 5 -2 5 C-2 4.01 -2 3.02 -2 2 C-1.34 2 -0.68 2 0 2 C0 1.34 0 0.68 0 0 Z " fill="#383030" transform="translate(171,227)"/>
<path d="M0 0 C0.33 0 0.66 0 1 0 C1 1.98 1 3.96 1 6 C2.98 6 4.96 6 7 6 C6.67 7.32 6.34 8.64 6 10 C3.36 10 0.72 10 -2 10 C-1.855625 9.46375 -1.71125 8.9275 -1.5625 8.375 C-0.90546252 5.60084173 -0.44780052 2.81474612 0 0 Z " fill="#929392" transform="translate(392,262)"/>
<path d="M0 0 C0.66 0.33 1.32 0.66 2 1 C2.125 8.75 2.125 8.75 1 11 C-0.65 11 -2.3 11 -4 11 C-4 10.34 -4 9.68 -4 9 C-3.01 9 -2.02 9 -1 9 C-1.020625 7.700625 -1.04125 6.40125 -1.0625 5.0625 C-1.08399454 3.70834367 -1.07148199 2.35243917 -1 1 C-0.67 0.67 -0.34 0.34 0 0 Z " fill="#939594" transform="translate(186,261)"/>
<path d="M0 0 C0.66 0 1.32 0 2 0 C2 0.66 2 1.32 2 2 C3.98 1.34 5.96 0.68 8 0 C6.375 6.75 6.375 6.75 3 9 C2.01 6.03 1.02 3.06 0 0 Z " fill="#474241" transform="translate(215,245)"/>
<path d="M0 0 C0.99 0.66 1.98 1.32 3 2 C2.35455571 5.48539917 0.89865603 8.02819057 -1 11 C2.3 11 5.6 11 9 11 C9 11.33 9 11.66 9 12 C5.37 12 1.74 12 -2 12 C-2.125 6.25 -2.125 6.25 -1 4 C-0.34 4 0.32 4 1 4 C0.67 2.68 0.34 1.36 0 0 Z " fill="#C6716E" transform="translate(64,226)"/>
<path d="M0 0 C1.134375 0.020625 2.26875 0.04125 3.4375 0.0625 C3.1075 2.0425 2.7775 4.0225 2.4375 6.0625 C1.4475 6.0625 0.4575 6.0625 -0.5625 6.0625 C-0.5625 5.4025 -0.5625 4.7425 -0.5625 4.0625 C-1.5525 4.0625 -2.5425 4.0625 -3.5625 4.0625 C-3.8925 3.0725 -4.2225 2.0825 -4.5625 1.0625 C-3.5625 0.0625 -3.5625 0.0625 0 0 Z " fill="#3B3833" transform="translate(249.5625,227.9375)"/>
<path d="M0 0 C0.86625 0.2784375 0.86625 0.2784375 1.75 0.5625 C4.20692525 1.04023546 5.64397534 0.75729364 8 0 C7.01 0.495 7.01 0.495 6 1 C6 3.97 6 6.94 6 10 C5.34 10 4.68 10 4 10 C3 7 3 7 3 5 C2.01 4.34 1.02 3.68 0 3 C0 2.01 0 1.02 0 0 Z " fill="#555555" transform="translate(438,261)"/>
<path d="M0 0 C1.0625 2.375 1.0625 2.375 2 5 C1.67 5.66 1.34 6.32 1 7 C-3.75 6.25 -3.75 6.25 -6 4 C-2.25 0 -2.25 0 0 0 Z " fill="#322E2C" transform="translate(290,245)"/>
<path d="M0 0 C1.32 0 2.64 0 4 0 C4 2.64 4 5.28 4 8 C2.68 8.33 1.36 8.66 0 9 C0 6.03 0 3.06 0 0 Z " fill="#332D2D" transform="translate(388,227)"/>
<path d="M0 0 C0.99 0 1.98 0 3 0 C3 0.66 3 1.32 3 2 C2.34 2 1.68 2 1 2 C1 2.99 1 3.98 1 5 C1.66 5 2.32 5 3 5 C3.33 6.65 3.66 8.3 4 10 C3.34 10 2.68 10 2 10 C1.34 9.34 0.68 8.68 0 8 C-0.99 8.495 -0.99 8.495 -2 9 C-1.125 1.125 -1.125 1.125 0 0 Z " fill="#474342" transform="translate(168,227)"/>
<path d="M0 0 C-0.33 1.65 -0.66 3.3 -1 5 C-4.3 5 -7.6 5 -11 5 C-10.34 4.34 -9.68 3.68 -9 3 C-8.67 2.34 -8.34 1.68 -8 1 C-5.07175348 0.02391783 -3.04386724 -0.08226668 0 0 Z " fill="#6C6E6D" transform="translate(407,261)"/>
<path d="M0 0 C1.98 0.66 3.96 1.32 6 2 C5.01 2.66 4.02 3.32 3 4 C1.80767387 6.05003955 1.80767387 6.05003955 1 8 C0.01 7.34 -0.98 6.68 -2 6 C-1.125 1.125 -1.125 1.125 0 0 Z " fill="#565354" transform="translate(239,245)"/>
<path d="M0 0 C2.31 0 4.62 0 7 0 C7.33 1.65 7.66 3.3 8 5 C5.69 4.67 3.38 4.34 1 4 C0.67 2.68 0.34 1.36 0 0 Z " fill="#4F4747" transform="translate(310,227)"/>
<path d="M0 0 C0.33 0.99 0.66 1.98 1 3 C0.01 4.485 0.01 4.485 -1 6 C-3.31 5.67 -5.62 5.34 -8 5 C-7.67 4.01 -7.34 3.02 -7 2 C-4.56723614 0.81480735 -2.71982714 0 0 0 Z " fill="#686968" transform="translate(203,262)"/>
<path d="M0 0 C2.475 0.99 2.475 0.99 5 2 C5 4.64 5 7.28 5 10 C3.68 9.01 2.36 8.02 1 7 C1.33 6.34 1.66 5.68 2 5 C1.34 4.67 0.68 4.34 0 4 C0 2.68 0 1.36 0 0 Z " fill="#9B9B9B" transform="translate(447,261)"/>
<path d="M0 0 C0.99 0.33 1.98 0.66 3 1 C3.6875 3.0625 3.6875 3.0625 4 5 C0.25 8 0.25 8 -2 8 C-1.125 1.125 -1.125 1.125 0 0 Z " fill="#7B7373" transform="translate(205,261)"/>
<path d="M0 0 C0.99 0.33 1.98 0.66 3 1 C3.125 6.75 3.125 6.75 2 9 C2.99 9.33 3.98 9.66 5 10 C3.35 10 1.7 10 0 10 C0 6.7 0 3.4 0 0 Z " fill="#797A7A" transform="translate(188,261)"/>
<path d="M0 0 C0.33 0 0.66 0 1 0 C1.34684009 5.28931132 1.34684009 5.28931132 1 8 C-0.8125 10.0625 -0.8125 10.0625 -3 11 C-3.99 10.67 -4.98 10.34 -6 10 C-5.65066406 9.52949219 -5.30132812 9.05898437 -4.94140625 8.57421875 C-4.48636719 7.95160156 -4.03132812 7.32898438 -3.5625 6.6875 C-2.88380859 5.76517578 -2.88380859 5.76517578 -2.19140625 4.82421875 C-0.82663692 2.90322899 -0.82663692 2.90322899 0 0 Z " fill="#464241" transform="translate(253,242)"/>
<path d="M0 0 C0.99 0 1.98 0 3 0 C3.66 2.31 4.32 4.62 5 7 C3.02 7 1.04 7 -1 7 C-0.67 4.69 -0.34 2.38 0 0 Z " fill="#616161" transform="translate(155,264)"/>
<path d="M0 0 C0.99 0.33 1.98 0.66 3 1 C3.625 3.3125 3.625 3.3125 4 6 C3.01 7.485 3.01 7.485 2 9 C2 8.34 2 7.68 2 7 C1.34 6.67 0.68 6.34 0 6 C-1.125 3.9375 -1.125 3.9375 -2 2 C-1.34 1.34 -0.68 0.68 0 0 Z " fill="#312C2A" transform="translate(336,231)"/>
<path d="M0 0 C0.66 0 1.32 0 2 0 C2.25532751 3.06393013 2.21861333 4.63233212 0.625 7.3125 C-0.179375 8.1478125 -0.179375 8.1478125 -1 9 C-1.66 9 -2.32 9 -3 9 C-3 9.66 -3 10.32 -3 11 C-3.66 11 -4.32 11 -5 11 C-4.41980487 7.63486826 -3.36548527 6.36548527 -1 4 C-0.28552357 1.89667109 -0.28552357 1.89667109 0 0 Z " fill="#478596" transform="translate(117,269)"/>
<path d="M0 0 C2.475 0.495 2.475 0.495 5 1 C4.34 3.31 3.68 5.62 3 8 C2.01 8 1.02 8 0 8 C0 5.36 0 2.72 0 0 Z " fill="#808080" transform="translate(438,264)"/>
<path d="M0 0 C3.26011642 0.69378511 4.79038253 1.45893991 7 4 C6.34 5.65 5.68 7.3 5 9 C2.38952199 7.694761 2.31933577 6.64173426 1.375 3.9375 C1.11460937 3.20402344 0.85421875 2.47054687 0.5859375 1.71484375 C0.39257812 1.14894531 0.19921875 0.58304688 0 0 Z M3 2 C4 4 4 4 4 4 Z " fill="#54504E" transform="translate(368,242)"/>
<path d="M0 0 C2.31 0 4.62 0 7 0 C8 3 9 6 10 9 C8.68 8.67 7.36 8.34 6 8 C6 5.69 6 3.38 6 1 C4.02 1 2.04 1 0 1 C0 0.67 0 0.34 0 0 Z " fill="#7D797A" transform="translate(393,242)"/>
<path d="M0 0 C-0.99 0.33 -1.98 0.66 -3 1 C-3.33 1.66 -3.66 2.32 -4 3 C-6.62581138 4.57548683 -7.87099787 5 -11 5 C-11 4.01 -11 3.02 -11 2 C-9.73392393 1.46770674 -8.46189588 0.94955456 -7.1875 0.4375 C-6.47980469 0.14746094 -5.77210937 -0.14257812 -5.04296875 -0.44140625 C-3 -1 -3 -1 0 0 Z " fill="#7FA9A6" transform="translate(110,283)"/>
<path d="M0 0 C1.65 0 3.3 0 5 0 C4.67 1.98 4.34 3.96 4 6 C2.68 6 1.36 6 0 6 C-0.33 6.99 -0.66 7.98 -1 9 C-1 7.02 -1 5.04 -1 3 C0.32 2.67 1.64 2.34 3 2 C2.01 1.34 1.02 0.68 0 0 Z " fill="#4E524E" transform="translate(403,262)"/>
<path d="M0 0 C2 0.25 2 0.25 4 1 C4.33 1.99 4.66 2.98 5 4 C3.35 4 1.7 4 0 4 C0 5.65 0 7.3 0 9 C-0.33 9 -0.66 9 -1 9 C-1.09765625 2.84765625 -1.09765625 2.84765625 -1 1 C-0.67 0.67 -0.34 0.34 0 0 Z " fill="#6F706F" transform="translate(313,261)"/>
<path d="M0 0 C0 1.98 0 3.96 0 6 C-1.65 6 -3.3 6 -5 6 C-4.625 3.5625 -4.625 3.5625 -4 1 C-2 0 -2 0 0 0 Z " fill="#302C2A" transform="translate(378,246)"/>
<path d="M0 0 C0.99 0 1.98 0 3 0 C3 3.3 3 6.6 3 10 C2.34 10 1.68 10 1 10 C-0.60725635 6.78548731 -0.05748185 3.56387464 0 0 Z " fill="#2F2B28" transform="translate(446,228)"/>
<path d="M0 0 C0.33 0 0.66 0 1 0 C1 2.64 1 5.28 1 8 C1.66 8 2.32 8 3 8 C3 7.01 3 6.02 3 5 C4.32 5.33 5.64 5.66 7 6 C6.67 6.99 6.34 7.98 6 9 C4.02 9 2.04 9 0 9 C0 6.03 0 3.06 0 0 Z " fill="#ACACAC" transform="translate(423,263)"/>
<path d="M0 0 C0.99 0.33 1.98 0.66 3 1 C3 3.64 3 6.28 3 9 C0 7 0 7 -0.75 3.9375 C-0.8325 2.968125 -0.915 1.99875 -1 1 C-0.67 0.67 -0.34 0.34 0 0 Z " fill="#4E4E4E" transform="translate(352,261)"/>
<path d="M0 0 C0.33 0 0.66 0 1 0 C1.33 3.63 1.66 7.26 2 11 C-0.83967231 11 -3.23735711 10.59732819 -6 10 C-6 9.67 -6 9.34 -6 9 C-4.02 9 -2.04 9 0 9 C0 6.03 0 3.06 0 0 Z M-2 12 C-1.34 12 -0.68 12 0 12 C-0.33 12.66 -0.66 13.32 -1 14 C-1.33 13.34 -1.66 12.68 -2 12 Z " fill="#B0AEAE" transform="translate(399,227)"/>
<path d="M0 0 C-8.261959 4.59225513 -8.261959 4.59225513 -13 4 C-11.68 3.67 -10.36 3.34 -9 3 C-9 2.01 -9 1.02 -9 0 C-2.25 -1.125 -2.25 -1.125 0 0 Z " fill="#218CBE" transform="translate(103,283)"/>
<path d="M0 0 C0.66 0 1.32 0 2 0 C2.12375 0.639375 2.2475 1.27875 2.375 1.9375 C2.684375 2.9584375 2.684375 2.9584375 3 4 C3.66 4.33 4.32 4.66 5 5 C3.02 5.66 1.04 6.32 -1 7 C-1.625 5.1875 -1.625 5.1875 -2 3 C-1.34 2.01 -0.68 1.02 0 0 Z " fill="#302A2A" transform="translate(175,237)"/>
<path d="M0 0 C0.66 0.33 1.32 0.66 2 1 C1.75 3.375 1.75 3.375 1 6 C-1.0625 7.3125 -1.0625 7.3125 -3 8 C-3.33 7.01 -3.66 6.02 -4 5 C-3.01 4.34 -2.02 3.68 -1 3 C-0.67 2.01 -0.34 1.02 0 0 Z " fill="#B8B45E" transform="translate(64,270)"/>
<path d="M0 0 C1.67542976 0.28604898 3.34385343 0.61781233 5 1 C4.67 1.99 4.34 2.98 4 4 C1.36 4 -1.28 4 -4 4 C-3.34 3.67 -2.68 3.34 -2 3 C-1.67 2.34 -1.34 1.68 -1 1 C-0.67 0.67 -0.34 0.34 0 0 Z " fill="#919291" transform="translate(403,268)"/>
<path d="M0 0 C1.98 0.99 1.98 0.99 4 2 C4 3.32 4 4.64 4 6 C3.34 6 2.68 6 2 6 C1.67 7.32 1.34 8.64 1 10 C0.67 6.7 0.34 3.4 0 0 Z " fill="#5B5B5B" transform="translate(256,261)"/>
<path d="M0 0 C0 2.31 0 4.62 0 7 C-1.32 7 -2.64 7 -4 7 C-3.625 4.0625 -3.625 4.0625 -3 1 C-1 0 -1 0 0 0 Z " fill="#575757" transform="translate(255,264)"/>
<path d="M0 0 C0.99 0.33 1.98 0.66 3 1 C3 3.97 3 6.94 3 10 C1.68 10 0.36 10 -1 10 C-0.67 9.34 -0.34 8.68 0 8 C0.66 8 1.32 8 2 8 C1.47731534 5.23723823 0.89130413 2.6739124 0 0 Z " fill="#8E8E8E" transform="translate(209,261)"/>
<path d="M0 0 C0.99 0.99 1.98 1.98 3 3 C2.34 4.32 1.68 5.64 1 7 C0.67 6.34 0.34 5.68 0 5 C-0.99 4.67 -1.98 4.34 -3 4 C-2.01 2.68 -1.02 1.36 0 0 Z " fill="#2B2825" transform="translate(419,234)"/>
<path d="M0 0 C0.66 0.33 1.32 0.66 2 1 C2 3.64 2 6.28 2 9 C0.68 8.34 -0.64 7.68 -2 7 C-1.34 4.69 -0.68 2.38 0 0 Z " fill="#62A083" transform="translate(123,239)"/>
<path d="M0 0 C2 1 2 1 2 1 Z M-1 1 C-0.34 1.33 0.32 1.66 1 2 C1 2.66 1 3.32 1 4 C1.66 4.33 2.32 4.66 3 5 C0.36 5 -2.28 5 -5 5 C-4.67 4.01 -4.34 3.02 -4 2 C-3.01 1.67 -2.02 1.34 -1 1 Z " fill="#515252" transform="translate(370,266)"/>
<path d="M0 0 C-0.33 2.31 -0.66 4.62 -1 7 C-2.32 6.34 -3.64 5.68 -5 5 C-4.625 3.0625 -4.625 3.0625 -4 1 C-2 0 -2 0 0 0 Z " fill="#787878" transform="translate(299,264)"/>
<path d="M0 0 C0.97687451 3.03916514 1.105817 4.98413546 0 8 C-0.66 8.66 -1.32 9.32 -2 10 C-2.6875 7.25 -2.6875 7.25 -3 4 C-1.5625 1.625 -1.5625 1.625 0 0 Z " fill="#676262" transform="translate(221,232)"/>
<path d="M0 0 C1.32 0 2.64 0 4 0 C4 0.66 4 1.32 4 2 C4.66 2.33 5.32 2.66 6 3 C6.33 3.66 6.66 4.32 7 5 C4.625 4.75 4.625 4.75 2 4 C0.6875 1.9375 0.6875 1.9375 0 0 Z " fill="#8C8C8C" transform="translate(429,267)"/>
<path d="M0 0 C1.32 0 2.64 0 4 0 C3.34 1.65 2.68 3.3 2 5 C1.01 5 0.02 5 -1 5 C-0.67 3.35 -0.34 1.7 0 0 Z " fill="#717171" transform="translate(287,267)"/>
<path d="M0 0 C1.9375 0.75 1.9375 0.75 4 2 C4.75 4.125 4.75 4.125 5 6 C4.01 6.33 3.02 6.66 2 7 C1.34 4.69 0.68 2.38 0 0 Z " fill="#6C6C6C" transform="translate(361,262)"/>
<path d="M0 0 C2.475 0.495 2.475 0.495 5 1 C5 2.32 5 3.64 5 5 C3.68 4.67 2.36 4.34 1 4 C0.67 2.68 0.34 1.36 0 0 Z " fill="#686868" transform="translate(299,261)"/>
<path d="M0 0 C0.33 0 0.66 0 1 0 C1 1.98 1 3.96 1 6 C-0.65 6 -2.3 6 -4 6 C-4 5.01 -4 4.02 -4 3 C-2.68 3 -1.36 3 0 3 C0 2.01 0 1.02 0 0 Z " fill="#55504C" transform="translate(366,247)"/>
<path d="M0 0 C-0.33 1.32 -0.66 2.64 -1 4 C-3.97 3.505 -3.97 3.505 -7 3 C-7 2.34 -7 1.68 -7 1 C-4.53721199 -0.231394 -2.7204945 -0.07159196 0 0 Z " fill="#2F2D2C" transform="translate(413,249)"/>
<path d="M0 0 C0.33 1.32 0.66 2.64 1 4 C-0.98 4 -2.96 4 -5 4 C-5 3.01 -5 2.02 -5 1 C-3 0 -3 0 0 0 Z " fill="#393634" transform="translate(180,248)"/>
<path d="M0 0 C1.875 0.3125 1.875 0.3125 4 1 C4.66 1.99 5.32 2.98 6 4 C3.36 3.67 0.72 3.34 -2 3 C-1.34 2.01 -0.68 1.02 0 0 Z " fill="#DC707A" transform="translate(58,222)"/>
<path d="M0 0 C0.33 0.99 0.66 1.98 1 3 C-1.17424117 5.50037734 -2.73045798 6.43628586 -6 7 C-5.34 6.01 -4.68 5.02 -4 4 C-3.34 4 -2.68 4 -2 4 C-1.34 2.68 -0.68 1.36 0 0 Z " fill="#6CB7DA" transform="translate(109,266)"/>
<path d="M0 0 C2.12508244 3.18762365 2.5020163 5.26512223 3 9 C2.01 9 1.02 9 0 9 C0.04125 8.21625 0.0825 7.4325 0.125 6.625 C0.28728734 3.83883881 0.28728734 3.83883881 -2 2 C-1.34 2 -0.68 2 0 2 C0 1.34 0 0.68 0 0 Z " fill="#555250" transform="translate(356,240)"/>
<path d="M0 0 C2.31 0 4.62 0 7 0 C6.67 0.66 6.34 1.32 6 2 C4.35 1.67 2.7 1.34 1 1 C1 1.66 1 2.32 1 3 C1.66 3.33 2.32 3.66 3 4 C1.02 4.99 1.02 4.99 -1 6 C-0.67 4.02 -0.34 2.04 0 0 Z " fill="#545352" transform="translate(335,227)"/>
<path d="" fill="#FFFFFF" transform="translate(0,0)"/>
<path d="" fill="#FFFFFF" transform="translate(0,0)"/>
<path d="" fill="#FFFFFF" transform="translate(0,0)"/>
<path d="" fill="#FFFFFF" transform="translate(0,0)"/>
<path d="" fill="#FFFFFF" transform="translate(0,0)"/>
<path d="" fill="#FFFFFF" transform="translate(0,0)"/>
<path d="" fill="#FFFFFF" transform="translate(0,0)"/>
<path d="" fill="#FFFFFF" transform="translate(0,0)"/>
<path d="" fill="#FFFFFF" transform="translate(0,0)"/>
<path d="" fill="#FFFFFF" transform="translate(0,0)"/>
<path d="" fill="#FFFFFF" transform="translate(0,0)"/>
<path d="" fill="#FFFFFF" transform="translate(0,0)"/>
<path d="" fill="#FFFFFF" transform="translate(0,0)"/>
<path d="" fill="#FFFFFF" transform="translate(0,0)"/>
<path d="" fill="#FFFFFF" transform="translate(0,0)"/>
<path d="" fill="#FFFFFF" transform="translate(0,0)"/>
<path d="" fill="#FFFFFF" transform="translate(0,0)"/>
<path d="" fill="#FFFFFF" transform="translate(0,0)"/>
<path d="" fill="#FFFFFF" transform="translate(0,0)"/>
<path d="" fill="#FFFFFF" transform="translate(0,0)"/>
<path d="" fill="#FFFFFF" transform="translate(0,0)"/>
<path d="" fill="#FFFFFF" transform="translate(0,0)"/>
<path d="" fill="#FFFFFF" transform="translate(0,0)"/>
<path d="" fill="#FFFFFF" transform="translate(0,0)"/>
<path d="" fill="#FFFFFF" transform="translate(0,0)"/>
<path d="" fill="#FFFFFF" transform="translate(0,0)"/>
<path d="" fill="#FFFFFF" transform="translate(0,0)"/>
<path d="" fill="#FFFFFF" transform="translate(0,0)"/>
<path d="" fill="#FFFFFF" transform="translate(0,0)"/>
<path d="" fill="#FFFFFF" transform="translate(0,0)"/>
<path d="" fill="#FFFFFF" transform="translate(0,0)"/>
<path d="" fill="#FFFFFF" transform="translate(0,0)"/>
<path d="" fill="#FFFFFF" transform="translate(0,0)"/>
<path d="" fill="#FFFFFF" transform="translate(0,0)"/>
<path d="" fill="#FFFFFF" transform="translate(0,0)"/>
<path d="" fill="#FFFFFF" transform="translate(0,0)"/>
<path d="" fill="#FFFFFF" transform="translate(0,0)"/>
<path d="" fill="#FFFFFF" transform="translate(0,0)"/>
<path d="" fill="#FFFFFF" transform="translate(0,0)"/>
<path d="" fill="#FFFFFF" transform="translate(0,0)"/>
<path d="" fill="#FFFFFF" transform="translate(0,0)"/>
<path d="" fill="#FFFFFF" transform="translate(0,0)"/>
<path d="" fill="#FFFFFF" transform="translate(0,0)"/>
<path d="" fill="#FFFFFF" transform="translate(0,0)"/>
<path d="" fill="#FFFFFF" transform="translate(0,0)"/>
<path d="" fill="#FFFFFF" transform="translate(0,0)"/>
<path d="" fill="#FFFFFF" transform="translate(0,0)"/>
<path d="" fill="#FFFFFF" transform="translate(0,0)"/>
<path d="" fill="#FFFFFF" transform="translate(0,0)"/>
<path d="" fill="#FFFFFF" transform="translate(0,0)"/>
<path d="" fill="#FFFFFF" transform="translate(0,0)"/>
<path d="" fill="#FFFFFF" transform="translate(0,0)"/>
<path d="" fill="#FFFFFF" transform="translate(0,0)"/>
<path d="" fill="#FFFFFF" transform="translate(0,0)"/>
<path d="" fill="#FFFFFF" transform="translate(0,0)"/>
<path d="" fill="#FFFFFF" transform="translate(0,0)"/>
<path d="" fill="#FFFFFF" transform="translate(0,0)"/>
<path d="" fill="#FFFFFF" transform="translate(0,0)"/>
<path d="" fill="#FFFFFF" transform="translate(0,0)"/>
<path d="" fill="#FFFFFF" transform="translate(0,0)"/>
<path d="" fill="#FFFFFF" transform="translate(0,0)"/>
<path d="" fill="#FFFFFF" transform="translate(0,0)"/>
<path d="" fill="#FFFFFF" transform="translate(0,0)"/>
<path d="" fill="#FFFFFF" transform="translate(0,0)"/>
<path d="" fill="#FFFFFF" transform="translate(0,0)"/>
<path d="" fill="#FFFFFF" transform="translate(0,0)"/>
<path d="" fill="#FFFFFF" transform="translate(0,0)"/>
<path d="" fill="#FFFFFF" transform="translate(0,0)"/>
<path d="" fill="#FFFFFF" transform="translate(0,0)"/>
<path d="" fill="#FFFFFF" transform="translate(0,0)"/>
<path d="" fill="#FFFFFF" transform="translate(0,0)"/>
<path d="" fill="#FFFFFF" transform="translate(0,0)"/>
<path d="" fill="#FFFFFF" transform="translate(0,0)"/>
<path d="" fill="#FFFFFF" transform="translate(0,0)"/>
<path d="" fill="#FFFFFF" transform="translate(0,0)"/>
<path d="" fill="#FFFFFF" transform="translate(0,0)"/>
<path d="" fill="#FFFFFF" transform="translate(0,0)"/>
<path d="" fill="#FFFFFF" transform="translate(0,0)"/>
<path d="" fill="#FFFFFF" transform="translate(0,0)"/>
<path d="" fill="#FFFFFF" transform="translate(0,0)"/>
<path d="" fill="#FFFFFF" transform="translate(0,0)"/>
<path d="" fill="#FFFFFF" transform="translate(0,0)"/>
<path d="" fill="#FFFFFF" transform="translate(0,0)"/>
<path d="" fill="#FFFFFF" transform="translate(0,0)"/>
<path d="" fill="#FFFFFF" transform="translate(0,0)"/>
<path d="" fill="#FFFFFF" transform="translate(0,0)"/>
</svg>
