<?xml version="1.0" standalone="no"?>
<!DOCTYPE svg PUBLIC "-//W3C//DTD SVG 20010904//EN"
 "http://www.w3.org/TR/2001/REC-SVG-20010904/DTD/svg10.dtd">
<svg version="1.0" xmlns="http://www.w3.org/2000/svg"
 width="500.000000pt" height="500.000000pt" viewBox="0 0 500.000000 500.000000"
 preserveAspectRatio="xMidYMid meet">

<g transform="translate(0.000000,500.000000) scale(0.100000,-0.100000)"
fill="#000000" stroke="none">
<path d="M1195 3240 c-11 -4 -35 -14 -53 -21 -42 -15 -122 -94 -122 -120 0
-10 -4 -19 -10 -19 -6 0 -10 -53 -10 -139 0 -123 -2 -140 -17 -147 -10 -4 -63
-9 -118 -10 -108 -1 -175 -11 -175 -25 0 -5 -9 -9 -20 -9 -11 0 -20 -4 -20
-10 0 -5 -5 -10 -11 -10 -16 0 -67 -57 -83 -94 -26 -57 -43 -156 -27 -156 6 0
11 -13 11 -28 0 -30 20 -82 33 -82 4 0 7 -4 7 -10 0 -15 33 -50 47 -50 7 0 13
-4 13 -10 0 -5 7 -10 15 -10 8 0 15 -4 15 -10 0 -5 9 -10 20 -10 11 0 20 -4
20 -10 0 -6 52 -10 135 -10 l135 0 0 -124 c0 -73 4 -127 10 -131 6 -3 10 -19
10 -36 0 -16 5 -29 10 -29 6 0 10 -7 10 -15 0 -17 84 -105 100 -105 6 0 18 -4
28 -9 46 -24 102 -34 127 -23 14 7 37 12 50 12 13 0 27 5 30 10 3 6 13 10 21
10 19 0 79 60 104 104 18 32 33 140 43 291 2 35 5 40 30 43 15 2 27 8 27 13 0
5 5 9 10 9 16 0 93 82 109 115 7 17 17 38 22 47 12 23 12 193 0 216 -5 9 -15
31 -22 47 -8 17 -22 37 -31 46 -10 9 -18 20 -18 25 0 11 -63 54 -102 71 -28
12 -28 12 -28 107 0 52 -4 98 -10 101 -5 3 -10 16 -10 29 0 12 -8 31 -17 42
-10 11 -23 29 -29 40 -6 10 -20 23 -32 29 -12 5 -22 13 -22 17 0 3 -25 16 -55
27 -58 22 -115 26 -150 11z m111 -64 c29 -30 -15 -66 -81 -66 -19 0 -35 -4
-35 -9 0 -5 -9 -13 -20 -16 -11 -3 -20 -13 -20 -21 0 -8 -4 -14 -9 -14 -13 0
-22 -67 -27 -213 l-6 -128 -31 3 -32 3 1 135 c2 144 10 220 25 220 5 0 9 7 9
15 0 18 43 65 60 65 5 0 10 5 10 10 0 6 12 10 28 10 15 0 34 5 42 10 22 14 69
12 86 -4z m219 -417 c5 -5 15 -9 22 -9 19 0 63 -46 63 -65 0 -8 5 -15 10 -15
6 0 10 -9 10 -20 0 -11 5 -20 10 -20 6 0 10 -35 10 -85 0 -50 -4 -85 -10 -85
-5 0 -10 -9 -10 -20 0 -33 -38 -90 -59 -90 -6 0 -11 -4 -11 -10 0 -5 -9 -10
-20 -10 -11 0 -20 -4 -20 -10 0 -6 -42 -10 -105 -10 l-105 0 0 228 c0 126 3
232 7 236 10 9 195 -4 208 -15z m-741 -65 c12 -30 6 -42 -23 -49 -113 -25
-121 -200 -12 -250 31 -14 41 -24 41 -42 0 -21 -4 -23 -44 -23 -37 0 -51 6
-85 38 -23 21 -41 46 -41 55 0 9 -4 17 -10 17 -6 0 -10 29 -10 67 0 83 31 157
73 175 15 7 27 16 27 20 0 5 18 8 39 8 26 0 41 -5 45 -16z"/>
<path d="M1801 2851 c-12 -7 -15 -67 -19 -315 l-5 -306 42 0 41 0 0 254 c0
140 3 261 6 270 5 13 23 16 90 16 83 0 85 -1 119 -35 31 -30 35 -41 35 -85 0
-27 -4 -50 -10 -50 -5 0 -10 -6 -10 -14 0 -8 -9 -18 -20 -21 -11 -3 -20 -11
-20 -16 0 -5 -29 -9 -65 -9 -36 0 -65 -2 -65 -5 0 -11 24 -55 30 -55 4 0 15
-18 26 -40 10 -22 22 -40 27 -40 4 0 7 -7 7 -15 0 -8 5 -15 10 -15 6 0 10 -9
10 -20 0 -11 5 -20 10 -20 6 0 10 -8 10 -18 0 -10 9 -24 20 -32 11 -8 20 -22
20 -31 0 -13 11 -18 50 -21 28 -1 50 0 50 4 0 15 -24 58 -32 58 -4 0 -8 8 -8
18 0 10 -9 24 -20 32 -11 8 -20 22 -20 32 0 10 -4 18 -10 18 -5 0 -10 7 -10
15 0 8 -4 15 -10 15 -5 0 -10 11 -10 25 0 18 7 26 25 31 14 3 25 10 25 15 0 5
6 9 13 9 8 0 24 23 37 51 28 58 32 143 9 187 -21 41 -70 86 -109 99 -44 15
-250 26 -269 14z"/>
<path d="M2446 2848 c-3 -7 -7 -149 -10 -315 l-6 -303 25 -6 c14 -3 36 -3 50
0 25 6 25 8 25 107 0 94 1 101 26 126 21 21 28 23 35 12 13 -22 43 -61 57 -75
6 -7 12 -17 12 -23 0 -6 5 -11 10 -11 6 0 10 -5 10 -10 0 -6 11 -22 25 -36 14
-14 25 -29 25 -34 0 -10 47 -59 58 -61 43 -7 74 -4 79 7 5 13 3 17 -47 73 -16
18 -30 36 -30 41 0 4 -8 16 -17 28 -46 54 -53 63 -53 71 0 4 -13 22 -29 38
-51 54 -56 71 -29 101 12 15 31 34 41 43 9 9 17 21 17 28 0 6 5 11 10 11 6 0
10 5 10 11 0 6 17 27 38 47 21 20 51 55 67 77 17 22 34 43 39 46 13 10 -50 21
-76 14 -23 -7 -108 -92 -108 -108 0 -5 -17 -25 -38 -45 -21 -20 -51 -55 -67
-77 -35 -47 -51 -65 -59 -65 -3 0 -6 65 -6 144 0 122 -2 145 -16 150 -27 10
-64 7 -68 -6z"/>
<path d="M3640 2851 c-54 -17 -97 -45 -140 -91 -62 -67 -70 -77 -70 -93 0 -7
-3 -17 -7 -21 -15 -15 -30 -121 -22 -151 12 -40 11 -75 -1 -75 -5 0 -10 14
-10 30 0 17 -4 30 -10 30 -5 0 -10 9 -10 20 0 11 -5 30 -12 43 -24 48 -28 57
-28 77 0 11 -4 20 -10 20 -5 0 -10 11 -10 25 0 14 -4 25 -10 25 -5 0 -10 7
-10 15 0 8 -6 29 -14 47 -8 18 -21 48 -28 66 -12 30 -16 32 -60 32 -41 0 -48
-3 -48 -20 0 -11 -4 -20 -10 -20 -5 0 -10 -11 -10 -24 0 -14 -4 -28 -10 -31
-5 -3 -10 -15 -10 -26 0 -10 -4 -19 -10 -19 -5 0 -10 -13 -10 -30 0 -16 -4
-30 -10 -30 -5 0 -10 -7 -10 -15 0 -8 -4 -23 -9 -33 -9 -18 -58 -132 -74 -172
-5 -14 -13 -33 -18 -42 -5 -10 -9 -27 -9 -38 0 -11 -4 -20 -10 -20 -5 0 -10
-11 -10 -25 0 -14 -4 -25 -10 -25 -5 0 -10 -16 -10 -35 0 -34 2 -35 36 -35 27
0 37 5 41 20 3 11 9 20 14 20 5 0 9 6 9 14 0 23 42 120 58 133 11 9 44 11 116
7 138 -7 146 -10 146 -39 0 -13 5 -27 10 -30 6 -3 10 -15 10 -26 0 -10 5 -19
10 -19 6 0 10 -12 10 -26 0 -35 22 -54 64 -54 46 0 46 14 3 108 -16 33 7 53
24 21 6 -13 23 -33 37 -44 14 -11 34 -29 46 -40 12 -11 41 -27 66 -35 53 -18
206 -18 223 -1 6 6 19 11 29 11 10 0 18 5 18 10 0 6 6 10 13 10 20 0 107 85
107 104 0 9 5 16 10 16 6 0 10 11 10 24 0 13 5 26 11 28 14 5 14 221 0 226 -6
2 -11 12 -11 23 0 10 -4 19 -10 19 -5 0 -10 7 -10 16 0 23 -75 91 -134 121
-39 20 -69 27 -126 29 -41 2 -86 0 -100 -5z m170 -91 c0 -5 8 -10 18 -10 10 0
24 -9 32 -20 8 -11 18 -20 23 -20 14 0 37 -27 37 -44 0 -9 5 -16 10 -16 6 0
10 -9 10 -19 0 -11 5 -23 10 -26 6 -3 10 -37 10 -76 0 -39 -4 -69 -10 -69 -5
0 -10 -9 -10 -21 0 -31 -57 -109 -79 -109 -6 0 -11 -4 -11 -10 0 -5 -9 -10
-20 -10 -11 0 -20 -4 -20 -10 0 -6 -35 -10 -85 -10 -50 0 -85 4 -85 10 0 6 -7
10 -15 10 -19 0 -105 84 -105 103 0 7 -5 18 -12 25 -16 16 -16 168 0 184 7 7
12 18 12 25 0 18 86 103 104 103 8 0 18 5 21 10 3 6 42 10 86 10 46 0 79 -4
79 -10z m-605 -52 c9 -31 45 -128 57 -155 6 -12 8 -33 4 -47 -6 -23 -11 -26
-44 -22 -20 2 -52 7 -69 11 -22 5 -33 4 -33 -4 0 -6 -4 -11 -10 -11 -5 0 -10
9 -10 19 0 11 5 23 10 26 6 3 10 17 10 31 0 13 5 24 10 24 6 0 10 11 10 25 0
14 5 25 10 25 6 0 10 14 10 30 0 17 5 30 10 30 6 0 10 9 10 20 0 27 17 25 25
-2z m225 -324 c0 -8 -5 -12 -10 -9 -6 4 -8 11 -5 16 9 14 15 11 15 -7z"/>
<path d="M4164 2841 c-91 -56 -111 -188 -40 -265 18 -20 40 -36 49 -36 9 0 17
-4 17 -10 0 -5 14 -10 30 -10 17 0 30 -4 30 -10 0 -5 7 -10 15 -10 8 0 29 -12
45 -27 25 -22 30 -34 30 -73 0 -49 -16 -77 -57 -98 -27 -15 -73 -16 -73 -2 0
6 -9 10 -20 10 -13 0 -20 7 -20 20 0 11 -4 20 -9 20 -6 0 -11 15 -13 33 -3 30
-5 32 -43 32 -34 0 -40 -3 -43 -23 -4 -24 38 -124 62 -147 8 -8 22 -15 30 -15
9 0 16 -4 16 -10 0 -6 30 -10 69 -10 39 0 73 5 76 10 3 6 13 10 21 10 20 0 64
45 64 65 0 8 5 15 10 15 6 0 10 14 10 30 0 17 5 30 10 30 6 0 10 20 10 45 0
25 -4 45 -10 45 -5 0 -10 7 -10 15 0 21 -22 65 -33 65 -5 0 -21 8 -35 18 -15
10 -51 26 -80 35 -67 21 -102 55 -102 99 1 58 48 94 109 82 28 -6 61 -52 61
-85 0 -16 7 -19 40 -19 39 0 40 1 40 34 0 45 -34 106 -74 134 -43 29 -137 31
-182 3z"/>
<path d="M2280 2255 l0 -45 40 0 40 0 0 43 c0 42 0 42 -40 45 l-40 2 0 -45z"/>
</g>
</svg>
