<?xml version="1.0" standalone="no"?>
<!DOCTYPE svg PUBLIC "-//W3C//DTD SVG 20010904//EN"
 "http://www.w3.org/TR/2001/REC-SVG-20010904/DTD/svg10.dtd">
<svg version="1.0" xmlns="http://www.w3.org/2000/svg"
 width="500.000000pt" height="500.000000pt" viewBox="0 0 500.000000 500.000000"
 preserveAspectRatio="xMidYMid meet">

<g transform="translate(0.000000,500.000000) scale(0.100000,-0.100000)"
fill="#000000" stroke="none">
<path d="M493 2834 c3 -10 8 -31 11 -46 6 -27 21 -37 206 -135 229 -122 268
-144 282 -160 8 -10 59 -92 113 -182 55 -89 104 -165 111 -168 7 -2 26 -3 43
-1 l30 3 -129 209 -129 208 -258 141 c-299 162 -287 156 -280 131z"/>
<path d="M1317 2711 c-110 -70 -199 -132 -199 -137 0 -5 58 -102 128 -216
l127 -208 39 0 c21 0 38 2 38 5 0 3 -52 89 -115 190 -64 102 -118 191 -121
199 -3 8 31 36 99 80 57 36 107 66 111 66 4 0 36 -60 72 -132 l65 -133 -33
-11 c-18 -6 -36 -10 -40 -8 -3 2 -23 33 -44 68 l-37 65 -29 -15 c-15 -8 -28
-17 -28 -20 0 -20 104 -174 117 -174 18 0 193 40 193 44 0 2 -36 77 -79 167
l-79 165 12 67 c7 37 10 67 7 67 -3 0 -95 -58 -204 -129z"/>
<path d="M573 2588 c12 -42 15 -44 170 -126 l157 -84 71 -114 c68 -109 72
-114 105 -114 19 0 34 3 34 6 0 3 -37 65 -82 139 l-83 134 -188 100 c-103 56
-189 101 -191 101 -3 0 1 -19 7 -42z"/>
<path d="M2650 2575 c-114 -36 -175 -163 -136 -282 31 -93 103 -143 207 -143
125 0 209 75 209 187 l0 53 -115 0 -115 0 0 -35 0 -35 75 0 c44 0 75 -4 75
-10 0 -6 -15 -26 -33 -46 -26 -28 -42 -37 -77 -41 -112 -11 -185 106 -133 214
33 71 144 92 196 37 17 -18 33 -24 70 -24 26 0 47 4 47 9 0 4 -10 23 -23 42
-47 69 -158 103 -247 74z"/>
<path d="M3509 2581 c-67 -21 -99 -61 -99 -125 0 -53 38 -90 118 -117 77 -25
102 -43 102 -74 0 -31 -19 -45 -61 -45 -28 0 -43 6 -57 25 -15 19 -29 25 -61
25 -34 0 -41 -3 -41 -20 0 -36 56 -88 108 -98 85 -19 160 7 187 64 20 43 19
83 -4 120 -15 25 -34 37 -88 54 -89 29 -113 45 -113 75 0 56 91 69 115 17 8
-18 18 -22 52 -22 40 0 43 2 43 26 0 66 -115 120 -201 95z"/>
<path d="M4274 2571 c-23 -10 -49 -29 -58 -42 -18 -26 -21 -100 -6 -130 13
-23 67 -51 132 -69 62 -16 85 -41 72 -78 -9 -24 -14 -27 -59 -27 -42 0 -52 4
-60 23 -8 18 -18 22 -52 22 -37 0 -43 -3 -43 -20 0 -58 66 -103 150 -103 100
0 166 58 156 138 -6 51 -44 86 -117 110 -79 25 -99 40 -99 75 0 24 6 33 27 41
33 12 80 -4 88 -32 8 -25 95 -28 95 -4 0 84 -132 140 -226 96z"/>
<path d="M1840 2365 l0 -215 45 0 45 0 0 83 0 84 67 2 c77 3 117 20 138 61 22
43 19 112 -7 145 -33 43 -76 55 -188 55 l-100 0 0 -215z m203 133 c26 -21 31
-61 9 -87 -13 -18 -32 -25 -70 -29 l-52 -5 0 67 0 66 48 0 c27 0 56 -6 65 -12z"/>
<path d="M2206 2573 c-3 -4 -6 -101 -6 -215 l1 -208 130 0 130 0 -3 33 -3 32
-82 3 -83 3 0 54 0 54 73 3 72 3 3 33 3 32 -75 0 -76 0 0 55 0 54 83 3 82 3 3
33 3 32 -124 0 c-68 0 -127 -3 -131 -7z"/>
<path d="M3082 2488 c-19 -51 -53 -148 -78 -216 l-44 -123 47 3 c43 3 47 5 58
38 l12 35 87 3 87 3 16 -41 c15 -38 18 -40 61 -40 38 0 43 2 38 17 -16 42
-146 406 -146 409 0 2 -24 4 -53 4 l-52 0 -33 -92z m121 -110 l26 -78 -60 0
c-36 0 -59 4 -59 11 0 24 53 159 60 152 4 -4 19 -43 33 -85z"/>
<path d="M3789 2573 c0 -5 0 -80 1 -168 1 -173 4 -185 61 -228 55 -41 162 -41
218 0 52 39 61 73 61 246 l0 157 -39 0 -40 0 -3 -156 -3 -156 -28 -24 c-45
-38 -113 -27 -136 23 -6 14 -11 84 -11 168 l0 145 -40 0 c-22 0 -40 -3 -41 -7z"/>
<path d="M636 2383 c11 -48 20 -57 88 -92 55 -29 71 -43 96 -88 28 -50 32 -53
70 -53 l39 0 -51 80 c-49 77 -54 81 -146 130 -52 27 -97 50 -99 50 -2 0 0 -12
3 -27z"/>
</g>
</svg>
