<?xml version="1.0" standalone="no"?>
<!DOCTYPE svg PUBLIC "-//W3C//DTD SVG 20010904//EN"
 "http://www.w3.org/TR/2001/REC-SVG-20010904/DTD/svg10.dtd">
<svg version="1.0" xmlns="http://www.w3.org/2000/svg"
 width="500.000000pt" height="500.000000pt" viewBox="0 0 500.000000 500.000000"
 preserveAspectRatio="xMidYMid meet">

<g transform="translate(0.000000,500.000000) scale(0.100000,-0.100000)"
fill="#000000" stroke="none">
<path d="M2000 3679 c-166 -7 -278 -15 -540 -39 -190 -18 -274 -29 -495 -61
-38 -5 -95 -12 -125 -15 -30 -3 -59 -10 -65 -15 -5 -5 -22 -9 -37 -9 -21 0
-28 -5 -28 -20 0 -11 -4 -20 -10 -20 -5 0 -10 -11 -10 -24 0 -14 -4 -28 -10
-31 -5 -3 -10 -15 -10 -26 0 -10 -4 -19 -10 -19 -5 0 -10 -9 -10 -19 0 -11 -4
-23 -10 -26 -5 -3 -10 -17 -10 -31 0 -13 -4 -24 -10 -24 -5 0 -10 -11 -10 -24
0 -14 -4 -28 -10 -31 -5 -3 -10 -15 -10 -26 0 -10 -5 -28 -10 -39 -6 -11 -15
-29 -20 -40 -5 -11 -10 -31 -10 -44 0 -14 -4 -28 -10 -31 -5 -3 -10 -19 -10
-36 0 -16 -4 -29 -9 -29 -5 0 -12 -28 -15 -62 -4 -35 -12 -106 -18 -158 -13
-122 -13 -390 0 -500 6 -47 13 -115 17 -152 4 -38 12 -68 16 -68 5 0 9 -15 9
-34 0 -19 5 -38 10 -41 6 -3 10 -19 10 -35 0 -16 5 -32 10 -35 6 -3 10 -17 10
-31 0 -13 5 -24 10 -24 6 0 10 -13 10 -30 0 -16 5 -30 10 -30 6 0 10 -13 10
-30 0 -16 5 -30 10 -30 6 0 10 -9 10 -19 0 -11 5 -23 10 -26 6 -3 10 -17 10
-31 0 -13 5 -24 10 -24 6 0 10 -11 10 -25 0 -14 5 -25 10 -25 6 0 10 -11 10
-25 0 -14 5 -25 10 -25 6 0 10 -11 10 -23 0 -28 30 -44 110 -59 30 -5 78 -14
105 -19 28 -6 74 -14 102 -19 29 -6 79 -15 110 -20 149 -27 399 -57 693 -82
264 -23 1261 -15 1555 12 216 20 491 51 615 70 106 16 212 30 261 37 48 6 51
8 80 81 6 15 15 35 20 44 5 10 9 27 9 38 0 11 5 20 10 20 6 0 10 14 10 30 0
17 5 30 10 30 6 0 10 13 10 29 0 17 5 33 10 36 6 3 10 19 10 35 0 16 5 32 10
35 6 3 10 22 10 41 0 19 4 34 9 34 5 0 11 17 14 38 3 20 11 62 17 92 27 133
33 219 32 425 -1 232 -9 375 -21 375 -4 0 -8 24 -10 53 -1 28 -6 56 -12 62 -5
5 -9 26 -9 46 0 21 -4 40 -9 43 -5 3 -11 23 -15 43 -13 90 -19 113 -27 113 -5
0 -9 15 -9 34 0 19 -4 38 -10 41 -6 3 -10 19 -10 36 0 16 -4 29 -10 29 -5 0
-10 14 -10 30 0 17 -4 30 -10 30 -5 0 -10 14 -10 30 0 17 -4 30 -10 30 -5 0
-10 12 -10 26 0 43 -42 69 -130 79 -62 7 -141 18 -250 35 -567 88 -1300 125
-1950 99z m850 -314 c52 -4 99 -11 104 -16 6 -5 34 -9 63 -9 29 0 53 -4 53
-10 0 -5 23 -10 50 -10 28 0 50 -4 50 -10 0 -5 18 -10 40 -10 22 0 40 -4 40
-10 0 -5 18 -10 40 -10 22 0 40 -4 40 -10 0 -5 14 -10 30 -10 17 0 30 -4 30
-10 0 -5 14 -10 30 -10 17 0 30 -4 30 -10 0 -5 11 -10 24 -10 14 0 28 -4 31
-10 3 -5 15 -10 26 -10 10 0 19 -4 19 -8 0 -4 21 -14 48 -21 26 -8 49 -17 52
-20 5 -6 69 -41 117 -65 13 -6 23 -14 23 -18 0 -5 8 -8 18 -8 10 0 24 -9 32
-20 8 -11 19 -20 26 -20 10 0 61 -43 139 -119 45 -43 82 -87 96 -113 7 -13 15
-25 18 -28 12 -10 31 -50 31 -65 0 -8 5 -15 10 -15 6 0 10 -11 10 -24 0 -14 5
-28 10 -31 6 -4 10 -58 10 -130 0 -72 -4 -126 -10 -130 -5 -3 -10 -14 -10 -25
0 -20 -40 -103 -52 -108 -5 -2 -8 -10 -8 -18 0 -8 -4 -14 -10 -14 -5 0 -10 -4
-10 -10 0 -13 -23 -41 -86 -104 -97 -97 -191 -161 -354 -240 -147 -71 -218
-97 -360 -135 -299 -79 -536 -106 -850 -98 -269 7 -443 28 -637 76 -24 6 -60
15 -80 20 -35 8 -97 29 -223 76 -62 23 -280 134 -297 151 -8 8 -18 14 -22 14
-4 0 -17 8 -29 18 -11 9 -30 24 -43 32 -68 46 -219 217 -219 249 0 6 -4 11
-10 11 -5 0 -10 7 -10 15 0 8 -4 24 -10 35 -5 11 -14 29 -20 40 -5 11 -10 38
-10 61 0 22 -4 48 -9 57 -9 17 1 94 21 162 15 54 51 130 60 130 4 0 8 7 8 15
0 30 213 245 243 245 7 0 19 9 27 20 8 11 20 20 28 20 7 0 22 9 34 20 12 11
28 20 35 20 7 0 13 5 13 10 0 6 9 10 20 10 11 0 20 5 20 10 0 6 9 10 20 10 11
0 20 5 20 10 0 6 9 10 20 10 11 0 20 5 20 10 0 6 11 10 24 10 14 0 28 5 31 10
3 6 15 10 26 10 10 0 19 5 19 10 0 6 14 10 30 10 17 0 30 5 30 10 0 6 14 10
30 10 17 0 30 5 30 10 0 6 14 10 30 10 17 0 30 5 30 10 0 6 18 10 40 10 22 0
40 5 40 10 0 6 18 10 40 10 22 0 40 5 40 10 0 6 22 10 48 10 26 0 52 4 57 9
11 10 84 19 220 27 50 3 94 10 100 15 10 10 391 6 575 -6z"/>
<path d="M1585 2960 c-22 -4 -52 -12 -67 -18 -37 -15 -108 -90 -108 -113 0
-11 -4 -19 -10 -19 -6 0 -10 -32 -10 -75 0 -43 4 -75 10 -75 6 0 10 -7 10 -15
0 -14 19 -54 30 -65 3 -3 17 -21 30 -40 14 -19 51 -61 82 -93 32 -32 58 -65
58 -73 0 -8 5 -14 10 -14 6 0 10 -9 10 -20 0 -11 5 -20 10 -20 14 0 12 -96 -2
-122 -39 -68 -111 -99 -186 -78 -44 11 -122 78 -122 104 0 9 -4 16 -10 16 -5
0 -10 14 -10 30 0 17 -4 30 -10 30 -5 0 -10 20 -10 45 0 25 -4 45 -10 45 -5 0
-10 -7 -10 -15 0 -8 -4 -15 -10 -15 -5 0 -10 -22 -10 -50 0 -27 -4 -50 -10
-50 -5 0 -10 -18 -10 -40 0 -22 -4 -40 -9 -40 -5 0 -11 -23 -13 -51 -3 -46 -2
-50 17 -43 41 14 118 16 162 4 24 -7 88 -13 141 -13 81 0 105 4 147 23 51 25
115 84 115 107 0 7 5 13 10 13 6 0 10 38 10 94 0 53 -4 98 -10 101 -5 3 -10
13 -10 21 0 9 -6 21 -12 28 -7 7 -38 42 -68 76 -30 35 -68 77 -85 95 -36 37
-55 69 -55 90 0 8 -4 15 -10 15 -5 0 -10 20 -10 45 0 42 12 67 48 99 7 6 19
17 27 24 30 27 127 4 169 -41 24 -26 56 -101 56 -133 0 -27 4 -34 20 -34 17 0
20 7 20 39 0 22 5 43 10 46 6 3 10 21 10 40 0 19 5 37 10 40 13 8 13 95 1 95
-5 0 -11 -6 -13 -12 -5 -15 -116 -15 -144 0 -27 14 -132 21 -179 12z"/>
<path d="M2230 2959 c-25 -4 -69 -12 -97 -17 -52 -8 -82 -22 -49 -22 32 0 49
-29 47 -78 -1 -25 -6 -51 -11 -56 -6 -6 -10 -22 -10 -37 0 -15 -4 -31 -10 -34
-5 -3 -10 -22 -10 -41 0 -19 -4 -34 -10 -34 -5 0 -10 -15 -10 -34 0 -19 -4
-38 -10 -41 -5 -3 -10 -19 -10 -36 0 -16 -4 -29 -10 -29 -5 0 -10 -18 -10 -40
0 -22 -4 -40 -10 -40 -5 0 -10 -13 -10 -29 0 -17 -4 -33 -10 -36 -5 -3 -10
-22 -10 -41 0 -19 -4 -34 -10 -34 -5 0 -10 -15 -10 -34 0 -19 -4 -38 -10 -41
-5 -3 -10 -19 -10 -36 0 -16 -5 -29 -11 -29 -6 0 -9 -10 -7 -22 3 -21 9 -23
67 -26 70 -3 90 10 91 60 0 15 5 30 10 33 6 3 10 22 10 41 0 19 5 34 10 34 6
0 10 11 10 24 0 15 12 34 31 50 37 31 49 33 49 7 0 -11 5 -23 10 -26 6 -3 10
-26 10 -51 0 -24 5 -44 10 -44 6 0 10 -18 10 -40 0 -22 5 -40 10 -40 6 0 10
-8 10 -19 0 -23 50 -46 80 -36 28 9 120 102 120 121 0 8 5 14 10 14 13 0 13
27 1 34 -5 4 -15 -7 -23 -24 -7 -16 -18 -32 -25 -35 -21 -7 -43 6 -43 25 0 11
-4 22 -10 25 -5 3 -10 26 -10 51 0 24 -4 44 -9 44 -5 0 -11 19 -14 43 -3 23
-9 56 -12 74 -7 29 -2 37 44 82 28 27 60 52 71 56 11 3 20 11 20 16 0 5 9 9
20 9 11 0 20 5 20 10 0 6 10 10 23 10 18 0 19 2 7 10 -20 13 -217 13 -225 0
-3 -5 1 -10 10 -10 22 0 45 -24 45 -48 0 -11 -17 -36 -37 -56 -92 -91 -165
-156 -174 -156 -12 0 -12 27 1 35 6 3 10 19 10 35 0 16 5 32 10 35 6 3 10 22
10 41 0 19 5 34 10 34 6 0 10 16 10 35 0 19 5 35 10 35 6 0 10 16 10 35 0 19
5 35 10 35 6 0 10 18 10 40 0 22 5 40 10 40 6 0 10 13 10 29 0 17 5 33 10 36
6 3 10 22 10 41 0 19 5 34 11 34 16 0 6 45 -11 46 -8 1 -35 -2 -60 -7z"/>
<path d="M2823 2778 c-77 -78 -101 -98 -118 -98 -8 0 -15 -4 -15 -8 0 -5 -18
-17 -40 -27 -45 -20 -51 -47 -12 -50 13 -1 27 -7 31 -14 9 -14 2 -69 -10 -77
-5 -3 -9 -18 -9 -35 0 -16 -4 -29 -10 -29 -5 0 -10 -13 -10 -29 0 -17 -4 -33
-10 -36 -5 -3 -10 -19 -10 -35 0 -16 -4 -32 -10 -35 -5 -3 -10 -19 -10 -35 0
-16 -4 -32 -10 -35 -16 -10 -12 -124 5 -142 19 -18 104 -20 136 -2 27 14 79
67 97 98 23 40 4 36 -34 -8 -48 -55 -74 -55 -74 -1 0 22 5 40 10 40 6 0 10 14
10 30 0 17 5 30 10 30 6 0 10 16 10 35 0 19 5 35 10 35 6 0 10 16 10 35 0 19
5 35 10 35 6 0 10 13 10 29 0 17 5 33 10 36 6 3 10 16 10 29 0 30 22 76 38 77
6 1 17 3 22 4 6 1 17 3 25 4 10 1 15 12 15 31 0 27 -3 30 -30 30 -30 0 -42 21
-20 35 6 3 10 19 10 36 0 16 5 29 10 29 6 0 10 16 10 35 0 19 -4 35 -8 35 -4
0 -31 -24 -59 -52z"/>
<path d="M3168 2675 c-3 -3 -30 -10 -60 -15 -31 -4 -75 -14 -99 -21 l-44 -12
33 -9 c31 -8 32 -11 32 -58 0 -27 -4 -52 -10 -55 -5 -3 -10 -19 -10 -35 0 -16
-4 -32 -10 -35 -5 -3 -10 -19 -10 -35 0 -16 -4 -32 -10 -35 -5 -3 -10 -19 -10
-36 0 -16 -4 -29 -10 -29 -5 0 -10 -13 -10 -29 0 -17 -4 -33 -10 -36 -5 -3
-10 -21 -10 -40 0 -19 -4 -37 -10 -40 -5 -3 -10 -19 -10 -36 l0 -29 70 0 c63
0 70 2 70 19 0 11 5 23 10 26 6 3 10 19 10 36 0 16 5 29 10 29 6 0 10 15 10
34 0 19 5 38 10 41 6 3 10 15 10 26 0 10 4 19 8 19 5 0 14 16 22 35 8 19 17
35 22 35 4 0 8 7 8 15 0 8 5 15 10 15 6 0 10 7 10 16 0 9 14 29 30 44 17 15
30 32 30 37 0 17 36 43 58 43 23 0 32 -33 12 -45 -5 -3 -10 -22 -10 -41 0 -19
-4 -34 -10 -34 -5 0 -10 -13 -10 -29 0 -17 -4 -33 -10 -36 -5 -3 -10 -21 -10
-40 0 -19 -4 -37 -10 -40 -5 -3 -10 -17 -10 -30 0 -13 -4 -27 -10 -30 -5 -3
-10 -22 -10 -41 0 -19 -4 -34 -10 -34 -5 0 -10 -16 -10 -35 l0 -35 64 0 c62 0
65 1 80 32 9 17 16 41 16 54 0 13 5 26 10 29 6 3 10 17 10 30 0 13 5 27 10 30
6 3 10 17 10 31 0 13 5 24 10 24 6 0 10 9 10 20 0 11 4 20 8 20 5 0 15 12 23
28 8 15 22 34 31 43 10 9 18 21 18 28 0 6 5 11 10 11 6 0 10 5 10 10 0 6 16
26 35 45 42 43 85 48 85 11 0 -14 -4 -28 -10 -31 -5 -3 -10 -19 -10 -35 0 -16
-4 -32 -10 -35 -5 -3 -10 -17 -10 -30 0 -13 -4 -27 -10 -30 -5 -3 -10 -19 -10
-35 0 -16 -4 -32 -10 -35 -5 -3 -10 -19 -10 -35 0 -15 -4 -30 -10 -32 -5 -1
-10 -29 -11 -62 -2 -51 1 -61 22 -77 13 -10 35 -19 49 -19 30 0 129 59 130 78
0 6 5 12 10 12 6 0 10 7 10 15 0 8 5 15 10 15 6 0 10 10 10 22 l0 22 -20 -22
c-11 -12 -20 -25 -20 -31 0 -13 -27 -22 -45 -15 -17 7 -20 30 -5 39 6 3 10 19
10 36 0 16 5 29 10 29 6 0 10 14 10 30 0 17 5 30 10 30 6 0 10 16 10 35 0 19
5 35 10 35 6 0 10 13 10 29 0 17 5 33 10 36 6 3 10 16 10 27 0 12 5 36 12 54
13 37 0 74 -37 106 -22 19 -60 23 -70 8 -3 -5 -13 -10 -22 -10 -17 0 -143
-122 -143 -139 0 -6 -4 -11 -10 -11 -5 0 -10 -7 -10 -15 0 -8 -4 -15 -10 -15
-5 0 -10 -7 -10 -16 0 -8 -4 -12 -10 -9 -5 3 -10 -1 -10 -9 0 -9 -4 -16 -10
-16 -5 0 -10 11 -10 24 0 14 5 28 10 31 6 3 10 21 10 40 0 19 5 37 10 40 6 3
10 17 10 31 0 13 -4 24 -10 24 -5 0 -10 8 -10 19 0 30 -50 46 -95 30 -38 -14
-125 -89 -125 -108 0 -6 -4 -11 -10 -11 -5 0 -10 -5 -10 -10 0 -6 -9 -20 -20
-32 -11 -12 -20 -28 -20 -35 0 -7 -4 -13 -9 -13 -5 0 -11 -8 -14 -17 -4 -17
-5 -17 -12 1 -5 11 -3 26 3 37 7 10 12 32 12 49 0 16 5 30 10 30 6 0 10 13 10
29 0 17 5 33 10 36 6 3 10 17 10 31 0 17 -6 24 -18 24 -10 0 -21 -2 -24 -5z"/>
</g>
</svg>
