<?xml version="1.0" standalone="no"?>
<!DOCTYPE svg PUBLIC "-//W3C//DTD SVG 20010904//EN"
 "http://www.w3.org/TR/2001/REC-SVG-20010904/DTD/svg10.dtd">
<svg version="1.0" xmlns="http://www.w3.org/2000/svg"
 width="500.000000pt" height="500.000000pt" viewBox="0 0 500.000000 500.000000"
 preserveAspectRatio="xMidYMid meet">

<g transform="translate(0.000000,500.000000) scale(0.100000,-0.100000)"
fill="#000000" stroke="none">
<path d="M3160 4203 c-528 -17 -540 -17 -533 -44 5 -17 0 -19 -68 -19 -120 0
-118 1 -112 -86 3 -41 2 -74 -2 -74 -4 0 -31 22 -59 48 -61 58 -118 92 -211
128 -98 37 -268 45 -370 16 -122 -35 -276 -101 -350 -151 -144 -97 -255 -261
-292 -434 -31 -145 -6 -343 58 -469 10 -20 19 -39 19 -41 0 -3 -59 -40 -130
-82 -72 -43 -133 -82 -136 -87 -10 -15 92 -210 139 -267 43 -52 144 -141 159
-141 5 0 8 -11 8 -25 0 -25 -1 -25 -92 -25 l-91 0 7 -257 c4 -142 11 -420 16
-618 5 -198 12 -456 16 -573 l7 -213 256 6 c496 11 599 32 781 155 70 48 196
180 235 248 17 28 32 52 35 52 3 0 18 -29 34 -65 132 -304 495 -477 821 -391
33 9 98 35 145 58 69 33 102 58 176 132 74 74 99 107 132 176 38 78 79 210
104 335 17 82 5 229 -25 315 -20 56 -23 76 -14 82 7 4 51 32 100 60 48 29 87
58 87 64 0 7 -9 33 -20 59 l-20 46 30 17 c16 9 30 21 30 26 0 4 -17 40 -37 80
-55 105 -168 215 -273 266 -45 21 -106 44 -136 51 l-54 12 0 40 c0 30 4 40 19
44 21 5 21 -48 1 492 -5 140 -8 256 -6 258 1 2 53 6 115 10 l112 6 -2 91 c-2
80 0 91 16 94 16 4 17 18 11 205 -3 111 -9 248 -12 305 l-6 102 -92 -2 c-50 0
-287 -7 -526 -15z m605 -284 c4 -149 4 -273 1 -276 -3 -3 -62 -8 -131 -11
l-125 -5 0 -39 c0 -21 7 -232 16 -469 8 -237 14 -433 12 -434 -5 -5 -573 -24
-578 -19 -2 3 -10 210 -18 462 -7 251 -15 463 -18 470 -3 10 -30 12 -128 6
l-124 -7 -6 194 c-4 107 -9 233 -12 280 l-6 86 224 8 c122 4 311 11 418 15
107 4 256 7 331 8 l136 2 8 -271z m-1673 230 c29 -6 91 -29 138 -51 66 -32
101 -57 156 -112 71 -72 140 -176 131 -200 -3 -7 -58 -44 -123 -84 -176 -105
-163 -86 -111 -169 24 -40 54 -106 67 -149 19 -67 22 -92 17 -193 -6 -140 -28
-210 -99 -317 -159 -238 -472 -330 -738 -217 -133 56 -237 152 -300 274 l-28
55 140 84 c76 46 141 88 144 92 2 4 -12 32 -32 63 -20 31 -42 72 -50 91 -66
158 -58 367 19 519 73 145 216 260 382 306 70 20 211 24 287 8z m373 -680 l7
-91 124 4 c68 1 124 3 124 3 2 0 29 -800 30 -864 l0 -84 110 7 c61 3 110 5
110 2 0 -2 -31 -26 -69 -54 -88 -64 -165 -156 -212 -257 -54 -113 -72 -191
-72 -310 0 -113 18 -197 64 -294 16 -36 26 -67 22 -71 -15 -13 -213 -129 -213
-125 0 2 17 63 37 137 35 127 37 140 38 288 0 149 -1 158 -31 243 -45 126 -87
190 -191 294 -77 78 -106 99 -185 137 -52 25 -99 46 -106 46 -21 0 -13 15 17
33 15 9 60 49 99 88 99 99 152 204 199 392 32 131 35 151 31 252 -4 85 -11
126 -31 180 -14 38 -25 70 -24 71 14 11 104 64 108 64 4 0 10 -41 14 -91z
m1119 -934 c32 -9 88 -30 125 -48 86 -42 214 -167 259 -253 l32 -62 -72 -44
c-40 -25 -100 -61 -133 -81 -33 -20 -66 -41 -73 -45 -11 -7 -5 -22 26 -70 115
-179 126 -422 25 -614 -189 -361 -673 -435 -964 -148 -50 49 -87 97 -108 137
-17 34 -31 64 -31 67 0 2 65 43 145 91 l144 87 -28 42 c-129 189 -146 418 -44
625 72 147 235 278 395 317 74 17 232 17 302 -1z m-1620 -60 c205 -39 401
-186 500 -375 61 -117 81 -199 80 -340 0 -146 -15 -213 -77 -340 -34 -70 -58
-102 -136 -181 -79 -78 -111 -102 -181 -136 -114 -56 -181 -71 -335 -77 -72
-3 -208 -8 -302 -12 l-173 -6 0 42 c0 74 -29 1201 -34 1313 l-5 107 37 1 c20
1 116 5 212 8 290 12 335 12 414 -4z"/>
</g>
</svg>
